<svg width="162" height="58" viewBox="0 0 162 58" fill="none" xmlns="http://www.w3.org/2000/svg">
<path fill-rule="evenodd" clip-rule="evenodd" d="M0 37.8982V37.798C0 26.7952 10.6444 17.5762 25.682 17.5762C40.7197 17.5762 51.2134 26.675 51.2134 37.6778V37.798C51.2134 48.8008 40.5941 57.9998 25.5565 57.9998C10.5188 57.9998 0 48.901 0 37.8982ZM42.2008 37.8982V37.798C42.2008 30.2023 35.272 23.8892 25.5565 23.8892C15.8159 23.8892 9.03766 30.082 9.03766 37.6778V37.798C9.03766 45.3937 15.9665 51.6867 25.682 51.6867C35.4226 51.6867 42.2008 45.4939 42.2008 37.8982Z" fill="#1E1E1E"/>
<path d="M56.5859 18.5977H64.5441L90.7784 45.6135V18.5977H99.2638V57.6785H92.0587L65.0462 29.861V57.6785H56.5859V18.5977Z" fill="#1E1E1E"/>
<path d="M137.799 24.9508H122.26V18.5977H162V24.9508H146.46V57.6785H137.799V24.9508Z" fill="#1E1E1E"/>
<path d="M107.197 54.5942C107.197 56.7386 108.753 57.9812 111.439 57.9812C114.126 57.9812 115.682 56.7386 115.682 54.5942V20.9847C115.682 18.8202 114.126 17.5977 111.439 17.5977C108.753 17.5977 107.197 18.8202 107.197 20.9847V54.5942Z" fill="#1E1E1E"/>
<path d="M120 0.841742C118.31 1.17577 116.87 1.56323 115.682 2.00415C114.494 2.44506 113.498 2.90601 112.695 3.38701C111.908 3.868 111.305 4.33564 110.887 4.78991C110.485 5.24418 110.192 5.65169 110.008 6.01244C109.423 7.16148 109.356 8.23036 109.808 9.21907C111.029 8.56439 112.234 8.4241 113.423 8.7982C114.276 9.06542 114.987 9.5865 115.556 10.3614C116.109 11.123 116.151 11.9781 115.682 12.9267C115.264 13.7551 114.502 14.3497 113.397 14.7104C112.31 15.0712 111.172 15.0645 109.983 14.6904C109.13 14.4098 108.435 13.9956 107.9 13.4478C107.347 12.9 106.954 12.2921 106.72 11.624C106.469 10.956 106.393 10.2412 106.494 9.47961C106.577 8.71804 106.795 7.98986 107.146 7.29509C107.682 6.25294 108.477 5.30431 109.531 4.4492C110.586 3.5941 111.715 2.85257 112.92 2.2246C114.126 1.61 115.347 1.12232 116.586 0.761576C117.808 0.400829 118.854 0.146971 119.724 0L120 0.841742Z" fill="#1E1E1E"/>
</svg>
