<svg width="167" height="32" viewBox="0 0 167 32" fill="none" xmlns="http://www.w3.org/2000/svg">
<path d="M16.0328 1.59961L3 30.3979H5.22599L17.0445 3.90341L28.9031 30.3979H31.1296L18.0937 1.59961H16.0328ZM39.6453 1.59961V30.3975H58.0203V28.5055H41.7092V1.59967L39.6453 1.59961ZM66.7327 1.59961V3.49166H77.7823C80.3725 3.49166 82.6793 4.02636 84.7029 5.09602C86.6861 6.16568 88.2239 7.64692 89.3168 9.49809C90.3691 11.3906 90.936 13.5711 90.936 15.9984C90.936 18.4669 90.3691 20.6064 89.3168 22.4988C88.224 24.3913 86.6861 25.8723 84.7029 26.9417C82.6793 28.0114 80.3727 28.5052 77.7823 28.5052H68.7975V16.0005H66.7329V30.3996H77.9445C80.8585 30.3996 83.4891 29.7826 85.7559 28.5484C88.0223 27.3142 89.803 25.6274 91.0984 23.4471C92.3531 21.2666 93.0006 18.7983 93.0006 16.0008C93.0006 13.2444 92.3531 10.7757 91.0984 8.59543C89.8032 6.41497 88.0224 4.72853 85.7559 3.45329C83.4894 2.21906 80.8585 1.60205 77.9445 1.60205L66.7327 1.59961ZM103.543 1.59961V3.49166H121.877V1.59961H103.543ZM134.03 1.59961V3.49166H152.162V1.59961H134.03ZM162.936 1.59961V30.3975H165V1.59961H162.936ZM103.543 14.8467V16.6979H121.877V14.8467H103.543ZM134.03 15.7933V30.3977H136.094V17.6855H152.162V15.7934L134.03 15.7933ZM103.543 28.5056V30.3976H121.877V28.5056H103.543Z" fill="black" stroke="#1E1E1E" stroke-width="3" stroke-linecap="round"/>
</svg>
