<svg width="305" height="235" viewBox="0 0 305 235" fill="none" xmlns="http://www.w3.org/2000/svg">
<g style="mix-blend-mode:difference" filter="url(#filter0_f_603_9250)">
<path d="M185.5 144.174C200.136 144.174 212 133.876 212 121.174C212 108.471 200.136 98.1738 185.5 98.1738C170.864 98.1738 159 108.471 159 121.174C159 133.876 170.864 144.174 185.5 144.174Z" fill="#F67CFF"/>
</g>
<path fill-rule="evenodd" clip-rule="evenodd" d="M7.6355 159.866C3.974 159.866 1.00929 157.265 1.02152 154.064L1.10155 132.62C1.10486 131.666 1.37834 130.728 1.89721 129.889L37.5449 72.2311C39.5718 68.9531 44.563 68.182 47.7516 70.6544L82.8041 97.8323C83.7199 98.5425 84.8433 99.0165 86.049 99.2015C87.2548 99.3866 88.4956 99.2754 89.6333 98.8804L123.008 87.2945C124.46 86.7906 126.068 86.752 127.549 87.1855L151.779 94.2806C152.859 94.597 154.015 94.6639 155.134 94.4749L175.942 90.9604C177.255 90.7385 178.46 90.1738 179.399 89.3408C180.337 88.5078 180.965 87.4456 181.199 86.2943L184.575 69.6884C184.807 68.5463 185.427 67.4917 186.353 66.6615C187.28 65.8313 188.47 65.2639 189.771 65.033L219.669 59.7251C223.767 58.9976 227.599 61.736 227.599 65.3921V154.083C227.599 157.277 224.638 159.866 220.985 159.866H7.6355Z" fill="#F1F6FF" stroke="#DDDBFA" stroke-width="0.5" stroke-linecap="round" stroke-linejoin="round"/>
<path fill-rule="evenodd" clip-rule="evenodd" d="M27.6211 147.447H28.6096C28.8484 147.447 29.0408 147.617 29.0408 147.824V148.689C29.0408 148.898 28.8464 149.066 28.6096 149.066H27.6211C27.5069 149.065 27.3974 149.025 27.3166 148.955C27.2357 148.884 27.1901 148.788 27.1896 148.689V147.824C27.1895 147.775 27.2006 147.726 27.2223 147.68C27.2439 147.634 27.2757 147.593 27.3158 147.557C27.3559 147.522 27.4035 147.495 27.4559 147.476C27.5083 147.457 27.5645 147.447 27.6211 147.447ZM31.0475 147.447H32.036C32.1502 147.448 32.2597 147.488 32.3405 147.558C32.4214 147.629 32.467 147.724 32.4675 147.824V148.689C32.4675 148.898 32.2731 149.066 32.036 149.066H31.0475C30.9333 149.065 30.8239 149.025 30.7432 148.955C30.6624 148.884 30.6168 148.788 30.6163 148.689V147.824C30.6168 147.725 30.6624 147.629 30.7432 147.558C30.8239 147.488 30.9333 147.448 31.0475 147.447ZM34.4765 147.447H35.465C35.7021 147.447 35.8962 147.617 35.8962 147.824V148.689C35.8962 148.898 35.7021 149.066 35.465 149.066H34.4765C34.3623 149.065 34.2529 149.025 34.1722 148.955C34.0914 148.884 34.0458 148.788 34.0453 148.689V147.824C34.0452 147.775 34.0563 147.726 34.0779 147.68C34.0996 147.634 34.1313 147.593 34.1714 147.558C34.2115 147.523 34.259 147.495 34.3114 147.476C34.3638 147.457 34.4199 147.447 34.4765 147.447ZM37.9032 147.447H38.8914C39.0056 147.448 39.1151 147.488 39.1959 147.558C39.2768 147.629 39.3224 147.724 39.3229 147.824V148.689C39.3229 148.898 39.1285 149.066 38.8914 149.066H37.9032C37.7886 149.066 37.6786 149.026 37.5974 148.955C37.5161 148.885 37.4702 148.789 37.4697 148.689V147.824C37.471 147.724 37.5172 147.629 37.5982 147.558C37.6793 147.488 37.7889 147.448 37.9032 147.447ZM41.3299 147.447H42.3184C42.433 147.447 42.543 147.487 42.6242 147.558C42.7055 147.628 42.7514 147.724 42.7519 147.824V148.689C42.7519 148.898 42.5575 149.066 42.3184 149.066H41.3299C41.2157 149.065 41.1063 149.025 41.0256 148.955C40.9448 148.884 40.8992 148.788 40.8987 148.689V147.824C40.8992 147.725 40.9448 147.629 41.0256 147.558C41.1063 147.488 41.2157 147.448 41.3299 147.447ZM31.1735 150.714H32.1616C32.2759 150.715 32.3854 150.754 32.4662 150.825C32.547 150.896 32.5927 150.991 32.5932 151.091V151.957C32.5928 152.057 32.5472 152.153 32.4663 152.224C32.3855 152.294 32.276 152.334 32.1616 152.335H31.1735C31.0591 152.335 30.9494 152.295 30.8684 152.224C30.7875 152.153 30.742 152.057 30.7419 151.957V151.093C30.7416 151.044 30.7525 150.994 30.774 150.948C30.7956 150.902 30.8273 150.86 30.8674 150.825C30.9076 150.79 30.9553 150.762 31.0078 150.743C31.0603 150.724 31.1166 150.714 31.1735 150.714ZM34.5999 150.714H35.5883C35.8254 150.714 36.0196 150.884 36.0196 151.091V151.957C36.0196 152.165 35.8254 152.335 35.5883 152.335H34.5999C34.4856 152.334 34.3762 152.294 34.2954 152.224C34.2146 152.153 34.1691 152.057 34.1686 151.957V151.093C34.1683 151.044 34.1792 150.994 34.2007 150.948C34.2222 150.902 34.2539 150.861 34.294 150.825C34.3341 150.79 34.3818 150.762 34.4343 150.743C34.4868 150.724 34.543 150.714 34.5999 150.714ZM38.0269 150.714H39.0154C39.2541 150.714 39.4486 150.884 39.4486 151.091V151.957C39.4482 152.057 39.4023 152.153 39.3211 152.224C39.2399 152.295 39.13 152.335 39.0154 152.335H38.0269C37.9126 152.334 37.8031 152.294 37.7222 152.224C37.6414 152.153 37.5958 152.057 37.5954 151.957V151.093C37.5954 150.884 37.7898 150.714 38.0269 150.714ZM34.4765 143.938H35.465C35.7021 143.938 35.8962 144.108 35.8962 144.315V145.179C35.8962 145.388 35.7021 145.556 35.465 145.556H34.4765C34.3623 145.556 34.2528 145.516 34.1721 145.445C34.0913 145.374 34.0457 145.279 34.0453 145.179V144.315C34.0452 144.265 34.0562 144.216 34.0778 144.17C34.0995 144.125 34.1312 144.083 34.1713 144.048C34.2114 144.013 34.2589 143.985 34.3113 143.966C34.3637 143.947 34.4198 143.937 34.4765 143.938ZM31.0511 143.938H32.0393C32.1536 143.938 32.2631 143.978 32.344 144.048C32.4248 144.119 32.4704 144.215 32.4708 144.315V145.179C32.4708 145.388 32.2764 145.556 32.0393 145.556H31.0511C30.9368 145.556 30.8273 145.516 30.7465 145.445C30.6656 145.374 30.62 145.279 30.6196 145.179V144.315C30.6195 144.265 30.6305 144.216 30.6522 144.17C30.6738 144.124 30.7056 144.083 30.7457 144.048C30.7858 144.013 30.8334 143.985 30.8858 143.966C30.9383 143.947 30.9944 143.937 31.0511 143.938ZM37.9032 143.938H38.8914C39.0057 143.938 39.1152 143.978 39.196 144.048C39.2769 144.119 39.3225 144.215 39.3229 144.315V145.179C39.3229 145.388 39.1285 145.556 38.8914 145.556H37.9032C37.7886 145.556 37.6786 145.516 37.5974 145.446C37.5161 145.375 37.4702 145.279 37.4697 145.179V144.315C37.4709 144.215 37.517 144.119 37.5981 144.049C37.6792 143.978 37.7888 143.938 37.9032 143.938ZM52.2929 147.447H53.2811C53.5202 147.447 53.7126 147.617 53.7126 147.824V148.689C53.7126 148.898 53.5182 149.066 53.2811 149.066H52.2929C52.1787 149.065 52.0692 149.025 51.9884 148.955C51.9076 148.884 51.8619 148.788 51.8614 148.689V147.824C51.8613 147.775 51.8724 147.726 51.8941 147.68C51.9157 147.634 51.9475 147.593 51.9876 147.557C52.0277 147.522 52.0753 147.495 52.1277 147.476C52.1801 147.457 52.2363 147.447 52.2929 147.447ZM55.7193 147.447H56.7078C56.822 147.448 56.9314 147.488 57.0121 147.558C57.0929 147.629 57.1385 147.725 57.139 147.824V148.689C57.139 148.898 56.9446 149.066 56.7078 149.066H55.7193C55.6051 149.065 55.4957 149.025 55.415 148.955C55.3342 148.884 55.2886 148.788 55.2881 148.689V147.824C55.2886 147.725 55.3342 147.629 55.415 147.558C55.4957 147.488 55.6051 147.448 55.7193 147.447ZM59.1483 147.447H60.1368C60.251 147.448 60.3604 147.488 60.4411 147.558C60.5219 147.629 60.5675 147.725 60.568 147.824V148.689C60.568 148.898 60.3736 149.066 60.1368 149.066H59.1483C59.0341 149.065 58.9247 149.025 58.844 148.955C58.7632 148.884 58.7176 148.788 58.7171 148.689V147.824C58.717 147.775 58.728 147.726 58.7497 147.68C58.7713 147.634 58.803 147.593 58.8431 147.557C58.8832 147.522 58.9308 147.495 58.9832 147.476C59.0355 147.457 59.0917 147.447 59.1483 147.447ZM62.5747 147.447H63.5632C63.6774 147.448 63.7869 147.488 63.8677 147.558C63.9486 147.629 63.9942 147.724 63.9947 147.824V148.689C63.9947 148.898 63.8003 149.066 63.5632 149.066H62.5747C62.4602 149.066 62.3503 149.026 62.2691 148.955C62.1879 148.885 62.142 148.789 62.1415 148.689V147.824C62.1427 147.724 62.1888 147.629 62.2698 147.558C62.3509 147.488 62.4604 147.448 62.5747 147.447ZM66.0017 147.447H66.9902C67.229 147.447 67.4234 147.617 67.4234 147.824V148.689C67.4234 148.898 67.229 149.066 66.9902 149.066H66.0017C65.8875 149.065 65.7782 149.025 65.6974 148.955C65.6166 148.884 65.571 148.788 65.5705 148.689V147.824C65.571 147.725 65.6166 147.629 65.6974 147.558C65.7782 147.488 65.8875 147.448 66.0017 147.447ZM55.845 150.714H56.8334C56.9477 150.715 57.057 150.755 57.1378 150.825C57.2186 150.896 57.2642 150.991 57.2647 151.091V151.957C57.2642 152.057 57.2187 152.153 57.1379 152.224C57.0571 152.294 56.9477 152.334 56.8334 152.335H55.845C55.7306 152.334 55.621 152.295 55.5401 152.224C55.4593 152.153 55.4138 152.057 55.4138 151.957V151.093C55.4134 151.044 55.4243 150.994 55.4458 150.948C55.4673 150.902 55.4991 150.861 55.5391 150.825C55.5792 150.79 55.6269 150.762 55.6794 150.743C55.7319 150.724 55.7881 150.714 55.845 150.714ZM59.2717 150.714H60.2601C60.3744 150.715 60.4837 150.755 60.5645 150.825C60.6453 150.896 60.6909 150.991 60.6914 151.091V151.957C60.6909 152.057 60.6454 152.153 60.5646 152.224C60.4838 152.294 60.3744 152.334 60.2601 152.335H59.2717C59.1574 152.334 59.048 152.294 58.9672 152.224C58.8865 152.153 58.8409 152.057 58.8405 151.957V151.093C58.8401 151.044 58.851 150.994 58.8725 150.948C58.894 150.902 58.9258 150.861 58.9658 150.825C59.0059 150.79 59.0536 150.762 59.1061 150.743C59.1586 150.724 59.2148 150.714 59.2717 150.714ZM62.6987 150.714H63.6868C63.8015 150.714 63.9114 150.754 63.9927 150.824C64.0739 150.895 64.1199 150.991 64.1204 151.091V151.957C64.1204 152.165 63.9259 152.335 63.6868 152.335H62.6987C62.5844 152.334 62.4749 152.294 62.394 152.224C62.3132 152.153 62.2676 152.057 62.2672 151.957V151.093C62.2672 150.884 62.4616 150.714 62.6987 150.714ZM59.1483 143.938H60.1368C60.2511 143.938 60.3605 143.978 60.4413 144.049C60.522 144.119 60.5676 144.215 60.568 144.315V145.179C60.568 145.388 60.3736 145.556 60.1368 145.556H59.1483C59.0341 145.556 58.9246 145.516 58.8439 145.445C58.7631 145.374 58.7175 145.279 58.7171 145.179V144.315C58.7169 144.265 58.728 144.216 58.7496 144.17C58.7712 144.124 58.8029 144.083 58.843 144.048C58.8831 144.013 58.9307 143.985 58.9831 143.966C59.0355 143.947 59.0916 143.937 59.1483 143.938ZM55.7226 143.938H56.7111C56.8254 143.938 56.9349 143.978 57.0158 144.048C57.0966 144.119 57.1422 144.215 57.1426 144.315V145.179C57.1426 145.388 56.9482 145.556 56.7111 145.556H55.7226C55.6084 145.556 55.4989 145.516 55.4182 145.445C55.3374 145.374 55.2918 145.279 55.2914 145.179V144.315C55.2913 144.265 55.3023 144.216 55.3239 144.17C55.3456 144.125 55.3773 144.083 55.4174 144.048C55.4575 144.013 55.505 143.985 55.5574 143.966C55.6098 143.947 55.6659 143.937 55.7226 143.938ZM62.5747 143.938H63.5632C63.6775 143.938 63.787 143.978 63.8678 144.048C63.9487 144.119 63.9943 144.215 63.9947 144.315V145.179C63.9947 145.388 63.8003 145.556 63.5632 145.556H62.5747C62.4601 145.556 62.3502 145.516 62.269 145.446C62.1878 145.375 62.1419 145.279 62.1415 145.179V144.315C62.1427 144.215 62.1888 144.119 62.2698 144.049C62.3508 143.978 62.4603 143.938 62.5747 143.938ZM76.9644 147.447H77.9529C78.1916 147.447 78.3841 147.617 78.3841 147.824V148.689C78.3841 148.898 78.1897 149.066 77.9529 149.066H76.9644C76.8502 149.065 76.7408 149.025 76.6601 148.955C76.5793 148.884 76.5337 148.788 76.5332 148.689V147.824C76.5331 147.775 76.5441 147.726 76.5657 147.68C76.5874 147.634 76.6191 147.593 76.6592 147.557C76.6993 147.522 76.7469 147.495 76.7992 147.476C76.8516 147.457 76.9078 147.447 76.9644 147.447ZM80.3911 147.447H81.3792C81.4935 147.448 81.603 147.488 81.6838 147.558C81.7646 147.629 81.8103 147.724 81.8108 147.824V148.689C81.8108 148.898 81.6164 149.066 81.3792 149.066H80.3911C80.2769 149.065 80.1674 149.025 80.0866 148.955C80.0057 148.884 79.9601 148.788 79.9596 148.689V147.824C79.9601 147.724 80.0057 147.629 80.0866 147.558C80.1674 147.488 80.2769 147.448 80.3911 147.447ZM83.8201 147.447H84.8083C84.9225 147.448 85.032 147.488 85.1128 147.558C85.1937 147.629 85.2393 147.724 85.2398 147.824V148.689C85.2398 148.898 85.0454 149.066 84.8083 149.066H83.8201C83.7059 149.065 83.5964 149.025 83.5156 148.955C83.4348 148.884 83.3891 148.788 83.3886 148.689V147.824C83.3885 147.775 83.3996 147.726 83.4213 147.68C83.4429 147.634 83.4747 147.593 83.5148 147.557C83.5549 147.522 83.6025 147.495 83.6549 147.476C83.7073 147.457 83.7635 147.447 83.8201 147.447ZM87.2465 147.447H88.235C88.3492 147.448 88.4586 147.488 88.5393 147.558C88.6201 147.629 88.6657 147.725 88.6662 147.824V148.689C88.6662 148.898 88.4718 149.066 88.235 149.066H87.2465C87.1319 149.066 87.0219 149.026 86.9407 148.955C86.8594 148.885 86.8135 148.789 86.813 148.689V147.824C86.8143 147.724 86.8604 147.629 86.9415 147.558C87.0226 147.488 87.1321 147.448 87.2465 147.447ZM90.6736 147.447H91.6617C91.7763 147.447 91.8863 147.487 91.9675 147.558C92.0488 147.628 92.0947 147.724 92.0952 147.824V148.689C92.0952 148.898 91.9008 149.066 91.6617 149.066H90.6736C90.5593 149.065 90.4498 149.025 90.369 148.955C90.2882 148.884 90.2425 148.788 90.242 148.689V147.824C90.2425 147.724 90.2882 147.629 90.369 147.558C90.4498 147.488 90.5593 147.448 90.6736 147.447ZM80.5168 150.714H81.5049C81.6192 150.715 81.7286 150.754 81.8095 150.825C81.8903 150.896 81.936 150.991 81.9365 151.091V151.957C81.936 152.057 81.8904 152.153 81.8096 152.224C81.7288 152.294 81.6192 152.334 81.5049 152.335H80.5168C80.4024 152.335 80.2926 152.295 80.2117 152.224C80.1308 152.153 80.0853 152.057 80.0852 151.957V151.093C80.0849 151.044 80.0958 150.994 80.1173 150.948C80.1389 150.902 80.1706 150.86 80.2107 150.825C80.2509 150.79 80.2985 150.762 80.3511 150.743C80.4036 150.724 80.4599 150.714 80.5168 150.714ZM83.9435 150.714H84.9316C85.0459 150.715 85.1553 150.754 85.2362 150.825C85.317 150.896 85.3627 150.991 85.3632 151.091V151.957C85.3627 152.057 85.3171 152.153 85.2363 152.224C85.1555 152.294 85.0459 152.334 84.9316 152.335H83.9435C83.8292 152.334 83.7197 152.294 83.6388 152.224C83.558 152.153 83.5124 152.057 83.5119 151.957V151.093C83.5116 151.044 83.5225 150.994 83.544 150.948C83.5656 150.902 83.5973 150.86 83.6374 150.825C83.6776 150.79 83.7252 150.762 83.7778 150.743C83.8303 150.724 83.8866 150.714 83.9435 150.714ZM87.3702 150.714H88.3587C88.5974 150.714 88.7919 150.884 88.7919 151.091V151.957C88.7914 152.057 88.7456 152.153 88.6644 152.224C88.5832 152.295 88.4733 152.335 88.3587 152.335H87.3702C87.2559 152.334 87.1465 152.294 87.0657 152.224C86.985 152.153 86.9394 152.057 86.939 151.957V151.093C86.9389 150.993 86.9842 150.897 87.065 150.826C87.1459 150.755 87.2556 150.715 87.3702 150.714ZM83.8201 143.938H84.8083C84.9226 143.938 85.0321 143.978 85.1129 144.048C85.1938 144.119 85.2394 144.215 85.2398 144.315V145.179C85.2398 145.388 85.0454 145.556 84.8083 145.556H83.8201C83.7058 145.556 83.5963 145.516 83.5155 145.445C83.4346 145.374 83.389 145.279 83.3886 145.179V144.315C83.3885 144.265 83.3995 144.216 83.4212 144.17C83.4428 144.124 83.4746 144.083 83.5147 144.048C83.5548 144.013 83.6024 143.985 83.6548 143.966C83.7073 143.947 83.7634 143.937 83.8201 143.938ZM80.3944 143.938H81.3829C81.4972 143.938 81.6066 143.978 81.6874 144.049C81.7681 144.119 81.8137 144.215 81.8141 144.315V145.179C81.8141 145.388 81.6197 145.556 81.3829 145.556H80.3944C80.2801 145.556 80.1706 145.516 80.0897 145.445C80.0089 145.374 79.9633 145.279 79.9629 145.179V144.315C79.9627 144.265 79.9738 144.216 79.9955 144.17C80.0171 144.124 80.0489 144.083 80.089 144.048C80.1291 144.013 80.1767 143.985 80.2291 143.966C80.2815 143.947 80.3377 143.937 80.3944 143.938ZM87.2465 143.938H88.235C88.3492 143.938 88.4587 143.978 88.5394 144.049C88.6202 144.119 88.6658 144.215 88.6662 144.315V145.179C88.6662 145.388 88.4718 145.556 88.235 145.556H87.2465C87.1319 145.556 87.0219 145.516 86.9407 145.446C86.8594 145.375 86.8135 145.279 86.813 145.179V144.315C86.8142 144.215 86.8603 144.119 86.9414 144.049C87.0225 143.978 87.1321 143.938 87.2465 143.938ZM101.636 147.447H102.624C102.863 147.447 103.056 147.617 103.056 147.824V148.689C103.056 148.898 102.861 149.066 102.624 149.066H101.636C101.522 149.065 101.412 149.025 101.332 148.955C101.251 148.884 101.205 148.788 101.205 148.689V147.824C101.205 147.775 101.216 147.726 101.237 147.68C101.259 147.634 101.291 147.593 101.331 147.557C101.371 147.522 101.419 147.495 101.471 147.476C101.523 147.457 101.58 147.447 101.636 147.447ZM105.063 147.447H106.051C106.165 147.448 106.275 147.488 106.355 147.558C106.436 147.629 106.482 147.725 106.482 147.824V148.689C106.482 148.898 106.288 149.066 106.051 149.066H105.063C104.948 149.065 104.839 149.025 104.758 148.955C104.677 148.884 104.632 148.788 104.631 148.689V147.824C104.632 147.725 104.677 147.629 104.758 147.558C104.839 147.488 104.948 147.448 105.063 147.447ZM108.492 147.447H109.48C109.594 147.448 109.704 147.488 109.784 147.558C109.865 147.629 109.911 147.725 109.911 147.824V148.689C109.911 148.898 109.717 149.066 109.48 149.066H108.492C108.377 149.065 108.268 149.025 108.187 148.955C108.107 148.884 108.061 148.788 108.06 148.689V147.824C108.06 147.775 108.071 147.726 108.093 147.68C108.114 147.634 108.146 147.592 108.186 147.557C108.226 147.522 108.274 147.495 108.326 147.476C108.379 147.457 108.435 147.447 108.492 147.447ZM111.918 147.447H112.906C113.144 147.447 113.338 147.617 113.338 147.824V148.689C113.338 148.898 113.144 149.066 112.906 149.066H111.918C111.803 149.066 111.694 149.026 111.612 148.955C111.531 148.885 111.485 148.789 111.485 148.689V147.824C111.486 147.724 111.532 147.629 111.613 147.558C111.694 147.488 111.804 147.448 111.918 147.447ZM115.345 147.447H116.333C116.572 147.447 116.767 147.617 116.767 147.824V148.689C116.767 148.898 116.572 149.066 116.333 149.066H115.345C115.231 149.065 115.121 149.025 115.041 148.955C114.96 148.884 114.914 148.788 114.914 148.689V147.824C114.914 147.725 114.96 147.629 115.041 147.558C115.121 147.488 115.231 147.448 115.345 147.447ZM105.188 150.714H106.177C106.291 150.715 106.4 150.755 106.481 150.825C106.562 150.896 106.607 150.991 106.608 151.091V151.957C106.608 152.057 106.562 152.153 106.481 152.224C106.4 152.294 106.291 152.334 106.177 152.335H105.188C105.074 152.334 104.964 152.295 104.883 152.224C104.803 152.153 104.757 152.057 104.757 151.957V151.093C104.757 151.044 104.768 150.994 104.789 150.948C104.811 150.902 104.842 150.861 104.882 150.825C104.923 150.79 104.97 150.762 105.023 150.743C105.075 150.724 105.131 150.714 105.188 150.714ZM108.615 150.714H109.603C109.718 150.715 109.827 150.755 109.908 150.825C109.989 150.896 110.034 150.991 110.035 151.091V151.957C110.034 152.057 109.989 152.153 109.908 152.224C109.827 152.294 109.718 152.334 109.603 152.335H108.615C108.501 152.334 108.391 152.294 108.311 152.224C108.23 152.153 108.184 152.057 108.184 151.957V151.093C108.183 151.044 108.194 150.994 108.216 150.948C108.237 150.902 108.269 150.861 108.309 150.825C108.349 150.79 108.397 150.762 108.449 150.743C108.502 150.724 108.558 150.714 108.615 150.714ZM112.042 150.714H113.03C113.145 150.714 113.255 150.754 113.336 150.824C113.417 150.895 113.463 150.991 113.464 151.091V151.957C113.464 152.165 113.269 152.335 113.03 152.335H112.042C111.928 152.334 111.818 152.294 111.737 152.224C111.656 152.153 111.611 152.057 111.61 151.957V151.093C111.61 150.884 111.805 150.714 112.042 150.714ZM108.492 143.938H109.48C109.594 143.938 109.704 143.978 109.785 144.049C109.865 144.119 109.911 144.215 109.911 144.315V145.179C109.911 145.388 109.717 145.556 109.48 145.556H108.492C108.377 145.556 108.268 145.516 108.187 145.445C108.106 145.374 108.061 145.279 108.06 145.179V144.315C108.06 144.265 108.071 144.216 108.093 144.17C108.114 144.124 108.146 144.083 108.186 144.048C108.226 144.013 108.274 143.985 108.326 143.966C108.379 143.947 108.435 143.937 108.492 143.938ZM105.066 143.938H106.054C106.169 143.938 106.278 143.978 106.359 144.048C106.44 144.119 106.485 144.215 106.486 144.315V145.179C106.486 145.388 106.291 145.556 106.054 145.556H105.066C104.952 145.556 104.842 145.516 104.761 145.445C104.681 145.374 104.635 145.279 104.635 145.179V144.315C104.635 144.265 104.646 144.216 104.667 144.17C104.689 144.125 104.721 144.083 104.761 144.048C104.801 144.013 104.848 143.985 104.901 143.966C104.953 143.947 105.009 143.937 105.066 143.938ZM111.918 143.938H112.906C113.144 143.938 113.338 144.108 113.338 144.315V145.179C113.338 145.388 113.144 145.556 112.906 145.556H111.918C111.803 145.556 111.693 145.516 111.612 145.446C111.531 145.375 111.485 145.279 111.485 145.179V144.315C111.486 144.215 111.532 144.119 111.613 144.049C111.694 143.978 111.804 143.938 111.918 143.938ZM126.308 147.447H127.296C127.535 147.447 127.727 147.617 127.727 147.824V148.689C127.727 148.898 127.533 149.066 127.296 149.066H126.308C126.193 149.065 126.084 149.025 126.003 148.955C125.923 148.884 125.877 148.788 125.876 148.689V147.824C125.876 147.775 125.887 147.726 125.909 147.68C125.931 147.634 125.962 147.593 126.002 147.557C126.043 147.522 126.09 147.495 126.143 147.476C126.195 147.457 126.251 147.447 126.308 147.447ZM129.734 147.447H130.723C130.837 147.448 130.946 147.488 131.027 147.558C131.108 147.629 131.154 147.724 131.154 147.824V148.689C131.154 148.898 130.96 149.066 130.723 149.066H129.734C129.62 149.065 129.511 149.025 129.43 148.955C129.349 148.884 129.303 148.788 129.303 148.689V147.824C129.303 147.724 129.349 147.629 129.43 147.558C129.511 147.488 129.62 147.448 129.734 147.447ZM133.163 147.447H134.152C134.266 147.448 134.375 147.488 134.456 147.558C134.537 147.629 134.583 147.724 134.583 147.824V148.689C134.583 148.898 134.389 149.066 134.152 149.066H133.163C133.049 149.065 132.94 149.025 132.859 148.955C132.778 148.884 132.732 148.788 132.732 148.689V147.824C132.732 147.775 132.743 147.726 132.765 147.68C132.786 147.634 132.818 147.593 132.858 147.557C132.898 147.522 132.946 147.495 132.998 147.476C133.051 147.457 133.107 147.447 133.163 147.447ZM136.59 147.447H137.578C137.692 147.448 137.802 147.488 137.883 147.558C137.963 147.629 138.009 147.725 138.009 147.824V148.689C138.009 148.898 137.815 149.066 137.578 149.066H136.59C136.475 149.066 136.365 149.026 136.284 148.955C136.203 148.885 136.157 148.789 136.156 148.689V147.824C136.158 147.724 136.204 147.629 136.285 147.558C136.366 147.488 136.475 147.448 136.59 147.447ZM140.017 147.447H141.005C141.12 147.447 141.23 147.487 141.311 147.558C141.392 147.628 141.438 147.724 141.439 147.824V148.689C141.439 148.898 141.244 149.066 141.005 149.066H140.017C139.903 149.065 139.793 149.025 139.712 148.955C139.631 148.884 139.586 148.788 139.585 148.689V147.824C139.586 147.724 139.631 147.629 139.712 147.558C139.793 147.488 139.903 147.448 140.017 147.447ZM129.86 150.714H130.848C130.962 150.715 131.072 150.754 131.153 150.825C131.234 150.896 131.279 150.991 131.28 151.091V151.957C131.279 152.057 131.234 152.153 131.153 152.224C131.072 152.294 130.963 152.334 130.848 152.335H129.86C129.746 152.335 129.636 152.295 129.555 152.224C129.474 152.153 129.429 152.057 129.429 151.957V151.093C129.428 151.044 129.439 150.994 129.461 150.948C129.482 150.902 129.514 150.86 129.554 150.825C129.594 150.79 129.642 150.762 129.694 150.743C129.747 150.724 129.803 150.714 129.86 150.714ZM133.287 150.714H134.275C134.389 150.715 134.499 150.754 134.579 150.825C134.66 150.896 134.706 150.991 134.706 151.091V151.957C134.706 152.057 134.66 152.153 134.58 152.224C134.499 152.294 134.389 152.334 134.275 152.335H133.287C133.172 152.334 133.063 152.294 132.982 152.224C132.901 152.153 132.856 152.057 132.855 151.957V151.093C132.855 151.044 132.866 150.994 132.887 150.948C132.909 150.902 132.941 150.86 132.981 150.825C133.021 150.79 133.069 150.762 133.121 150.743C133.174 150.724 133.23 150.714 133.287 150.714ZM136.713 150.714H137.702C137.941 150.714 138.135 150.884 138.135 151.091V151.957C138.135 152.057 138.089 152.153 138.008 152.224C137.926 152.295 137.817 152.335 137.702 152.335H136.713C136.599 152.334 136.49 152.294 136.409 152.224C136.328 152.153 136.283 152.057 136.282 151.957V151.093C136.282 150.993 136.327 150.897 136.408 150.826C136.489 150.755 136.599 150.715 136.713 150.714ZM133.163 143.938H134.152C134.266 143.938 134.375 143.978 134.456 144.048C134.537 144.119 134.583 144.215 134.583 144.315V145.179C134.583 145.388 134.389 145.556 134.152 145.556H133.163C133.049 145.556 132.94 145.516 132.859 145.445C132.778 145.374 132.732 145.279 132.732 145.179V144.315C132.732 144.265 132.743 144.216 132.764 144.17C132.786 144.124 132.818 144.083 132.858 144.048C132.898 144.013 132.946 143.985 132.998 143.966C133.051 143.947 133.107 143.937 133.163 143.938ZM129.738 143.938H130.726C130.84 143.938 130.95 143.978 131.031 144.049C131.111 144.119 131.157 144.215 131.157 144.315V145.179C131.157 145.388 130.963 145.556 130.726 145.556H129.738C129.623 145.556 129.514 145.516 129.433 145.445C129.352 145.374 129.307 145.279 129.306 145.179V144.315C129.306 144.265 129.317 144.216 129.339 144.17C129.36 144.124 129.392 144.083 129.432 144.048C129.472 144.013 129.52 143.985 129.572 143.966C129.625 143.947 129.681 143.937 129.738 143.938ZM136.59 143.938H137.578C137.693 143.938 137.802 143.978 137.883 144.049C137.963 144.119 138.009 144.215 138.009 144.315V145.179C138.009 145.388 137.815 145.556 137.578 145.556H136.59C136.475 145.556 136.365 145.516 136.284 145.446C136.203 145.375 136.157 145.279 136.156 145.179V144.315C136.157 144.215 136.204 144.119 136.285 144.049C136.366 143.978 136.475 143.938 136.59 143.938Z" fill="#5BB9F4"/>
<path d="M62.5653 64.291H7.61398C3.96118 64.291 1 66.88 1 70.0737V131.034C1 134.228 3.96118 136.817 7.61398 136.817H62.5653C66.2181 136.817 69.1793 134.228 69.1793 131.034V70.0737C69.1793 66.88 66.2181 64.291 62.5653 64.291Z" fill="#F1F6FF" stroke="#DDDBFA" stroke-width="0.5" stroke-linecap="round" stroke-linejoin="round"/>
<mask id="mask0_603_9250" style="mask-type:alpha" maskUnits="userSpaceOnUse" x="0" y="63" width="70" height="75">
<path d="M1 64.291H69.1793V136.817H1V64.291Z" fill="#0D0D0D" stroke="#DDDBFA" stroke-linecap="round" stroke-linejoin="round"/>
</mask>
<g mask="url(#mask0_603_9250)">
<path d="M49.6299 117.059H10.5346C9.17215 117.059 8.06763 118.024 8.06763 119.216V119.216C8.06763 120.407 9.17215 121.373 10.5346 121.373H49.6299C50.9924 121.373 52.0969 120.407 52.0969 119.216V119.216C52.0969 118.024 50.9924 117.059 49.6299 117.059Z" fill="#C8D7F5"/>
<path d="M49.2503 108.098H10.9143C9.34212 108.098 8.06763 109.212 8.06763 110.587C8.06763 111.961 9.34212 113.075 10.9143 113.075H49.2503C50.8224 113.075 52.0969 111.961 52.0969 110.587C52.0969 109.212 50.8224 108.098 49.2503 108.098Z" fill="#C8D7F5"/>
<path d="M49.2503 125.355H10.9143C9.34212 125.355 8.06763 126.47 8.06763 127.844C8.06763 129.219 9.34212 130.333 10.9143 130.333H49.2503C50.8224 130.333 52.0969 129.219 52.0969 127.844C52.0969 126.47 50.8224 125.355 49.2503 125.355Z" fill="#C8D7F5"/>
<path d="M21.307 69.2715H9.54071C8.3877 69.2715 7.453 70.0886 7.453 71.0967C7.453 72.1047 8.3877 72.9218 9.54071 72.9218H21.307C22.46 72.9218 23.3947 72.1047 23.3947 71.0967C23.3947 70.0886 22.46 69.2715 21.307 69.2715Z" fill="#C8D7F5"/>
<path d="M32.0669 90.7949C32.0669 84.1669 26.6949 78.7949 20.0669 78.7949C13.4389 78.7949 8.06689 84.1669 8.06689 90.7949C8.06689 97.4229 13.4389 102.795 20.0669 102.795C26.6949 102.795 32.0669 97.4229 32.0669 90.7949Z" fill="url(#paint0_linear_603_9250)"/>
<path fill-rule="evenodd" clip-rule="evenodd" d="M20.2006 93.0788C20.6985 92.4502 21.2685 91.8755 21.9001 91.3652L21.9106 91.3566C21.9386 91.334 21.9611 91.306 21.9766 91.2744C21.992 91.2428 22 91.2084 22 91.1736C22 91.1388 21.992 91.1045 21.9766 91.0729C21.9611 91.0413 21.9386 91.0132 21.9106 90.9906L21.9001 90.9822C21.2685 90.4718 20.6986 89.8972 20.2006 89.2686C20.1772 89.2392 20.147 89.2153 20.1121 89.1988C20.0773 89.1824 20.0389 89.1738 20 89.1738C19.9611 89.1738 19.9227 89.1824 19.8879 89.1988C19.853 89.2153 19.8228 89.2392 19.7994 89.2686C19.3014 89.8972 18.7315 90.4718 18.0999 90.9822L18.0894 90.9908C18.0614 91.0133 18.0389 91.0414 18.0234 91.073C18.008 91.1046 18 91.139 18 91.1738C18 91.2086 18.008 91.2429 18.0234 91.2745C18.0389 91.3061 18.0614 91.3342 18.0894 91.3568L18.0999 91.3652C18.7315 91.8755 19.3014 92.4502 19.7994 93.0788C19.8227 93.1083 19.853 93.1323 19.8878 93.1487C19.9226 93.1652 19.961 93.1738 20 93.1738C20.039 93.1738 20.0774 93.1652 20.1122 93.1487C20.147 93.1323 20.1773 93.1083 20.2006 93.0788Z" fill="white"/>
</g>
<path d="M138.528 120.511C138.528 116.035 134.894 112.405 130.41 112.405C125.926 112.405 122.292 116.035 122.292 120.511C122.292 124.988 125.926 128.617 130.41 128.617C134.894 128.617 138.528 124.988 138.528 120.511Z" stroke="#DDDBFA" stroke-width="0.5"/>
<path d="M118.792 120.511C118.792 116.035 115.157 112.405 110.673 112.405C106.189 112.405 102.555 116.035 102.555 120.511C102.555 124.988 106.189 128.617 110.673 128.617C115.157 128.617 118.792 124.988 118.792 120.511Z" stroke="#DDDBFA" stroke-width="0.5"/>
<path d="M99.0549 120.511C99.0549 116.035 95.4206 112.405 90.9366 112.405C86.4526 112.405 82.8182 116.035 82.8182 120.511C82.8182 124.988 86.4526 128.617 90.9366 128.617C95.4206 128.617 99.0549 124.988 99.0549 120.511Z" stroke="#DDDBFA" stroke-width="0.5"/>
<path d="M167.857 136.209C156.6 132.267 150.809 120.3 154.899 109.487C158.991 98.6698 171.432 93.0806 182.693 97.0243C193.951 100.966 199.742 112.933 195.652 123.746C191.56 134.564 179.119 140.153 167.857 136.209Z" fill="#B0AACD" stroke="#C8D7F5" stroke-width="0.5"/>
<path d="M169.512 131.599C161.062 128.613 156.715 119.55 159.785 111.36C162.857 103.167 172.195 98.9336 180.647 101.921L180.731 101.685L180.647 101.921C189.097 104.906 193.444 113.97 190.374 122.16C187.302 130.353 177.964 134.586 169.512 131.599Z" fill="#D9D3F7" stroke="#C8D7F5" stroke-width="0.5"/>
<path d="M178.49 136.434L178.49 136.434C177.955 134.856 178.852 133.149 180.517 132.63C182.186 132.11 183.967 132.99 184.503 134.572C184.503 134.572 184.503 134.572 184.503 134.572L187.083 142.19L181.073 144.063L178.49 136.434Z" fill="#B0AACD" stroke="#C8D7F5" stroke-width="0.5"/>
<path d="M186.874 140.322L179.924 142.495C179.107 142.75 178.661 143.594 178.926 144.379L189.005 174.225C189.271 175.01 190.148 175.44 190.964 175.185L197.914 173.012C198.731 172.757 199.178 171.913 198.912 171.128L188.833 141.283C188.568 140.497 187.691 140.067 186.874 140.322Z" fill="#B0AACD"/>
<path fill-rule="evenodd" clip-rule="evenodd" d="M222.263 165.154L219.837 161.521C216.858 157.063 212.637 153.485 207.648 151.19L197.697 146.612C196.092 145.875 194.335 145.491 192.554 145.491H190.442L191.245 148.035L179.937 145.397C178.621 145.091 177.326 145.968 177.194 147.255C177.156 147.628 177.222 148.005 177.385 148.346C177.549 148.688 177.805 148.982 178.126 149.198L181.252 151.303C179.294 152.204 179.022 154.762 180.751 156.021L182.34 157.176C180.832 158.066 180.744 160.13 182.172 161.133L184.477 162.753C184.334 163.441 184.436 164.154 184.765 164.781C185.094 165.408 185.632 165.912 186.295 166.215L188.759 167.34C189.124 167.506 189.503 167.642 189.893 167.744L201.288 170.735L214.004 178.876L222.263 165.154Z" fill="#D4D8E0"/>
<path fill-rule="evenodd" clip-rule="evenodd" d="M243.282 181.329L215.871 156.174L197 174.408L204.572 181.329H243.282Z" fill="#666682"/>
<path d="M258.771 104.521C260.279 103.76 261.99 103.359 263.732 103.359C265.473 103.359 267.184 103.76 268.692 104.521L274.379 107.393C275.888 108.154 277.14 109.249 278.011 110.568C278.882 111.886 279.34 113.382 279.34 114.905V120.646C279.34 122.169 278.882 123.665 278.011 124.983C277.14 126.302 275.888 127.397 274.379 128.158L268.692 131.029C267.184 131.791 265.473 132.192 263.732 132.192C261.99 132.192 260.279 131.791 258.771 131.029L253.084 128.158C251.576 127.397 250.323 126.302 249.452 124.983C248.582 123.665 248.123 122.169 248.123 120.646V114.905C248.123 113.382 248.582 111.886 249.452 110.568C250.323 109.249 251.576 108.154 253.084 107.393L258.771 104.521Z" fill="#F1F6FF"/>
<path d="M269.306 114.832L262.727 120.538L258.78 117.114" fill="#F1F6FF"/>
<path d="M269.306 114.832L262.727 120.538L258.78 117.114" stroke="#704991" stroke-linecap="round" stroke-linejoin="round"/>
<path d="M297.355 0.671875H167.537C163.867 0.671875 160.892 2.9745 160.892 5.81494V65.1438C160.892 67.9843 163.867 70.2869 167.537 70.2869H297.355C301.025 70.2869 304 67.9843 304 65.1438V5.81494C304 2.9745 301.025 0.671875 297.355 0.671875Z" fill="#F1F6FF" stroke="#DDDBFA" stroke-width="0.5"/>
<path d="M204.852 22.7129H191.148C189.962 22.7129 189 23.1382 189 23.6628V60.2785C189 60.8031 189.962 61.2284 191.148 61.2284H204.852C206.038 61.2284 207 60.8031 207 60.2785V23.6628C207 23.1382 206.038 22.7129 204.852 22.7129Z" fill="#C8D7F5"/>
<path d="M227.923 10.1738H214.077C212.93 10.1738 212 10.5991 212 11.1237V60.2794C212 60.804 212.93 61.2292 214.077 61.2292H227.923C229.07 61.2292 230 60.804 230 60.2794V11.1237C230 10.5991 229.07 10.1738 227.923 10.1738Z" fill="#C8D7F5"/>
<path d="M250.923 10.1738H237.077C235.93 10.1738 235 10.5991 235 11.1237V60.2794C235 60.804 235.93 61.2292 237.077 61.2292H250.923C252.07 61.2292 253 60.804 253 60.2794V11.1237C253 10.5991 252.07 10.1738 250.923 10.1738Z" fill="url(#paint1_linear_603_9250)"/>
<path d="M273.852 22.7129H260.148C258.962 22.7129 258 23.1382 258 23.6628V60.2785C258 60.8031 258.962 61.2284 260.148 61.2284H273.852C275.038 61.2284 276 60.8031 276 60.2785V23.6628C276 23.1382 275.038 22.7129 273.852 22.7129Z" fill="#C8D7F5"/>
<path d="M168.853 96.8228C168.823 96.8228 168.74 96.7812 168.81 96.7812C168.844 96.7812 168.922 96.8228 168.853 96.8228Z" fill="#CC6144"/>
<path d="M54.7596 102.035C56.9686 102.035 58.7594 100.244 58.7594 98.035C58.7594 95.8259 56.9686 94.0352 54.7596 94.0352C52.5502 94.0352 50.7594 95.8259 50.7594 98.035C50.7594 100.244 52.5502 102.035 54.7596 102.035Z" fill="url(#paint2_linear_603_9250)"/>
<rect x="1" y="2.21875" width="131.624" height="38.2932" rx="9" fill="#F1F6FF"/>
<rect x="1" y="2.21875" width="131.624" height="38.2932" rx="9" stroke="#DDDBFA" stroke-width="0.5"/>
<path d="M44.4607 10.2188H10.3598C9.60878 10.2188 9 11.3731 9 12.797V12.7974C9 14.2213 9.60878 15.3756 10.3598 15.3756H44.4607C45.2117 15.3756 45.8204 14.2213 45.8204 12.7974V12.797C45.8204 11.3731 45.2117 10.2188 44.4607 10.2188Z" fill="#C8D7F5"/>
<path d="M43.7212 21.375H11.0993C9.93987 21.375 9 22.5293 9 23.9532V23.9536C9 25.3775 9.93987 26.5318 11.0993 26.5318H43.7212C44.8806 26.5318 45.8204 25.3775 45.8204 23.9536V23.9532C45.8204 22.5293 44.8806 21.375 43.7212 21.375Z" fill="#C8D7F5"/>
<rect x="55.8204" y="10.2188" width="21.9831" height="22.2932" rx="10.9915" fill="url(#paint3_linear_603_9250)"/>
<path fill-rule="evenodd" clip-rule="evenodd" d="M67.0126 23.2702C67.5105 22.6416 68.0805 22.0669 68.7121 21.5566L68.7226 21.548C68.7506 21.5255 68.7732 21.4974 68.7886 21.4658C68.804 21.4342 68.812 21.3998 68.812 21.365C68.812 21.3302 68.804 21.2959 68.7886 21.2643C68.7732 21.2327 68.7506 21.2046 68.7226 21.182L68.7121 21.1736C68.0805 20.6633 67.5106 20.0886 67.0126 19.46C66.9892 19.4306 66.959 19.4067 66.9241 19.3902C66.8893 19.3738 66.8509 19.3652 66.812 19.3652C66.7731 19.3652 66.7347 19.3738 66.6999 19.3902C66.6651 19.4067 66.6348 19.4306 66.6114 19.46C66.1135 20.0886 65.5435 20.6633 64.9119 21.1736L64.9014 21.1822C64.8734 21.2048 64.8509 21.2328 64.8354 21.2644C64.82 21.296 64.812 21.3304 64.812 21.3652C64.812 21.4 64.82 21.4343 64.8354 21.4659C64.8509 21.4975 64.8734 21.5256 64.9014 21.5482L64.9119 21.5566C65.5435 22.067 66.1135 22.6416 66.6114 23.2702C66.6347 23.2997 66.665 23.3237 66.6998 23.3402C66.7346 23.3566 66.7731 23.3652 66.812 23.3652C66.851 23.3652 66.8894 23.3566 66.9242 23.3402C66.959 23.3237 66.9893 23.2997 67.0126 23.2702Z" fill="white"/>
<path d="M123.264 10.2188H89.1632C88.4122 10.2188 87.8035 11.3731 87.8035 12.797V12.7974C87.8035 14.2213 88.4122 15.3756 89.1632 15.3756H123.264C124.015 15.3756 124.624 14.2213 124.624 12.7974V12.797C124.624 11.3731 124.015 10.2188 123.264 10.2188Z" fill="#C8D7F5"/>
<path d="M122.525 21.375H89.9027C88.7433 21.375 87.8035 22.5293 87.8035 23.9532V23.9536C87.8035 25.3775 88.7433 26.5318 89.9027 26.5318H122.525C123.684 26.5318 124.624 25.3775 124.624 23.9536V23.9532C124.624 22.5293 123.684 21.375 122.525 21.375Z" fill="#C8D7F5"/>
<path d="M251.347 95.2363C253.004 95.2363 254.347 93.8932 254.347 92.2365C254.347 90.5795 253.004 89.2363 251.347 89.2363C249.69 89.2363 248.347 90.5795 248.347 92.2365C248.347 93.8932 249.69 95.2363 251.347 95.2363Z" stroke="#5C6678" stroke-width="0.5" stroke-linecap="round" stroke-linejoin="round"/>
<path d="M253.858 140.739L250.589 144.009L249 142.423M260.943 139.174H270.607M261.019 143.974H277M277 155.174H260.943M277 150.374H261.019" stroke="#5C6678" stroke-width="0.5" stroke-linecap="round" stroke-linejoin="round"/>
<path d="M251.5 156.174C253.433 156.174 255 154.607 255 152.674C255 150.741 253.433 149.174 251.5 149.174C249.567 149.174 248 150.741 248 152.674C248 154.607 249.567 156.174 251.5 156.174Z" stroke="#5C6678" stroke-width="0.5" stroke-linecap="round" stroke-linejoin="round"/>
<defs>
<filter id="filter0_f_603_9250" x="69" y="8.17383" width="233" height="226" filterUnits="userSpaceOnUse" color-interpolation-filters="sRGB">
<feFlood flood-opacity="0" result="BackgroundImageFix"/>
<feBlend mode="normal" in="SourceGraphic" in2="BackgroundImageFix" result="shape"/>
<feGaussianBlur stdDeviation="45" result="effect1_foregroundBlur_603_9250"/>
</filter>
<linearGradient id="paint0_linear_603_9250" x1="12.0841" y1="102.844" x2="41.4574" y2="86.3518" gradientUnits="userSpaceOnUse">
<stop stop-color="#6CDFC0"/>
<stop offset="1" stop-color="#8BFFE8"/>
</linearGradient>
<linearGradient id="paint1_linear_603_9250" x1="244" y1="10.1738" x2="244" y2="61.2292" gradientUnits="userSpaceOnUse">
<stop stop-color="#D9D3F7"/>
<stop offset="1" stop-color="#C1B5FF"/>
</linearGradient>
<linearGradient id="paint2_linear_603_9250" x1="51" y1="92.6733" x2="62" y2="104.173" gradientUnits="userSpaceOnUse">
<stop stop-color="#FF92AE"/>
<stop offset="1" stop-color="#D2738B"/>
</linearGradient>
<linearGradient id="paint3_linear_603_9250" x1="59.5" y1="10.1733" x2="86.5842" y2="25.1685" gradientUnits="userSpaceOnUse">
<stop stop-color="#6CDFC0"/>
<stop offset="1" stop-color="#8BFFE8"/>
</linearGradient>
</defs>
</svg>
