<svg width="305" height="234" viewBox="0 0 305 234" fill="none" xmlns="http://www.w3.org/2000/svg">
<g style="mix-blend-mode:difference" filter="url(#filter0_f_603_9606)">
<path d="M185.5 144C200.136 144 212 133.703 212 121C212 108.297 200.136 98 185.5 98C170.864 98 159 108.297 159 121C159 133.703 170.864 144 185.5 144Z" fill="#F67CFF"/>
</g>
<path fill-rule="evenodd" clip-rule="evenodd" d="M7.6355 159.693C3.974 159.693 1.00929 157.092 1.02152 153.891L1.10155 132.447C1.10486 131.493 1.37834 130.555 1.89721 129.715L37.5449 72.0577C39.5718 68.7798 44.563 68.0087 47.7516 70.4811L82.8041 97.659C83.7199 98.3691 84.8433 98.8431 86.049 99.0282C87.2548 99.2132 88.4956 99.1021 89.6333 98.7071L123.008 87.1211C124.46 86.6172 126.068 86.5786 127.549 87.0121L151.779 94.1072C152.859 94.4236 154.015 94.4905 155.134 94.3015L175.942 90.7871C177.255 90.5652 178.46 90.0005 179.399 89.1675C180.337 88.3345 180.965 87.2723 181.199 86.121L184.575 69.5151C184.807 68.373 185.427 67.3184 186.353 66.4882C187.28 65.658 188.47 65.0906 189.771 64.8597L219.669 59.5517C223.767 58.8243 227.599 61.5627 227.599 65.2188V153.91C227.599 157.104 224.638 159.693 220.985 159.693H7.6355Z" fill="#0D0D0D" stroke="#5C6678" stroke-width="0.5" stroke-linecap="round" stroke-linejoin="round"/>
<path fill-rule="evenodd" clip-rule="evenodd" d="M27.6211 147.274H28.6096C28.8484 147.274 29.0408 147.444 29.0408 147.651V148.515C29.0408 148.724 28.8464 148.892 28.6096 148.892H27.6211C27.5069 148.892 27.3974 148.852 27.3166 148.781C27.2357 148.711 27.1901 148.615 27.1896 148.515V147.651C27.1895 147.601 27.2006 147.552 27.2223 147.507C27.2439 147.461 27.2757 147.419 27.3158 147.384C27.3559 147.349 27.4035 147.321 27.4559 147.302C27.5083 147.284 27.5645 147.274 27.6211 147.274ZM31.0475 147.274H32.036C32.1502 147.274 32.2597 147.314 32.3405 147.385C32.4214 147.455 32.467 147.551 32.4675 147.651V148.515C32.4675 148.724 32.2731 148.892 32.036 148.892H31.0475C30.9333 148.892 30.8239 148.852 30.7432 148.781C30.6624 148.711 30.6168 148.615 30.6163 148.515V147.651C30.6168 147.551 30.6624 147.456 30.7432 147.385C30.8239 147.314 30.9333 147.274 31.0475 147.274ZM34.4765 147.274H35.465C35.7021 147.274 35.8962 147.444 35.8962 147.651V148.515C35.8962 148.724 35.7021 148.892 35.465 148.892H34.4765C34.3623 148.892 34.2529 148.852 34.1722 148.781C34.0914 148.711 34.0458 148.615 34.0453 148.515V147.651C34.0452 147.601 34.0563 147.552 34.0779 147.507C34.0996 147.461 34.1313 147.419 34.1714 147.384C34.2115 147.349 34.259 147.321 34.3114 147.303C34.3638 147.284 34.4199 147.274 34.4765 147.274ZM37.9032 147.274H38.8914C39.0056 147.274 39.1151 147.314 39.1959 147.385C39.2768 147.455 39.3224 147.551 39.3229 147.651V148.515C39.3229 148.724 39.1285 148.892 38.8914 148.892H37.9032C37.7886 148.892 37.6786 148.853 37.5974 148.782C37.5161 148.711 37.4702 148.615 37.4697 148.515V147.651C37.471 147.551 37.5172 147.455 37.5982 147.385C37.6793 147.314 37.7889 147.275 37.9032 147.274ZM41.3299 147.274H42.3184C42.433 147.274 42.543 147.314 42.6242 147.384C42.7055 147.455 42.7514 147.551 42.7519 147.651V148.515C42.7519 148.724 42.5575 148.892 42.3184 148.892H41.3299C41.2157 148.892 41.1063 148.852 41.0256 148.781C40.9448 148.711 40.8992 148.615 40.8987 148.515V147.651C40.8992 147.551 40.9448 147.456 41.0256 147.385C41.1063 147.314 41.2157 147.274 41.3299 147.274ZM31.1735 150.541H32.1616C32.2759 150.541 32.3854 150.581 32.4662 150.652C32.547 150.722 32.5927 150.818 32.5932 150.918V151.784C32.5928 151.884 32.5472 151.98 32.4663 152.05C32.3855 152.121 32.276 152.161 32.1616 152.161H31.1735C31.0591 152.161 30.9494 152.121 30.8684 152.051C30.7875 151.98 30.742 151.884 30.7419 151.784V150.92C30.7416 150.87 30.7525 150.821 30.774 150.775C30.7956 150.729 30.8273 150.687 30.8674 150.652C30.9076 150.617 30.9553 150.589 31.0078 150.57C31.0603 150.551 31.1166 150.541 31.1735 150.541ZM34.5999 150.541H35.5883C35.8254 150.541 36.0196 150.711 36.0196 150.918V151.784C36.0196 151.991 35.8254 152.161 35.5883 152.161H34.5999C34.4856 152.161 34.3762 152.121 34.2954 152.05C34.2146 151.98 34.1691 151.884 34.1686 151.784V150.92C34.1683 150.87 34.1792 150.821 34.2007 150.775C34.2222 150.729 34.2539 150.687 34.294 150.652C34.3341 150.617 34.3818 150.589 34.4343 150.57C34.4868 150.551 34.543 150.541 34.5999 150.541ZM38.0269 150.541H39.0154C39.2541 150.541 39.4486 150.711 39.4486 150.918V151.784C39.4482 151.884 39.4023 151.98 39.3211 152.051C39.2399 152.122 39.13 152.161 39.0154 152.161H38.0269C37.9126 152.161 37.8031 152.121 37.7222 152.05C37.6414 151.98 37.5958 151.884 37.5954 151.784V150.92C37.5954 150.711 37.7898 150.541 38.0269 150.541ZM34.4765 143.764H35.465C35.7021 143.764 35.8962 143.934 35.8962 144.141V145.005C35.8962 145.214 35.7021 145.383 35.465 145.383H34.4765C34.3623 145.382 34.2528 145.342 34.1721 145.272C34.0913 145.201 34.0457 145.105 34.0453 145.005V144.141C34.0452 144.092 34.0562 144.043 34.0778 143.997C34.0995 143.951 34.1312 143.91 34.1713 143.875C34.2114 143.839 34.2589 143.812 34.3113 143.793C34.3637 143.774 34.4198 143.764 34.4765 143.764ZM31.0511 143.764H32.0393C32.1536 143.765 32.2631 143.804 32.344 143.875C32.4248 143.946 32.4704 144.042 32.4708 144.141V145.005C32.4708 145.214 32.2764 145.383 32.0393 145.383H31.0511C30.9368 145.382 30.8273 145.342 30.7465 145.272C30.6656 145.201 30.62 145.105 30.6196 145.005V144.141C30.6195 144.092 30.6305 144.043 30.6522 143.997C30.6738 143.951 30.7056 143.909 30.7457 143.874C30.7858 143.839 30.8334 143.812 30.8858 143.793C30.9383 143.774 30.9944 143.764 31.0511 143.764ZM37.9032 143.764H38.8914C39.0057 143.765 39.1152 143.804 39.196 143.875C39.2769 143.946 39.3225 144.042 39.3229 144.141V145.005C39.3229 145.214 39.1285 145.383 38.8914 145.383H37.9032C37.7886 145.383 37.6786 145.343 37.5974 145.272C37.5161 145.202 37.4702 145.106 37.4697 145.005V144.141C37.4709 144.041 37.517 143.946 37.5981 143.875C37.6792 143.805 37.7888 143.765 37.9032 143.764ZM52.2929 147.274H53.2811C53.5202 147.274 53.7126 147.444 53.7126 147.651V148.515C53.7126 148.724 53.5182 148.892 53.2811 148.892H52.2929C52.1787 148.892 52.0692 148.852 51.9884 148.781C51.9076 148.711 51.8619 148.615 51.8614 148.515V147.651C51.8613 147.601 51.8724 147.552 51.8941 147.507C51.9157 147.461 51.9475 147.419 51.9876 147.384C52.0277 147.349 52.0753 147.321 52.1277 147.302C52.1801 147.284 52.2363 147.274 52.2929 147.274ZM55.7193 147.274H56.7078C56.822 147.274 56.9314 147.314 57.0121 147.385C57.0929 147.456 57.1385 147.551 57.139 147.651V148.515C57.139 148.724 56.9446 148.892 56.7078 148.892H55.7193C55.6051 148.892 55.4957 148.852 55.415 148.781C55.3342 148.711 55.2886 148.615 55.2881 148.515V147.651C55.2886 147.551 55.3342 147.456 55.415 147.385C55.4957 147.314 55.6051 147.274 55.7193 147.274ZM59.1483 147.274H60.1368C60.251 147.274 60.3604 147.314 60.4411 147.385C60.5219 147.456 60.5675 147.551 60.568 147.651V148.515C60.568 148.724 60.3736 148.892 60.1368 148.892H59.1483C59.0341 148.892 58.9247 148.852 58.844 148.781C58.7632 148.711 58.7176 148.615 58.7171 148.515V147.651C58.717 147.601 58.728 147.552 58.7497 147.507C58.7713 147.461 58.803 147.419 58.8431 147.384C58.8832 147.349 58.9308 147.321 58.9832 147.302C59.0355 147.284 59.0917 147.274 59.1483 147.274ZM62.5747 147.274H63.5632C63.6774 147.274 63.7869 147.314 63.8677 147.385C63.9486 147.455 63.9942 147.551 63.9947 147.651V148.515C63.9947 148.724 63.8003 148.892 63.5632 148.892H62.5747C62.4602 148.892 62.3503 148.853 62.2691 148.782C62.1879 148.711 62.142 148.615 62.1415 148.515V147.651C62.1427 147.551 62.1888 147.456 62.2698 147.385C62.3509 147.314 62.4604 147.275 62.5747 147.274ZM66.0017 147.274H66.9902C67.229 147.274 67.4234 147.444 67.4234 147.651V148.515C67.4234 148.724 67.229 148.892 66.9902 148.892H66.0017C65.8875 148.892 65.7782 148.852 65.6974 148.781C65.6166 148.711 65.571 148.615 65.5705 148.515V147.651C65.571 147.551 65.6166 147.456 65.6974 147.385C65.7782 147.314 65.8875 147.274 66.0017 147.274ZM55.845 150.541H56.8334C56.9477 150.541 57.057 150.581 57.1378 150.652C57.2186 150.722 57.2642 150.818 57.2647 150.918V151.784C57.2642 151.884 57.2187 151.98 57.1379 152.05C57.0571 152.121 56.9477 152.161 56.8334 152.161H55.845C55.7306 152.161 55.621 152.121 55.5401 152.051C55.4593 151.98 55.4138 151.884 55.4138 151.784V150.92C55.4134 150.87 55.4243 150.821 55.4458 150.775C55.4673 150.729 55.4991 150.687 55.5391 150.652C55.5792 150.617 55.6269 150.589 55.6794 150.57C55.7319 150.551 55.7881 150.541 55.845 150.541ZM59.2717 150.541H60.2601C60.3744 150.541 60.4837 150.581 60.5645 150.652C60.6453 150.722 60.6909 150.818 60.6914 150.918V151.784C60.6909 151.884 60.6454 151.98 60.5646 152.05C60.4838 152.121 60.3744 152.161 60.2601 152.161H59.2717C59.1574 152.161 59.048 152.121 58.9672 152.05C58.8865 151.98 58.8409 151.884 58.8405 151.784V150.92C58.8401 150.87 58.851 150.821 58.8725 150.775C58.894 150.729 58.9258 150.687 58.9658 150.652C59.0059 150.617 59.0536 150.589 59.1061 150.57C59.1586 150.551 59.2148 150.541 59.2717 150.541ZM62.6987 150.541H63.6868C63.8015 150.541 63.9114 150.58 63.9927 150.651C64.0739 150.722 64.1199 150.818 64.1204 150.918V151.784C64.1204 151.991 63.9259 152.161 63.6868 152.161H62.6987C62.5844 152.161 62.4749 152.121 62.394 152.05C62.3132 151.98 62.2676 151.884 62.2672 151.784V150.92C62.2672 150.711 62.4616 150.541 62.6987 150.541ZM59.1483 143.764H60.1368C60.2511 143.765 60.3605 143.805 60.4413 143.875C60.522 143.946 60.5676 144.042 60.568 144.141V145.005C60.568 145.214 60.3736 145.383 60.1368 145.383H59.1483C59.0341 145.382 58.9246 145.342 58.8439 145.272C58.7631 145.201 58.7175 145.105 58.7171 145.005V144.141C58.7169 144.092 58.728 144.043 58.7496 143.997C58.7712 143.951 58.8029 143.91 58.843 143.874C58.8831 143.839 58.9307 143.812 58.9831 143.793C59.0355 143.774 59.0916 143.764 59.1483 143.764ZM55.7226 143.764H56.7111C56.8254 143.765 56.9349 143.804 57.0158 143.875C57.0966 143.946 57.1422 144.042 57.1426 144.141V145.005C57.1426 145.214 56.9482 145.383 56.7111 145.383H55.7226C55.6084 145.382 55.4989 145.342 55.4182 145.272C55.3374 145.201 55.2918 145.105 55.2914 145.005V144.141C55.2913 144.092 55.3023 144.043 55.3239 143.997C55.3456 143.951 55.3773 143.91 55.4174 143.875C55.4575 143.839 55.505 143.812 55.5574 143.793C55.6098 143.774 55.6659 143.764 55.7226 143.764ZM62.5747 143.764H63.5632C63.6775 143.765 63.787 143.804 63.8678 143.875C63.9487 143.946 63.9943 144.042 63.9947 144.141V145.005C63.9947 145.214 63.8003 145.383 63.5632 145.383H62.5747C62.4601 145.383 62.3502 145.343 62.269 145.272C62.1878 145.202 62.1419 145.106 62.1415 145.005V144.141C62.1427 144.041 62.1888 143.946 62.2698 143.875C62.3508 143.805 62.4603 143.765 62.5747 143.764ZM76.9644 147.274H77.9529C78.1916 147.274 78.3841 147.444 78.3841 147.651V148.515C78.3841 148.724 78.1897 148.892 77.9529 148.892H76.9644C76.8502 148.892 76.7408 148.852 76.6601 148.781C76.5793 148.711 76.5337 148.615 76.5332 148.515V147.651C76.5331 147.601 76.5441 147.552 76.5657 147.507C76.5874 147.461 76.6191 147.419 76.6592 147.384C76.6993 147.349 76.7469 147.321 76.7992 147.302C76.8516 147.284 76.9078 147.274 76.9644 147.274ZM80.3911 147.274H81.3792C81.4935 147.274 81.603 147.314 81.6838 147.385C81.7646 147.455 81.8103 147.551 81.8108 147.651V148.515C81.8108 148.724 81.6164 148.892 81.3792 148.892H80.3911C80.2769 148.892 80.1674 148.852 80.0866 148.781C80.0057 148.711 79.9601 148.615 79.9596 148.515V147.651C79.9601 147.551 80.0057 147.455 80.0866 147.385C80.1674 147.314 80.2769 147.274 80.3911 147.274ZM83.8201 147.274H84.8083C84.9225 147.274 85.032 147.314 85.1128 147.385C85.1937 147.455 85.2393 147.551 85.2398 147.651V148.515C85.2398 148.724 85.0454 148.892 84.8083 148.892H83.8201C83.7059 148.892 83.5964 148.852 83.5156 148.781C83.4348 148.711 83.3891 148.615 83.3886 148.515V147.651C83.3885 147.601 83.3996 147.552 83.4213 147.507C83.4429 147.461 83.4747 147.419 83.5148 147.384C83.5549 147.349 83.6025 147.321 83.6549 147.302C83.7073 147.284 83.7635 147.274 83.8201 147.274ZM87.2465 147.274H88.235C88.3492 147.274 88.4586 147.314 88.5393 147.385C88.6201 147.456 88.6657 147.551 88.6662 147.651V148.515C88.6662 148.724 88.4718 148.892 88.235 148.892H87.2465C87.1319 148.892 87.0219 148.853 86.9407 148.782C86.8594 148.711 86.8135 148.615 86.813 148.515V147.651C86.8143 147.551 86.8604 147.455 86.9415 147.385C87.0226 147.314 87.1321 147.275 87.2465 147.274ZM90.6736 147.274H91.6617C91.7763 147.274 91.8863 147.314 91.9675 147.384C92.0488 147.455 92.0947 147.551 92.0952 147.651V148.515C92.0952 148.724 91.9008 148.892 91.6617 148.892H90.6736C90.5593 148.892 90.4498 148.852 90.369 148.781C90.2882 148.711 90.2425 148.615 90.242 148.515V147.651C90.2425 147.551 90.2882 147.455 90.369 147.385C90.4498 147.314 90.5593 147.274 90.6736 147.274ZM80.5168 150.541H81.5049C81.6192 150.541 81.7286 150.581 81.8095 150.652C81.8903 150.722 81.936 150.818 81.9365 150.918V151.784C81.936 151.884 81.8904 151.98 81.8096 152.05C81.7288 152.121 81.6192 152.161 81.5049 152.161H80.5168C80.4024 152.161 80.2926 152.121 80.2117 152.051C80.1308 151.98 80.0853 151.884 80.0852 151.784V150.92C80.0849 150.87 80.0958 150.821 80.1173 150.775C80.1389 150.729 80.1706 150.687 80.2107 150.652C80.2509 150.617 80.2985 150.589 80.3511 150.57C80.4036 150.551 80.4599 150.541 80.5168 150.541ZM83.9435 150.541H84.9316C85.0459 150.541 85.1553 150.581 85.2362 150.652C85.317 150.722 85.3627 150.818 85.3632 150.918V151.784C85.3627 151.884 85.3171 151.98 85.2363 152.05C85.1555 152.121 85.0459 152.161 84.9316 152.161H83.9435C83.8292 152.161 83.7197 152.121 83.6388 152.05C83.558 151.98 83.5124 151.884 83.5119 151.784V150.92C83.5116 150.87 83.5225 150.821 83.544 150.775C83.5656 150.729 83.5973 150.687 83.6374 150.652C83.6776 150.617 83.7252 150.589 83.7778 150.57C83.8303 150.551 83.8866 150.541 83.9435 150.541ZM87.3702 150.541H88.3587C88.5974 150.541 88.7919 150.711 88.7919 150.918V151.784C88.7914 151.884 88.7456 151.98 88.6644 152.051C88.5832 152.122 88.4733 152.161 88.3587 152.161H87.3702C87.2559 152.161 87.1465 152.121 87.0657 152.05C86.985 151.98 86.9394 151.884 86.939 151.784V150.92C86.9389 150.82 86.9842 150.724 87.065 150.653C87.1459 150.582 87.2556 150.541 87.3702 150.541ZM83.8201 143.764H84.8083C84.9226 143.765 85.0321 143.804 85.1129 143.875C85.1938 143.946 85.2394 144.042 85.2398 144.141V145.005C85.2398 145.214 85.0454 145.383 84.8083 145.383H83.8201C83.7058 145.382 83.5963 145.342 83.5155 145.272C83.4346 145.201 83.389 145.105 83.3886 145.005V144.141C83.3885 144.092 83.3995 144.043 83.4212 143.997C83.4428 143.951 83.4746 143.909 83.5147 143.874C83.5548 143.839 83.6024 143.812 83.6548 143.793C83.7073 143.774 83.7634 143.764 83.8201 143.764ZM80.3944 143.764H81.3829C81.4972 143.765 81.6066 143.805 81.6874 143.875C81.7681 143.946 81.8137 144.042 81.8141 144.141V145.005C81.8141 145.214 81.6197 145.383 81.3829 145.383H80.3944C80.2801 145.382 80.1706 145.342 80.0897 145.272C80.0089 145.201 79.9633 145.105 79.9629 145.005V144.141C79.9627 144.092 79.9738 144.043 79.9955 143.997C80.0171 143.951 80.0489 143.909 80.089 143.874C80.1291 143.839 80.1767 143.812 80.2291 143.793C80.2815 143.774 80.3377 143.764 80.3944 143.764ZM87.2465 143.764H88.235C88.3492 143.765 88.4587 143.805 88.5394 143.875C88.6202 143.946 88.6658 144.042 88.6662 144.141V145.005C88.6662 145.214 88.4718 145.383 88.235 145.383H87.2465C87.1319 145.383 87.0219 145.343 86.9407 145.272C86.8594 145.202 86.8135 145.106 86.813 145.005V144.141C86.8142 144.041 86.8603 143.946 86.9414 143.875C87.0225 143.805 87.1321 143.765 87.2465 143.764ZM101.636 147.274H102.624C102.863 147.274 103.056 147.444 103.056 147.651V148.515C103.056 148.724 102.861 148.892 102.624 148.892H101.636C101.522 148.892 101.412 148.852 101.332 148.781C101.251 148.711 101.205 148.615 101.205 148.515V147.651C101.205 147.601 101.216 147.552 101.237 147.507C101.259 147.461 101.291 147.419 101.331 147.384C101.371 147.349 101.419 147.321 101.471 147.302C101.523 147.284 101.58 147.274 101.636 147.274ZM105.063 147.274H106.051C106.165 147.274 106.275 147.314 106.355 147.385C106.436 147.456 106.482 147.551 106.482 147.651V148.515C106.482 148.724 106.288 148.892 106.051 148.892H105.063C104.948 148.892 104.839 148.852 104.758 148.781C104.677 148.711 104.632 148.615 104.631 148.515V147.651C104.632 147.551 104.677 147.456 104.758 147.385C104.839 147.314 104.948 147.274 105.063 147.274ZM108.492 147.274H109.48C109.594 147.274 109.704 147.314 109.784 147.385C109.865 147.456 109.911 147.551 109.911 147.651V148.515C109.911 148.724 109.717 148.892 109.48 148.892H108.492C108.377 148.892 108.268 148.852 108.187 148.781C108.107 148.711 108.061 148.615 108.06 148.515V147.651C108.06 147.601 108.071 147.552 108.093 147.507C108.114 147.461 108.146 147.419 108.186 147.384C108.226 147.349 108.274 147.321 108.326 147.302C108.379 147.283 108.435 147.274 108.492 147.274ZM111.918 147.274H112.906C113.144 147.274 113.338 147.444 113.338 147.651V148.515C113.338 148.724 113.144 148.892 112.906 148.892H111.918C111.803 148.892 111.694 148.853 111.612 148.782C111.531 148.711 111.485 148.615 111.485 148.515V147.651C111.486 147.551 111.532 147.456 111.613 147.385C111.694 147.314 111.804 147.275 111.918 147.274ZM115.345 147.274H116.333C116.572 147.274 116.767 147.444 116.767 147.651V148.515C116.767 148.724 116.572 148.892 116.333 148.892H115.345C115.231 148.892 115.121 148.852 115.041 148.781C114.96 148.711 114.914 148.615 114.914 148.515V147.651C114.914 147.551 114.96 147.456 115.041 147.385C115.121 147.314 115.231 147.274 115.345 147.274ZM105.188 150.541H106.177C106.291 150.541 106.4 150.581 106.481 150.652C106.562 150.722 106.607 150.818 106.608 150.918V151.784C106.608 151.884 106.562 151.98 106.481 152.05C106.4 152.121 106.291 152.161 106.177 152.161H105.188C105.074 152.161 104.964 152.121 104.883 152.051C104.803 151.98 104.757 151.884 104.757 151.784V150.92C104.757 150.87 104.768 150.821 104.789 150.775C104.811 150.729 104.842 150.687 104.882 150.652C104.923 150.617 104.97 150.589 105.023 150.57C105.075 150.551 105.131 150.541 105.188 150.541ZM108.615 150.541H109.603C109.718 150.541 109.827 150.581 109.908 150.652C109.989 150.722 110.034 150.818 110.035 150.918V151.784C110.034 151.884 109.989 151.98 109.908 152.05C109.827 152.121 109.718 152.161 109.603 152.161H108.615C108.501 152.161 108.391 152.121 108.311 152.05C108.23 151.98 108.184 151.884 108.184 151.784V150.92C108.183 150.87 108.194 150.821 108.216 150.775C108.237 150.729 108.269 150.687 108.309 150.652C108.349 150.617 108.397 150.589 108.449 150.57C108.502 150.551 108.558 150.541 108.615 150.541ZM112.042 150.541H113.03C113.145 150.541 113.255 150.58 113.336 150.651C113.417 150.722 113.463 150.818 113.464 150.918V151.784C113.464 151.991 113.269 152.161 113.03 152.161H112.042C111.928 152.161 111.818 152.121 111.737 152.05C111.656 151.98 111.611 151.884 111.61 151.784V150.92C111.61 150.711 111.805 150.541 112.042 150.541ZM108.492 143.764H109.48C109.594 143.765 109.704 143.805 109.785 143.875C109.865 143.946 109.911 144.042 109.911 144.141V145.005C109.911 145.214 109.717 145.383 109.48 145.383H108.492C108.377 145.382 108.268 145.342 108.187 145.272C108.106 145.201 108.061 145.105 108.06 145.005V144.141C108.06 144.092 108.071 144.043 108.093 143.997C108.114 143.951 108.146 143.909 108.186 143.874C108.226 143.839 108.274 143.811 108.326 143.793C108.379 143.774 108.435 143.764 108.492 143.764ZM105.066 143.764H106.054C106.169 143.765 106.278 143.804 106.359 143.875C106.44 143.946 106.485 144.042 106.486 144.141V145.005C106.486 145.214 106.291 145.383 106.054 145.383H105.066C104.952 145.382 104.842 145.342 104.761 145.272C104.681 145.201 104.635 145.105 104.635 145.005V144.141C104.635 144.092 104.646 144.043 104.667 143.997C104.689 143.951 104.721 143.91 104.761 143.875C104.801 143.839 104.848 143.812 104.901 143.793C104.953 143.774 105.009 143.764 105.066 143.764ZM111.918 143.764H112.906C113.144 143.764 113.338 143.934 113.338 144.141V145.005C113.338 145.214 113.144 145.383 112.906 145.383H111.918C111.803 145.383 111.693 145.343 111.612 145.272C111.531 145.202 111.485 145.106 111.485 145.005V144.141C111.486 144.041 111.532 143.946 111.613 143.875C111.694 143.805 111.804 143.765 111.918 143.764ZM126.308 147.274H127.296C127.535 147.274 127.727 147.444 127.727 147.651V148.515C127.727 148.724 127.533 148.892 127.296 148.892H126.308C126.193 148.892 126.084 148.852 126.003 148.781C125.923 148.711 125.877 148.615 125.876 148.515V147.651C125.876 147.601 125.887 147.552 125.909 147.507C125.931 147.461 125.962 147.419 126.002 147.384C126.043 147.349 126.09 147.321 126.143 147.302C126.195 147.284 126.251 147.274 126.308 147.274ZM129.734 147.274H130.723C130.837 147.274 130.946 147.314 131.027 147.385C131.108 147.455 131.154 147.551 131.154 147.651V148.515C131.154 148.724 130.96 148.892 130.723 148.892H129.734C129.62 148.892 129.511 148.852 129.43 148.781C129.349 148.711 129.303 148.615 129.303 148.515V147.651C129.303 147.551 129.349 147.455 129.43 147.385C129.511 147.314 129.62 147.274 129.734 147.274ZM133.163 147.274H134.152C134.266 147.274 134.375 147.314 134.456 147.385C134.537 147.455 134.583 147.551 134.583 147.651V148.515C134.583 148.724 134.389 148.892 134.152 148.892H133.163C133.049 148.892 132.94 148.852 132.859 148.781C132.778 148.711 132.732 148.615 132.732 148.515V147.651C132.732 147.601 132.743 147.552 132.765 147.507C132.786 147.461 132.818 147.419 132.858 147.384C132.898 147.349 132.946 147.321 132.998 147.302C133.051 147.284 133.107 147.274 133.163 147.274ZM136.59 147.274H137.578C137.692 147.274 137.802 147.314 137.883 147.385C137.963 147.456 138.009 147.551 138.009 147.651V148.515C138.009 148.724 137.815 148.892 137.578 148.892H136.59C136.475 148.892 136.365 148.853 136.284 148.782C136.203 148.711 136.157 148.615 136.156 148.515V147.651C136.158 147.551 136.204 147.455 136.285 147.385C136.366 147.314 136.475 147.275 136.59 147.274ZM140.017 147.274H141.005C141.12 147.274 141.23 147.314 141.311 147.384C141.392 147.455 141.438 147.551 141.439 147.651V148.515C141.439 148.724 141.244 148.892 141.005 148.892H140.017C139.903 148.892 139.793 148.852 139.712 148.781C139.631 148.711 139.586 148.615 139.585 148.515V147.651C139.586 147.551 139.631 147.455 139.712 147.385C139.793 147.314 139.903 147.274 140.017 147.274ZM129.86 150.541H130.848C130.962 150.541 131.072 150.581 131.153 150.652C131.234 150.722 131.279 150.818 131.28 150.918V151.784C131.279 151.884 131.234 151.98 131.153 152.05C131.072 152.121 130.963 152.161 130.848 152.161H129.86C129.746 152.161 129.636 152.121 129.555 152.051C129.474 151.98 129.429 151.884 129.429 151.784V150.92C129.428 150.87 129.439 150.821 129.461 150.775C129.482 150.729 129.514 150.687 129.554 150.652C129.594 150.617 129.642 150.589 129.694 150.57C129.747 150.551 129.803 150.541 129.86 150.541ZM133.287 150.541H134.275C134.389 150.541 134.499 150.581 134.579 150.652C134.66 150.722 134.706 150.818 134.706 150.918V151.784C134.706 151.884 134.66 151.98 134.58 152.05C134.499 152.121 134.389 152.161 134.275 152.161H133.287C133.172 152.161 133.063 152.121 132.982 152.05C132.901 151.98 132.856 151.884 132.855 151.784V150.92C132.855 150.87 132.866 150.821 132.887 150.775C132.909 150.729 132.941 150.687 132.981 150.652C133.021 150.617 133.069 150.589 133.121 150.57C133.174 150.551 133.23 150.541 133.287 150.541ZM136.713 150.541H137.702C137.941 150.541 138.135 150.711 138.135 150.918V151.784C138.135 151.884 138.089 151.98 138.008 152.051C137.926 152.122 137.817 152.161 137.702 152.161H136.713C136.599 152.161 136.49 152.121 136.409 152.05C136.328 151.98 136.283 151.884 136.282 151.784V150.92C136.282 150.82 136.327 150.724 136.408 150.653C136.489 150.582 136.599 150.541 136.713 150.541ZM133.163 143.764H134.152C134.266 143.765 134.375 143.804 134.456 143.875C134.537 143.946 134.583 144.042 134.583 144.141V145.005C134.583 145.214 134.389 145.383 134.152 145.383H133.163C133.049 145.382 132.94 145.342 132.859 145.272C132.778 145.201 132.732 145.105 132.732 145.005V144.141C132.732 144.092 132.743 144.043 132.764 143.997C132.786 143.951 132.818 143.909 132.858 143.874C132.898 143.839 132.946 143.812 132.998 143.793C133.051 143.774 133.107 143.764 133.163 143.764ZM129.738 143.764H130.726C130.84 143.765 130.95 143.805 131.031 143.875C131.111 143.946 131.157 144.042 131.157 144.141V145.005C131.157 145.214 130.963 145.383 130.726 145.383H129.738C129.623 145.382 129.514 145.342 129.433 145.272C129.352 145.201 129.307 145.105 129.306 145.005V144.141C129.306 144.092 129.317 144.043 129.339 143.997C129.36 143.951 129.392 143.909 129.432 143.874C129.472 143.839 129.52 143.812 129.572 143.793C129.625 143.774 129.681 143.764 129.738 143.764ZM136.59 143.764H137.578C137.693 143.765 137.802 143.805 137.883 143.875C137.963 143.946 138.009 144.042 138.009 144.141V145.005C138.009 145.214 137.815 145.383 137.578 145.383H136.59C136.475 145.383 136.365 145.343 136.284 145.272C136.203 145.202 136.157 145.106 136.156 145.005V144.141C136.157 144.041 136.204 143.946 136.285 143.875C136.366 143.805 136.475 143.765 136.59 143.764Z" fill="#5BB9F4"/>
<path d="M62.5653 64.1177H7.61398C3.96118 64.1177 1 66.7067 1 69.9004V130.861C1 134.055 3.96118 136.644 7.61398 136.644H62.5653C66.2181 136.644 69.1793 134.055 69.1793 130.861V69.9004C69.1793 66.7067 66.2181 64.1177 62.5653 64.1177Z" fill="#0D0D0D" stroke="#5C6678" stroke-width="0.5" stroke-linecap="round" stroke-linejoin="round"/>
<mask id="mask0_603_9606" style="mask-type:alpha" maskUnits="userSpaceOnUse" x="1" y="64" width="69" height="73">
<path d="M1 64.1177H69.1793V136.644H1V64.1177Z" fill="#0D0D0D"/>
</mask>
<g mask="url(#mask0_603_9606)">
<path d="M49.6299 116.885H10.5346C9.17215 116.885 8.06763 117.851 8.06763 119.042V119.042C8.06763 120.234 9.17215 121.199 10.5346 121.199H49.6299C50.9924 121.199 52.0969 120.234 52.0969 119.042V119.042C52.0969 117.851 50.9924 116.885 49.6299 116.885Z" fill="#242B37"/>
<path d="M49.2503 107.924H10.9143C9.34212 107.924 8.06763 109.039 8.06763 110.413C8.06763 111.788 9.34212 112.902 10.9143 112.902H49.2503C50.8224 112.902 52.0969 111.788 52.0969 110.413C52.0969 109.039 50.8224 107.924 49.2503 107.924Z" fill="#242B37"/>
<path d="M49.2503 125.182H10.9143C9.34212 125.182 8.06763 126.296 8.06763 127.671C8.06763 129.046 9.34212 130.16 10.9143 130.16H49.2503C50.8224 130.16 52.0969 129.046 52.0969 127.671C52.0969 126.296 50.8224 125.182 49.2503 125.182Z" fill="#242B37"/>
<path d="M21.307 69.0981H9.54071C8.3877 69.0981 7.453 69.9153 7.453 70.9233C7.453 71.9313 8.3877 72.7485 9.54071 72.7485H21.307C22.46 72.7485 23.3947 71.9313 23.3947 70.9233C23.3947 69.9153 22.46 69.0981 21.307 69.0981Z" fill="#242B37"/>
<path d="M20.0669 78.3716C26.833 78.3716 32.3169 83.8555 32.3169 90.6216C32.3169 97.3877 26.833 102.872 20.0669 102.872C13.3008 102.872 7.81689 97.3877 7.81689 90.6216C7.81689 83.8555 13.3008 78.3716 20.0669 78.3716Z" fill="url(#paint0_linear_603_9606)" stroke="url(#paint1_linear_603_9606)" stroke-width="0.5" stroke-linecap="round" stroke-linejoin="round"/>
<path fill-rule="evenodd" clip-rule="evenodd" d="M20.2006 92.905C20.6985 92.2764 21.2685 91.7017 21.9001 91.1914L21.9106 91.1828C21.9386 91.1602 21.9611 91.1322 21.9766 91.1006C21.992 91.069 22 91.0346 22 90.9998C22 90.965 21.992 90.9306 21.9766 90.899C21.9611 90.8674 21.9386 90.8394 21.9106 90.8168L21.9001 90.8084C21.2685 90.298 20.6986 89.7233 20.2006 89.0947C20.1772 89.0653 20.147 89.0415 20.1121 89.025C20.0773 89.0086 20.0389 89 20 89C19.9611 89 19.9227 89.0086 19.8879 89.025C19.853 89.0415 19.8228 89.0653 19.7994 89.0947C19.3014 89.7233 18.7315 90.298 18.0999 90.8084L18.0894 90.8169C18.0614 90.8395 18.0389 90.8676 18.0234 90.8992C18.008 90.9308 18 90.9651 18 90.9999C18 91.0347 18.008 91.0691 18.0234 91.1007C18.0389 91.1323 18.0614 91.1604 18.0894 91.1829L18.0999 91.1914C18.7315 91.7017 19.3014 92.2764 19.7994 92.905C19.8227 92.9345 19.853 92.9584 19.8878 92.9749C19.9226 92.9914 19.961 93 20 93C20.039 93 20.0774 92.9914 20.1122 92.9749C20.147 92.9584 20.1773 92.9345 20.2006 92.905Z" fill="white"/>
</g>
<path d="M138.528 120.338C138.528 115.861 134.894 112.232 130.41 112.232C125.926 112.232 122.292 115.861 122.292 120.338C122.292 124.814 125.926 128.444 130.41 128.444C134.894 128.444 138.528 124.814 138.528 120.338Z" stroke="url(#paint2_linear_603_9606)" stroke-width="0.5"/>
<path d="M118.792 120.338C118.792 115.861 115.157 112.232 110.673 112.232C106.189 112.232 102.555 115.861 102.555 120.338C102.555 124.814 106.189 128.444 110.673 128.444C115.157 128.444 118.792 124.814 118.792 120.338Z" stroke="url(#paint3_linear_603_9606)" stroke-width="0.5"/>
<path d="M99.0549 120.338C99.0549 115.861 95.4206 112.232 90.9366 112.232C86.4526 112.232 82.8182 115.861 82.8182 120.338C82.8182 124.814 86.4526 128.444 90.9366 128.444C95.4206 128.444 99.0549 124.814 99.0549 120.338Z" stroke="url(#paint4_linear_603_9606)" stroke-width="0.5"/>
<path d="M167.857 136.036C156.6 132.094 150.809 120.127 154.899 109.314C158.991 98.4964 171.432 92.9073 182.693 96.8509C193.951 100.793 199.742 112.76 195.652 123.573C191.56 134.39 179.119 139.979 167.857 136.036Z" fill="#18171D" stroke="#242B37" stroke-width="0.5"/>
<path d="M169.512 131.426C161.062 128.44 156.715 119.376 159.785 111.187C162.857 102.994 172.195 98.7603 180.647 101.747L180.731 101.512L180.647 101.747C189.097 104.733 193.444 113.797 190.374 121.986C187.302 130.18 177.964 134.413 169.512 131.426Z" fill="#3C3A47" stroke="#242B37" stroke-width="0.5"/>
<path d="M178.49 136.261L178.49 136.261C177.955 134.683 178.852 132.976 180.517 132.457C182.186 131.937 183.967 132.816 184.503 134.399C184.503 134.399 184.503 134.399 184.503 134.399L187.083 142.016L181.073 143.89L178.49 136.261Z" fill="#28273A" stroke="#242B37" stroke-width="0.5"/>
<path d="M186.874 140.149L179.924 142.322C179.107 142.577 178.661 143.421 178.926 144.206L189.005 174.051C189.271 174.837 190.148 175.267 190.964 175.011L197.914 172.839C198.731 172.584 199.178 171.74 198.912 170.954L188.833 141.109C188.568 140.324 187.691 139.894 186.874 140.149Z" fill="#18171D"/>
<path fill-rule="evenodd" clip-rule="evenodd" d="M222.263 164.981L219.837 161.348C216.858 156.889 212.637 153.312 207.648 151.017L197.697 146.439C196.092 145.701 194.335 145.318 192.554 145.318H190.442L191.245 147.861L179.937 145.224C178.621 144.917 177.326 145.794 177.194 147.081C177.156 147.455 177.222 147.832 177.385 148.173C177.549 148.514 177.805 148.808 178.126 149.025L181.252 151.13C179.294 152.031 179.022 154.589 180.751 155.847L182.34 157.003C180.832 157.893 180.744 159.956 182.172 160.96L184.477 162.579C184.334 163.267 184.436 163.981 184.765 164.608C185.094 165.235 185.632 165.739 186.295 166.042L188.759 167.166C189.124 167.333 189.503 167.468 189.893 167.571L201.288 170.562L214.004 178.702L222.263 164.981Z" fill="#979EAA"/>
<path fill-rule="evenodd" clip-rule="evenodd" d="M243 181.501L215.589 156.346L196.718 174.58L204.29 181.501H243Z" fill="#2A303A"/>
<path d="M273.434 107.542L273.434 107.542C274.712 108.24 275.77 109.243 276.504 110.447C277.238 111.65 277.623 113.013 277.623 114.398V119.974C277.623 121.359 277.238 122.722 276.504 123.926C275.77 125.129 274.712 126.132 273.434 126.83L273.434 126.83L268.333 129.619C268.333 129.619 268.333 129.619 268.333 129.619C267.055 130.317 265.603 130.686 264.123 130.686C262.644 130.686 261.192 130.317 259.914 129.619L254.812 126.83L254.812 126.83C253.534 126.132 252.476 125.129 251.742 123.926C251.008 122.722 250.623 121.359 250.623 119.974V114.398C250.623 113.013 251.008 111.65 251.742 110.447C252.476 109.243 253.534 108.24 254.812 107.542L254.812 107.542L259.914 104.753C259.914 104.753 259.914 104.753 259.914 104.753C261.192 104.055 262.644 103.686 264.123 103.686C265.603 103.686 267.055 104.055 268.333 104.753C268.333 104.753 268.333 104.753 268.333 104.753L273.434 107.542Z" fill="#0D0D0D" stroke="#5C6678"/>
<path d="M269.306 114.659L262.727 120.364L258.78 116.941" fill="#0D0D0D"/>
<path d="M269.306 114.659L262.727 120.364L258.78 116.941" stroke="#704991" stroke-linecap="round" stroke-linejoin="round"/>
<path d="M297.355 0.498535H167.537C163.867 0.498535 160.892 2.80116 160.892 5.6416V64.9705C160.892 67.8109 163.867 70.1136 167.537 70.1136H297.355C301.025 70.1136 304 67.8109 304 64.9705V5.6416C304 2.80116 301.025 0.498535 297.355 0.498535Z" fill="#0D0D0D" stroke="#5C6678" stroke-width="0.5"/>
<path d="M191.148 22.79H204.852C205.418 22.79 205.92 22.8921 206.27 23.0469C206.445 23.1244 206.571 23.2103 206.651 23.293C206.728 23.3744 206.75 23.4406 206.75 23.4899V60.1057C206.75 60.155 206.728 60.2211 206.651 60.3026C206.571 60.3853 206.445 60.4711 206.27 60.5487C205.92 60.7035 205.418 60.8055 204.852 60.8055H191.148C190.582 60.8055 190.08 60.7035 189.73 60.5487C189.555 60.4711 189.429 60.3853 189.349 60.3026C189.272 60.2211 189.25 60.155 189.25 60.1057V23.4899C189.25 23.4406 189.272 23.3744 189.349 23.293C189.429 23.2103 189.555 23.1244 189.73 23.0469C190.08 22.8921 190.582 22.79 191.148 22.79Z" fill="#242B37" stroke="#18171D" stroke-width="0.5"/>
<path d="M214.077 10.25H227.923C228.469 10.25 228.951 10.3517 229.288 10.5056C229.646 10.6695 229.75 10.8451 229.75 10.9499V60.1055C229.75 60.2103 229.646 60.386 229.288 60.5499C228.951 60.7037 228.469 60.8054 227.923 60.8054H214.077C213.531 60.8054 213.049 60.7037 212.712 60.5499C212.354 60.386 212.25 60.2103 212.25 60.1055V10.9499C212.25 10.8451 212.354 10.6695 212.712 10.5056C213.049 10.3517 213.531 10.25 214.077 10.25Z" fill="#242B37" stroke="#18171D" stroke-width="0.5"/>
<mask id="path-27-outside-1_603_9606" maskUnits="userSpaceOnUse" x="234" y="9" width="20" height="53" fill="black">
<rect fill="white" x="234" y="9" width="20" height="53"/>
<path d="M235 14C235 12.1144 235 11.1716 235.586 10.5858C236.172 10 237.114 10 239 10H249C250.886 10 251.828 10 252.414 10.5858C253 11.1716 253 12.1144 253 14V57.0554C253 58.941 253 59.8838 252.414 60.4696C251.828 61.0554 250.886 61.0554 249 61.0554H239C237.114 61.0554 236.172 61.0554 235.586 60.4696C235 59.8838 235 58.941 235 57.0554V14Z"/>
</mask>
<path d="M234.5 12C234.5 10.6193 235.619 9.5 237 9.5H251C252.381 9.5 253.5 10.6193 253.5 12H252.5C252.5 11.1716 251.828 10.5 251 10.5H237C236.172 10.5 235.5 11.1716 235.5 12H234.5ZM253 61.0554H235H253ZM237 61.0554C235.619 61.0554 234.5 59.9361 234.5 58.5554V12C234.5 10.6193 235.619 9.5 237 9.5V10.5C236.172 10.5 235.5 11.1716 235.5 12V59.0554C235.5 60.16 236.172 61.0554 237 61.0554ZM251 9.5C252.381 9.5 253.5 10.6193 253.5 12V58.5554C253.5 59.9361 252.381 61.0554 251 61.0554C251.828 61.0554 252.5 60.16 252.5 59.0554V12C252.5 11.1716 251.828 10.5 251 10.5V9.5Z" fill="#7F51A5" mask="url(#path-27-outside-1_603_9606)"/>
<path d="M250.923 10H237.077C235.93 10 235 10.4253 235 10.9499V60.1055C235 60.6301 235.93 61.0554 237.077 61.0554H250.923C252.07 61.0554 253 60.6301 253 60.1055V10.9499C253 10.4253 252.07 10 250.923 10Z" fill="url(#paint5_linear_603_9606)"/>
<path d="M260.148 22.79H273.852C274.418 22.79 274.92 22.8921 275.27 23.0469C275.445 23.1244 275.571 23.2103 275.651 23.293C275.728 23.3744 275.75 23.4406 275.75 23.4899V60.1057C275.75 60.155 275.728 60.2211 275.651 60.3026C275.571 60.3853 275.445 60.4711 275.27 60.5487C274.92 60.7035 274.418 60.8055 273.852 60.8055H260.148C259.582 60.8055 259.08 60.7035 258.73 60.5487C258.555 60.4711 258.429 60.3853 258.349 60.3026C258.272 60.2211 258.25 60.155 258.25 60.1057V23.4899C258.25 23.4406 258.272 23.3744 258.349 23.293C258.429 23.2103 258.555 23.1244 258.73 23.0469C259.08 22.8921 259.582 22.79 260.148 22.79Z" fill="#242B37" stroke="#18171D" stroke-width="0.5"/>
<path d="M168.853 96.6495C168.823 96.6495 168.74 96.6079 168.81 96.6079C168.844 96.6079 168.922 96.6495 168.853 96.6495Z" fill="#CC6144"/>
<path d="M54.7596 101.862C56.9686 101.862 58.7594 100.071 58.7594 97.8616C58.7594 95.6526 56.9686 93.8618 54.7596 93.8618C52.5502 93.8618 50.7594 95.6526 50.7594 97.8616C50.7594 100.071 52.5502 101.862 54.7596 101.862Z" fill="url(#paint6_linear_603_9606)"/>
<rect x="1" y="2.04541" width="131.624" height="38.2932" rx="9" fill="#0D0D0D"/>
<rect x="1" y="2.04541" width="131.624" height="38.2932" rx="9" stroke="#5C6678" stroke-width="0.5"/>
<path d="M44.4607 10.0454H10.3598C9.60878 10.0454 9 11.1997 9 12.6236V12.624C9 14.0479 9.60878 15.2022 10.3598 15.2022H44.4607C45.2117 15.2022 45.8204 14.0479 45.8204 12.624V12.6236C45.8204 11.1997 45.2117 10.0454 44.4607 10.0454Z" fill="#242B37"/>
<path d="M43.7212 21.2021H11.0993C9.93987 21.2021 9 22.3565 9 23.7804V23.7808C9 25.2047 9.93987 26.359 11.0993 26.359H43.7212C44.8806 26.359 45.8204 25.2047 45.8204 23.7808V23.7804C45.8204 22.3565 44.8806 21.2021 43.7212 21.2021Z" fill="#242B37"/>
<rect x="55.8204" y="10.0454" width="21.9831" height="22.2932" rx="10.9915" fill="url(#paint7_linear_603_9606)"/>
<path fill-rule="evenodd" clip-rule="evenodd" d="M67.0126 23.0969C67.5105 22.4683 68.0805 21.8936 68.7121 21.3833L68.7226 21.3747C68.7506 21.3521 68.7732 21.3241 68.7886 21.2925C68.804 21.2609 68.812 21.2265 68.812 21.1917C68.812 21.1569 68.804 21.1225 68.7886 21.0909C68.7732 21.0593 68.7506 21.0313 68.7226 21.0087L68.7121 21.0002C68.0805 20.4899 67.5106 19.9152 67.0126 19.2866C66.9892 19.2572 66.959 19.2333 66.9241 19.2169C66.8893 19.2005 66.8509 19.1919 66.812 19.1919C66.7731 19.1919 66.7347 19.2005 66.6999 19.2169C66.6651 19.2333 66.6348 19.2572 66.6114 19.2866C66.1135 19.9152 65.5435 20.4899 64.9119 21.0002L64.9014 21.0088C64.8734 21.0314 64.8509 21.0595 64.8354 21.0911C64.82 21.1227 64.812 21.157 64.812 21.1918C64.812 21.2266 64.82 21.261 64.8354 21.2926C64.8509 21.3242 64.8734 21.3522 64.9014 21.3748L64.9119 21.3833C65.5435 21.8936 66.1135 22.4683 66.6114 23.0969C66.6347 23.1264 66.665 23.1503 66.6998 23.1668C66.7346 23.1833 66.7731 23.1919 66.812 23.1919C66.851 23.1919 66.8894 23.1833 66.9242 23.1668C66.959 23.1503 66.9893 23.1264 67.0126 23.0969Z" fill="white"/>
<path d="M123.264 10.0454H89.1632C88.4122 10.0454 87.8035 11.1997 87.8035 12.6236V12.624C87.8035 14.0479 88.4122 15.2022 89.1632 15.2022H123.264C124.015 15.2022 124.624 14.0479 124.624 12.624V12.6236C124.624 11.1997 124.015 10.0454 123.264 10.0454Z" fill="#242B37"/>
<path d="M122.525 21.2021H89.9027C88.7433 21.2021 87.8035 22.3565 87.8035 23.7804V23.7808C87.8035 25.2047 88.7433 26.359 89.9027 26.359H122.525C123.684 26.359 124.624 25.2047 124.624 23.7808V23.7804C124.624 22.3565 123.684 21.2021 122.525 21.2021Z" fill="#242B37"/>
<path d="M251.347 95.063C253.004 95.063 254.347 93.7198 254.347 92.0631C254.347 90.4061 253.004 89.063 251.347 89.063C249.69 89.063 248.347 90.4061 248.347 92.0631C248.347 93.7198 249.69 95.063 251.347 95.063Z" stroke="#5C6678" stroke-width="0.5" stroke-linecap="round" stroke-linejoin="round"/>
<path d="M253.858 140.565L250.589 143.835L249 142.25M260.943 139H270.607M261.019 143.8H277M277 155H260.943M277 150.2H261.019" stroke="#5C6678" stroke-width="0.5" stroke-linecap="round" stroke-linejoin="round"/>
<path d="M251.5 156C253.433 156 255 154.433 255 152.5C255 150.567 253.433 149 251.5 149C249.567 149 248 150.567 248 152.5C248 154.433 249.567 156 251.5 156Z" stroke="#5C6678" stroke-width="0.5" stroke-linecap="round" stroke-linejoin="round"/>
<defs>
<filter id="filter0_f_603_9606" x="69" y="8" width="233" height="226" filterUnits="userSpaceOnUse" color-interpolation-filters="sRGB">
<feFlood flood-opacity="0" result="BackgroundImageFix"/>
<feBlend mode="normal" in="SourceGraphic" in2="BackgroundImageFix" result="shape"/>
<feGaussianBlur stdDeviation="45" result="effect1_foregroundBlur_603_9606"/>
</filter>
<linearGradient id="paint0_linear_603_9606" x1="12.0841" y1="102.67" x2="41.4574" y2="86.1784" gradientUnits="userSpaceOnUse">
<stop stop-color="#45EBBE"/>
<stop offset="1" stop-color="#18171D" stop-opacity="0.79"/>
</linearGradient>
<linearGradient id="paint1_linear_603_9606" x1="4.14036" y1="102.393" x2="35.3081" y2="99.3481" gradientUnits="userSpaceOnUse">
<stop stop-color="#2F2F37"/>
<stop offset="1" stop-color="#18171D"/>
</linearGradient>
<linearGradient id="paint2_linear_603_9606" x1="119.303" y1="128.534" x2="141.038" y2="126.408" gradientUnits="userSpaceOnUse">
<stop stop-color="#7F51A5"/>
<stop offset="1" stop-color="#18171D"/>
</linearGradient>
<linearGradient id="paint3_linear_603_9606" x1="99.5667" y1="128.534" x2="121.301" y2="126.408" gradientUnits="userSpaceOnUse">
<stop stop-color="#7F51A5"/>
<stop offset="1" stop-color="#18171D"/>
</linearGradient>
<linearGradient id="paint4_linear_603_9606" x1="79.83" y1="128.534" x2="101.565" y2="126.408" gradientUnits="userSpaceOnUse">
<stop stop-color="#7F51A5"/>
<stop offset="1" stop-color="#18171D"/>
</linearGradient>
<linearGradient id="paint5_linear_603_9606" x1="244" y1="10" x2="244" y2="61.0554" gradientUnits="userSpaceOnUse">
<stop stop-color="#7F51A5"/>
<stop offset="1" stop-color="#18171D"/>
</linearGradient>
<linearGradient id="paint6_linear_603_9606" x1="54.7594" y1="93.8618" x2="54.7594" y2="101.862" gradientUnits="userSpaceOnUse">
<stop stop-color="#FF92AE"/>
<stop offset="1" stop-color="#995868"/>
</linearGradient>
<linearGradient id="paint7_linear_603_9606" x1="59.5" y1="10" x2="86.5842" y2="24.9952" gradientUnits="userSpaceOnUse">
<stop stop-color="#45EBBE"/>
<stop offset="1" stop-color="#18171D" stop-opacity="0.79"/>
</linearGradient>
</defs>
</svg>
