<svg width="307" height="248" viewBox="0 0 307 248" fill="none" xmlns="http://www.w3.org/2000/svg">
<path d="M169.447 98.0892L181.159 98.0892M157.736 98.455C157.736 101.082 160.17 103.211 163.173 103.211C166.177 103.211 168.611 101.082 168.611 98.455C168.611 95.8281 166.177 93.6987 163.173 93.6987C160.17 93.6987 157.736 95.8281 157.736 98.455ZM181.159 98.0892C181.159 100.514 183.406 102.48 186.178 102.48C188.95 102.48 191.197 100.514 191.197 98.0892C191.197 95.6644 188.95 93.6987 186.178 93.6987C183.406 93.6987 181.159 95.6644 181.159 98.0892ZM181.159 118.578C181.159 121.003 183.406 122.968 186.178 122.968C188.95 122.968 191.197 121.003 191.197 118.578C191.197 116.153 188.95 114.187 186.178 114.187C183.406 114.187 181.159 116.153 181.159 118.578Z" stroke="url(#paint0_linear_603_9519)" stroke-linecap="round" stroke-linejoin="round"/>
<path d="M169.447 101.723C172.375 102.379 174.55 104.714 174.534 107.471L174.517 112.476C174.5 116.298 177.311 119.552 181.226 120.748M169.447 52.2198L181.159 52.2198M181.159 52.2198C181.159 49.8025 183.406 47.8428 186.178 47.8428C188.95 47.8428 191.197 49.8025 191.197 52.2198C191.197 54.6372 188.95 56.5969 186.178 56.5969C183.406 56.5969 181.159 54.6372 181.159 52.2198ZM157.736 51.8551C157.736 49.2362 160.17 47.1133 163.173 47.1133C166.177 47.1133 168.611 49.2362 168.611 51.8551C168.611 54.474 166.177 56.5969 163.173 56.5969C160.17 56.5969 157.736 54.474 157.736 51.8551ZM157.736 51.8551L131.209 51.8551C126.238 51.8551 122.209 55.8845 122.209 60.8551L122.209 83.835M181.159 31.7936C181.159 29.3761 183.406 27.4165 186.178 27.4165C188.95 27.4165 191.197 29.3761 191.197 31.7935C191.197 34.2109 188.95 36.1707 186.178 36.1707C183.406 36.1707 181.159 34.2109 181.159 31.7936Z" stroke="url(#paint1_linear_603_9519)" stroke-linecap="round" stroke-linejoin="round"/>
<path d="M170.994 52.2183C173.683 51.6103 175.681 49.4484 175.666 46.8948L175.65 42.2605C175.635 38.7206 178.217 35.7076 181.813 34.5996M192.053 97.7829L202.811 97.7829M202.811 97.7829C202.811 100.022 204.875 101.836 207.421 101.836C209.967 101.836 212.031 100.022 212.031 97.7829C212.031 95.5444 209.967 93.7296 207.421 93.7296C204.875 93.7296 202.811 95.5444 202.811 97.7829ZM181.296 98.1208C181.296 100.546 183.532 102.512 186.29 102.512C189.049 102.512 191.285 100.546 191.285 98.1208C191.285 95.6956 189.049 93.7296 186.29 93.7296C183.532 93.7296 181.296 95.6956 181.296 98.1208ZM202.811 116.699C202.811 118.937 204.875 120.752 207.421 120.752C209.967 120.752 212.031 118.937 212.031 116.699C212.031 114.46 209.967 112.645 207.421 112.645C204.875 112.645 202.811 114.46 202.811 116.699Z" stroke="url(#paint2_linear_603_9519)" stroke-linecap="round" stroke-linejoin="round"/>
<path d="M191.923 97.6688C194.63 98.275 196.641 100.43 196.625 102.975L196.61 107.595C196.594 111.123 199.193 114.127 202.812 115.231M191.923 52.5263L202.75 52.5263M202.75 52.5263C202.75 50.2949 204.828 48.4859 207.391 48.4859C209.954 48.4859 212.031 50.2949 212.031 52.5263M202.75 52.5263C202.75 54.7578 204.828 56.5667 207.391 56.5667C209.954 56.5667 212.031 54.7578 212.031 52.5263M212.031 52.5263L225.31 52.5263M181.095 52.1896C181.095 49.7722 183.346 47.8125 186.122 47.8125C188.899 47.8125 191.15 49.7722 191.15 52.1897C191.15 54.607 188.899 56.5667 186.122 56.5667C183.346 56.5667 181.095 54.607 181.095 52.1896ZM202.75 33.6713C202.75 31.4398 204.828 29.6309 207.391 29.6309C209.954 29.6309 212.031 31.4398 212.031 33.6713C212.031 35.9026 209.954 37.7117 207.391 37.7117C204.828 37.7117 202.75 35.9026 202.75 33.6713Z" stroke="url(#paint3_linear_603_9519)" stroke-linecap="round" stroke-linejoin="round"/>
<path d="M192.342 52.6655C194.983 52.0608 196.946 49.9106 196.93 47.3707L196.915 42.7613C196.9 39.2404 199.436 36.2436 202.968 35.1416M186.777 57.4659L186.777 75.9774C186.777 78.1208 188.747 79.8746 191.155 79.8746L203.192 79.8746" stroke="url(#paint4_linear_603_9519)" stroke-linecap="round" stroke-linejoin="round"/>
<path d="M186.777 93.1407L186.777 74.4358C186.777 72.2701 188.747 70.498 191.155 70.498L203.192 70.498" stroke="url(#paint5_linear_603_9519)" stroke-linecap="round" stroke-linejoin="round"/>
<g filter="url(#filter0_f_603_9519)">
<path d="M129 158C150.539 158 168 142.778 168 124C168 105.222 150.539 90 129 90C107.461 90 90 105.222 90 124C90 142.778 107.461 158 129 158Z" fill="#D4625B"/>
</g>
<path d="M183.961 178.691H26.8192C22.3036 178.691 18.6416 175.043 18.6416 170.544V72.4607C18.6416 67.962 22.3036 64.314 26.8192 64.314H183.961C188.477 64.314 192.139 67.962 192.139 72.4607V170.544C192.139 175.043 188.477 178.691 183.961 178.691Z" fill="#0D0D0D" stroke="#6D689D" stroke-width="0.5"/>
<path d="M192.139 74.87H18.6416V72.4607C18.6416 67.962 22.3036 64.314 26.8192 64.314H183.961C188.477 64.314 192.139 67.962 192.139 72.4607V74.87Z" stroke="#6D689D" stroke-width="0.5"/>
<path d="M302.635 112.548C302.635 113.339 303.38 114.036 304.372 114.036C305.363 114.036 306.108 113.339 306.108 112.548C306.108 111.756 305.363 111.06 304.372 111.06C303.38 111.06 302.635 111.756 302.635 112.548Z" fill="#1E1E22" stroke="#6D689D" stroke-width="0.5"/>
<path d="M265.885 28.3829C268.178 27.8454 269.491 25.8011 268.896 23.8589C268.301 21.9167 265.996 20.7206 263.703 21.258C261.41 21.7955 260.097 23.8398 260.692 25.782C261.286 27.7242 263.592 28.9203 265.885 28.3829Z" fill="#1E1E22" stroke="#6D689D" stroke-width="0.5"/>
<path fill-rule="evenodd" clip-rule="evenodd" d="M280.995 67.5527H237.843C230.693 67.5527 224.897 72.6099 224.897 78.8496C224.897 85.0893 230.693 90.1464 237.843 90.1464H280.995C288.145 90.1464 293.941 85.0893 293.941 78.8496C293.941 72.6099 288.145 67.5527 280.995 67.5527Z" fill="#242B37"/>
<path fill-rule="evenodd" clip-rule="evenodd" d="M280.995 67.5527H237.843C230.693 67.5527 224.897 72.6099 224.897 78.8496C224.897 85.0893 230.693 90.1464 237.843 90.1464H280.995C288.145 90.1464 293.941 85.0893 293.941 78.8496C293.941 72.6099 288.145 67.5527 280.995 67.5527Z" stroke="url(#paint6_linear_603_9519)" stroke-opacity="0.5" stroke-width="0.5" stroke-linecap="round" stroke-linejoin="round"/>
<path fill-rule="evenodd" clip-rule="evenodd" d="M280.995 67.5527H237.843C230.693 67.5527 224.897 72.6099 224.897 78.8496C224.897 85.0893 230.693 90.1464 237.843 90.1464H280.995C288.145 90.1464 293.941 85.0893 293.941 78.8496C293.941 72.6099 288.145 67.5527 280.995 67.5527Z" stroke="#5C6678" stroke-width="0.5" stroke-linecap="round" stroke-linejoin="round"/>
<path d="M259.171 79.0874H281.026" stroke="#7F51A5" stroke-width="2" stroke-linecap="round" stroke-linejoin="round"/>
<path fill-rule="evenodd" clip-rule="evenodd" d="M280.995 39.5527H237.843C230.693 39.5527 224.897 44.6099 224.897 50.8496C224.897 57.0893 230.693 62.1464 237.843 62.1464H280.995C288.145 62.1464 293.941 57.0893 293.941 50.8496C293.941 44.6099 288.145 39.5527 280.995 39.5527Z" fill="#242B37"/>
<path fill-rule="evenodd" clip-rule="evenodd" d="M280.995 39.5527H237.843C230.693 39.5527 224.897 44.6099 224.897 50.8496C224.897 57.0893 230.693 62.1464 237.843 62.1464H280.995C288.145 62.1464 293.941 57.0893 293.941 50.8496C293.941 44.6099 288.145 39.5527 280.995 39.5527Z" stroke="url(#paint7_linear_603_9519)" stroke-opacity="0.5" stroke-width="0.5" stroke-linecap="round" stroke-linejoin="round"/>
<path fill-rule="evenodd" clip-rule="evenodd" d="M280.995 39.5527H237.843C230.693 39.5527 224.897 44.6099 224.897 50.8496C224.897 57.0893 230.693 62.1464 237.843 62.1464H280.995C288.145 62.1464 293.941 57.0893 293.941 50.8496C293.941 44.6099 288.145 39.5527 280.995 39.5527Z" stroke="#5C6678" stroke-width="0.5" stroke-linecap="round" stroke-linejoin="round"/>
<path d="M259.171 50.8481H281.026" stroke="#7F51A5" stroke-width="2" stroke-linecap="round" stroke-linejoin="round"/>
<path fill-rule="evenodd" clip-rule="evenodd" d="M280.995 95.5576H237.843C230.692 95.5576 224.897 100.615 224.897 106.854C224.897 113.094 230.692 118.151 237.843 118.151H259.419H280.995C288.145 118.151 293.94 113.094 293.94 106.854C293.94 100.615 288.145 95.5576 280.995 95.5576Z" fill="#242B37"/>
<path d="M259.419 118.151H237.843C230.692 118.151 224.897 113.094 224.897 106.854C224.897 100.615 230.692 95.5576 237.843 95.5576H280.995C288.145 95.5576 293.94 100.615 293.94 106.854C293.94 113.094 288.145 118.151 280.995 118.151H259.419ZM259.419 118.151V132.544C259.419 142.486 251.36 150.544 241.419 150.544H194.709" stroke="#5C6678" stroke-width="0.5" stroke-linecap="round" stroke-linejoin="round"/>
<path d="M259.171 106.899H281.026" stroke="#7F51A5" stroke-width="2" stroke-linecap="round" stroke-linejoin="round"/>
<path fill-rule="evenodd" clip-rule="evenodd" d="M238.019 80.3014C238.019 80.3014 238.019 80.3014 238.019 80.3014C238.294 80.3011 238.553 80.2433 238.78 80.1441C238.976 80.0584 239.138 79.9463 239.266 79.8244C239.285 79.8062 239.303 79.7878 239.321 79.7692C239.456 79.6269 239.549 79.4733 239.608 79.323C239.667 79.1729 239.694 79.0198 239.694 78.8703C239.694 78.8702 239.694 78.8703 239.694 78.8703C239.694 78.7207 239.666 78.5675 239.607 78.4175C239.548 78.2675 239.454 78.1139 239.319 77.9714C239.301 77.9528 239.283 77.9345 239.264 77.9163C239.12 77.7807 238.936 77.6594 238.72 77.5734C238.513 77.4912 238.276 77.4411 238.015 77.4414C238.015 77.4414 238.015 77.4414 238.015 77.4414C237.755 77.4416 237.518 77.4921 237.311 77.5746C237.095 77.661 236.911 77.7826 236.769 77.9183C236.749 77.9365 236.731 77.9549 236.713 77.9735C236.593 78.1004 236.506 78.2363 236.446 78.3739C236.372 78.542 236.34 78.7126 236.34 78.8725C236.34 78.8724 236.34 78.8725 236.34 78.8725C236.34 79.0322 236.373 79.2031 236.447 79.3712C236.507 79.5087 236.595 79.6446 236.715 79.7713C236.733 79.7899 236.752 79.8083 236.771 79.8265C236.899 79.9483 237.061 80.0601 237.257 80.1455C237.485 80.2444 237.745 80.3016 238.019 80.3014ZM238.015 77.0069C238.343 77.0065 238.657 77.075 238.935 77.1957C239.21 77.3155 239.436 77.4805 239.61 77.6639C239.956 78.027 240.106 78.4641 240.107 78.8699C240.107 79.2758 239.957 79.7129 239.613 80.0762C239.26 80.4483 238.698 80.7352 238.02 80.7359C237.341 80.7365 236.778 80.4508 236.424 80.0788C236.25 79.8961 236.126 79.6946 236.046 79.4919C235.967 79.2891 235.928 79.0795 235.928 78.8729C235.928 78.6663 235.966 78.4566 236.045 78.2538C236.125 78.0508 236.248 77.8493 236.421 77.6666C236.595 77.4832 236.821 77.3178 237.096 77.1974C237.373 77.0763 237.686 77.0072 238.015 77.0069ZM246.051 80.3014C246.051 80.3014 246.051 80.3014 246.051 80.3014C246.325 80.3011 246.585 80.2433 246.812 80.1441C247.008 80.0584 247.169 79.9463 247.297 79.8244C247.316 79.8062 247.335 79.7878 247.352 79.7692C247.487 79.6269 247.58 79.4733 247.639 79.323C247.698 79.1727 247.726 79.0195 247.726 78.8703C247.726 78.8702 247.726 78.8703 247.726 78.8703C247.725 78.721 247.698 78.5678 247.638 78.4175C247.579 78.2672 247.486 78.1137 247.35 77.9714C247.333 77.9528 247.314 77.9345 247.295 77.9163C247.152 77.7807 246.968 77.6594 246.751 77.5734C246.544 77.4912 246.307 77.4411 246.047 77.4414C246.047 77.4414 246.047 77.4414 246.047 77.4414C245.787 77.4416 245.55 77.4921 245.343 77.5746C245.127 77.661 244.943 77.7826 244.8 77.9183C244.781 77.9365 244.763 77.9549 244.745 77.9735C244.625 78.1004 244.537 78.2363 244.477 78.3739C244.404 78.542 244.372 78.7127 244.372 78.8725C244.372 78.8724 244.372 78.8725 244.372 78.8725C244.372 79.0322 244.404 79.2031 244.478 79.3712C244.538 79.5087 244.626 79.6446 244.747 79.7713C244.765 79.7899 244.783 79.8083 244.802 79.8265C244.931 79.9482 245.093 80.0601 245.289 80.1455C245.516 80.2444 245.777 80.3016 246.051 80.3014ZM246.046 77.0069C246.375 77.0065 246.689 77.075 246.966 77.1957C247.242 77.3156 247.468 77.4807 247.642 77.6639C247.987 78.027 248.138 78.4641 248.138 78.8699C248.139 79.2757 247.989 79.7128 247.644 80.0762C247.292 80.4484 246.73 80.7352 246.051 80.7359C245.372 80.7365 244.809 80.4508 244.456 80.0788C244.282 79.8963 244.158 79.6949 244.078 79.4919C243.998 79.2889 243.959 79.0792 243.959 78.8729C243.959 78.6666 243.997 78.4569 244.077 78.2538C244.157 78.0508 244.28 77.8493 244.453 77.6666C244.627 77.4832 244.852 77.3178 245.127 77.1974C245.404 77.0763 245.718 77.0072 246.046 77.0069Z" fill="#12CA98"/>
<path fill-rule="evenodd" clip-rule="evenodd" d="M238.018 52.4937C238.018 52.4937 238.018 52.4937 238.018 52.4937C238.278 52.4936 238.515 52.4433 238.722 52.361C238.938 52.2748 239.122 52.1534 239.265 52.0177C239.284 51.9997 239.302 51.9814 239.32 51.963C239.44 51.836 239.528 51.6999 239.588 51.5621C239.662 51.3939 239.694 51.2231 239.694 51.0632C239.694 51.0632 239.694 51.0632 239.694 51.0632C239.694 50.9032 239.662 50.7323 239.588 50.5642C239.528 50.4263 239.439 50.2903 239.319 50.1635C239.301 50.145 239.283 50.1267 239.264 50.1087C239.135 49.9868 238.973 49.8749 238.777 49.7896C238.55 49.6908 238.29 49.6336 238.017 49.6337C238.017 49.6337 238.017 49.6337 238.017 49.6337C237.743 49.6339 237.483 49.6913 237.256 49.7903C237.06 49.8758 236.898 49.9878 236.77 50.1097C236.751 50.1278 236.733 50.146 236.715 50.1645C236.58 50.3069 236.487 50.4605 236.428 50.6108C236.368 50.7614 236.341 50.9148 236.341 51.0643C236.341 51.0643 236.341 51.0643 236.341 51.0643C236.341 51.2138 236.369 51.3672 236.428 51.5177C236.487 51.6681 236.581 51.8217 236.716 51.964C236.734 51.9825 236.752 52.0007 236.771 52.0187C236.914 52.1544 237.098 52.2756 237.315 52.3616C237.522 52.4438 237.758 52.4938 238.018 52.4937ZM238.016 49.1992C238.694 49.1989 239.257 49.4842 239.611 49.8561C239.784 50.0387 239.908 50.2402 239.988 50.4433C240.069 50.6465 240.107 50.8564 240.107 51.063C240.107 51.2695 240.069 51.4794 239.989 51.6827C239.909 51.8858 239.786 52.0873 239.612 52.27C239.438 52.4533 239.212 52.6184 238.937 52.7385C238.66 52.8594 238.347 52.9281 238.019 52.9282C237.691 52.9284 237.377 52.86 237.1 52.7394C236.824 52.6195 236.599 52.4546 236.424 52.2714C236.079 51.9083 235.928 51.4709 235.928 51.0645C235.928 50.6582 236.078 50.2207 236.423 49.8574C236.776 49.4853 237.338 49.1996 238.016 49.1992ZM246.049 52.4937C246.049 52.4937 246.049 52.4937 246.049 52.4937C246.309 52.4936 246.546 52.4433 246.753 52.361C246.969 52.2748 247.153 52.1534 247.296 52.0177C247.315 51.9997 247.333 51.9814 247.351 51.963C247.471 51.836 247.559 51.6999 247.619 51.5621C247.693 51.3939 247.725 51.2231 247.725 51.0632C247.725 51.0632 247.725 51.0632 247.725 51.0632C247.725 50.9032 247.693 50.7323 247.619 50.5642C247.559 50.4263 247.47 50.2903 247.35 50.1635C247.332 50.145 247.314 50.1267 247.295 50.1087C247.166 49.9868 247.004 49.8749 246.808 49.7896C246.581 49.6908 246.321 49.6336 246.048 49.6337C246.048 49.6337 246.048 49.6337 246.048 49.6337C245.774 49.6339 245.514 49.6913 245.287 49.7903C245.091 49.8758 244.929 49.9878 244.801 50.1097C244.782 50.1278 244.764 50.146 244.746 50.1645C244.611 50.3069 244.518 50.4605 244.459 50.6108C244.4 50.7612 244.372 50.9145 244.372 51.0643C244.372 51.0643 244.372 51.0643 244.372 51.0643C244.372 51.2141 244.4 51.3675 244.459 51.5177C244.518 51.6678 244.612 51.8215 244.747 51.964C244.765 51.9825 244.783 52.0007 244.802 52.0187C244.945 52.1544 245.129 52.2756 245.346 52.3616C245.553 52.4438 245.789 52.4938 246.049 52.4937ZM246.047 49.1992C246.725 49.1989 247.288 49.4841 247.642 49.8561C247.816 50.0389 247.939 50.2405 248.019 50.4433C248.1 50.6462 248.138 50.8561 248.138 51.063C248.138 51.2698 248.1 51.4796 248.02 51.6827C247.94 51.8858 247.817 52.0873 247.643 52.27C247.469 52.4533 247.243 52.6184 246.968 52.7385C246.691 52.8594 246.378 52.9281 246.05 52.9282C245.722 52.9284 245.408 52.86 245.131 52.7394C244.855 52.6195 244.63 52.4546 244.455 52.2714C244.11 51.9083 243.959 51.4709 243.959 51.0645C243.959 50.6582 244.109 50.2207 244.454 49.8574C244.807 49.4853 245.369 49.1996 246.047 49.1992Z" fill="#12CA98"/>
<path fill-rule="evenodd" clip-rule="evenodd" d="M238.019 108.109C238.019 108.109 238.019 108.109 238.019 108.109C238.279 108.109 238.516 108.058 238.723 107.976C238.939 107.889 239.123 107.768 239.266 107.632C239.285 107.614 239.303 107.595 239.321 107.577C239.441 107.45 239.529 107.314 239.589 107.176C239.662 107.008 239.694 106.838 239.694 106.678C239.694 106.678 239.694 106.678 239.694 106.678C239.694 106.518 239.661 106.347 239.588 106.179C239.527 106.042 239.439 105.906 239.319 105.779C239.301 105.761 239.283 105.742 239.264 105.724C239.135 105.602 238.973 105.49 238.777 105.405C238.55 105.306 238.29 105.249 238.015 105.249C238.015 105.249 238.015 105.249 238.015 105.249C237.742 105.249 237.481 105.307 237.254 105.406C237.058 105.492 236.896 105.604 236.769 105.726C236.749 105.744 236.731 105.763 236.713 105.781C236.579 105.923 236.486 106.077 236.427 106.227C236.368 106.378 236.34 106.531 236.34 106.68C236.34 106.68 236.34 106.68 236.34 106.68C236.34 106.829 236.368 106.983 236.427 107.133C236.487 107.283 236.58 107.437 236.715 107.579C236.733 107.598 236.752 107.616 236.771 107.634C236.914 107.77 237.098 107.891 237.315 107.977C237.522 108.059 237.759 108.109 238.019 108.109ZM238.015 104.815C238.694 104.814 239.257 105.1 239.61 105.472C239.784 105.654 239.908 105.856 239.988 106.058C240.068 106.262 240.106 106.471 240.107 106.678C240.107 106.884 240.069 107.093 239.989 107.297C239.909 107.5 239.786 107.701 239.613 107.884C239.439 108.067 239.214 108.232 238.939 108.353C238.661 108.474 238.348 108.543 238.02 108.544C237.691 108.544 237.377 108.475 237.1 108.355C236.824 108.235 236.598 108.07 236.424 107.886C236.079 107.523 235.928 107.086 235.928 106.681C235.927 106.275 236.077 105.838 236.421 105.474C236.774 105.102 237.336 104.815 238.015 104.815ZM246.051 108.109C246.051 108.109 246.051 108.109 246.051 108.109C246.311 108.109 246.548 108.058 246.754 107.976C246.971 107.889 247.154 107.768 247.297 107.632C247.316 107.614 247.335 107.595 247.352 107.577C247.473 107.45 247.56 107.314 247.62 107.176C247.694 107.008 247.726 106.838 247.726 106.678C247.726 106.678 247.726 106.678 247.726 106.678C247.725 106.518 247.693 106.347 247.619 106.179C247.559 106.042 247.471 105.906 247.35 105.779C247.333 105.761 247.314 105.742 247.295 105.724C247.167 105.602 247.005 105.49 246.809 105.405C246.581 105.306 246.321 105.249 246.047 105.249C246.047 105.249 246.047 105.249 246.047 105.249C245.773 105.249 245.513 105.307 245.286 105.406C245.09 105.492 244.928 105.604 244.8 105.726C244.781 105.744 244.763 105.763 244.745 105.781C244.61 105.924 244.517 106.077 244.458 106.227C244.399 106.377 244.372 106.531 244.372 106.68C244.372 106.68 244.372 106.68 244.372 106.68C244.372 106.83 244.4 106.983 244.459 107.133C244.518 107.283 244.611 107.436 244.747 107.579C244.765 107.598 244.783 107.616 244.802 107.634C244.946 107.77 245.129 107.891 245.346 107.977C245.553 108.059 245.79 108.109 246.051 108.109ZM246.046 104.815C246.725 104.814 247.288 105.1 247.642 105.472C247.816 105.654 247.939 105.856 248.019 106.058C248.099 106.261 248.138 106.471 248.138 106.678C248.138 106.884 248.1 107.094 248.021 107.297C247.941 107.499 247.818 107.701 247.644 107.884C247.471 108.067 247.245 108.233 246.97 108.353C246.693 108.474 246.379 108.543 246.051 108.544C245.723 108.544 245.409 108.475 245.131 108.355C244.856 108.235 244.63 108.07 244.456 107.886C244.11 107.523 243.96 107.086 243.959 106.681C243.959 106.275 244.109 105.837 244.453 105.474C244.806 105.102 245.367 104.815 246.046 104.815Z" fill="#12CA98"/>
<path d="M238.019 80.3014C238.019 80.3014 238.019 80.3014 238.019 80.3014ZM238.019 80.3014C238.294 80.3011 238.553 80.2433 238.78 80.1441C238.976 80.0584 239.138 79.9463 239.266 79.8244C239.285 79.8062 239.303 79.7878 239.321 79.7692C239.456 79.6269 239.549 79.4733 239.608 79.323C239.667 79.1729 239.694 79.0198 239.694 78.8703M238.019 80.3014C237.745 80.3016 237.485 80.2444 237.257 80.1455C237.061 80.0601 236.899 79.9483 236.771 79.8264C236.752 79.8083 236.733 79.7899 236.715 79.7713C236.595 79.6446 236.507 79.5087 236.447 79.3712C236.373 79.2031 236.34 79.0322 236.34 78.8725M239.694 78.8703C239.694 78.8703 239.694 78.8702 239.694 78.8703ZM239.694 78.8703C239.694 78.7207 239.666 78.5675 239.607 78.4175C239.548 78.2675 239.454 78.1139 239.319 77.9714C239.301 77.9528 239.283 77.9345 239.264 77.9163C239.12 77.7807 238.936 77.6594 238.72 77.5734C238.513 77.4912 238.276 77.4411 238.015 77.4414M238.015 77.4414C238.015 77.4414 238.015 77.4414 238.015 77.4414ZM238.015 77.4414C237.755 77.4416 237.518 77.4921 237.311 77.5746C237.095 77.661 236.911 77.7826 236.769 77.9183C236.749 77.9365 236.731 77.9549 236.713 77.9735C236.593 78.1004 236.506 78.2363 236.446 78.3739C236.372 78.542 236.34 78.7126 236.34 78.8725M236.34 78.8725C236.34 78.8724 236.34 78.8725 236.34 78.8725ZM246.051 80.3014C246.051 80.3014 246.051 80.3014 246.051 80.3014ZM246.051 80.3014C246.325 80.3011 246.585 80.2433 246.812 80.1441C247.008 80.0584 247.169 79.9463 247.297 79.8244C247.316 79.8062 247.335 79.7878 247.352 79.7692C247.487 79.6269 247.58 79.4733 247.639 79.323C247.698 79.1727 247.726 79.0195 247.726 78.8703M246.051 80.3014C245.777 80.3016 245.516 80.2444 245.289 80.1455C245.093 80.0601 244.931 79.9482 244.802 79.8265C244.783 79.8083 244.765 79.7899 244.747 79.7713C244.626 79.6446 244.538 79.5087 244.478 79.3712C244.404 79.2031 244.372 79.0322 244.372 78.8725M247.726 78.8703C247.726 78.8703 247.726 78.8702 247.726 78.8703ZM247.726 78.8703C247.725 78.721 247.698 78.5678 247.638 78.4175C247.579 78.2672 247.486 78.1137 247.35 77.9714C247.333 77.9528 247.314 77.9345 247.295 77.9163C247.152 77.7807 246.968 77.6594 246.751 77.5734C246.544 77.4912 246.307 77.4411 246.047 77.4414M246.047 77.4414C246.047 77.4414 246.047 77.4414 246.047 77.4414ZM246.047 77.4414C245.787 77.4416 245.55 77.4921 245.343 77.5746C245.127 77.661 244.943 77.7826 244.8 77.9183C244.781 77.9365 244.763 77.9549 244.745 77.9735C244.625 78.1004 244.537 78.2363 244.477 78.3739C244.404 78.542 244.372 78.7127 244.372 78.8725M244.372 78.8725C244.372 78.8724 244.372 78.8725 244.372 78.8725ZM238.018 52.4937C238.018 52.4937 238.018 52.4937 238.018 52.4937ZM238.018 52.4937C238.278 52.4936 238.515 52.4433 238.722 52.361C238.938 52.2748 239.122 52.1534 239.265 52.0177C239.284 51.9997 239.302 51.9814 239.32 51.963C239.44 51.836 239.528 51.6999 239.588 51.5621C239.662 51.3939 239.694 51.2231 239.694 51.0632M238.018 52.4937C237.758 52.4938 237.522 52.4438 237.315 52.3616C237.098 52.2756 236.914 52.1544 236.771 52.0187C236.752 52.0007 236.734 51.9825 236.716 51.964C236.581 51.8217 236.487 51.6681 236.428 51.5177C236.369 51.3672 236.341 51.2138 236.341 51.0643M239.694 51.0632C239.694 51.0632 239.694 51.0632 239.694 51.0632ZM239.694 51.0632C239.694 50.9032 239.662 50.7323 239.588 50.5642C239.528 50.4263 239.439 50.2903 239.319 50.1635C239.301 50.145 239.283 50.1267 239.264 50.1087C239.135 49.9868 238.973 49.8749 238.777 49.7896C238.55 49.6908 238.29 49.6336 238.017 49.6337M238.017 49.6337C238.017 49.6337 238.017 49.6337 238.017 49.6337ZM238.017 49.6337C237.743 49.6339 237.483 49.6913 237.256 49.7903C237.06 49.8758 236.898 49.9878 236.77 50.1097C236.751 50.1278 236.733 50.146 236.715 50.1645C236.58 50.3069 236.487 50.4605 236.428 50.6108C236.368 50.7614 236.341 50.9148 236.341 51.0643M236.341 51.0643C236.341 51.0643 236.341 51.0643 236.341 51.0643ZM246.049 52.4937C246.049 52.4937 246.049 52.4937 246.049 52.4937ZM246.049 52.4937C246.309 52.4936 246.546 52.4433 246.753 52.361C246.969 52.2748 247.153 52.1534 247.296 52.0177C247.315 51.9997 247.333 51.9814 247.351 51.963C247.471 51.836 247.559 51.6999 247.619 51.5621C247.693 51.3939 247.725 51.2231 247.725 51.0632M246.049 52.4937C245.789 52.4938 245.553 52.4438 245.346 52.3616C245.129 52.2756 244.945 52.1544 244.802 52.0187C244.783 52.0007 244.765 51.9825 244.747 51.964C244.612 51.8215 244.518 51.6678 244.459 51.5177C244.4 51.3675 244.372 51.2141 244.372 51.0643M247.725 51.0632C247.725 51.0632 247.725 51.0632 247.725 51.0632ZM247.725 51.0632C247.725 50.9032 247.693 50.7323 247.619 50.5642C247.559 50.4263 247.47 50.2903 247.35 50.1635C247.332 50.145 247.314 50.1267 247.295 50.1087C247.166 49.9868 247.004 49.8749 246.808 49.7896C246.581 49.6908 246.321 49.6336 246.048 49.6337M246.048 49.6337C246.048 49.6337 246.048 49.6337 246.048 49.6337ZM246.048 49.6337C245.774 49.6339 245.514 49.6913 245.287 49.7903C245.091 49.8758 244.929 49.9878 244.801 50.1097C244.782 50.1278 244.764 50.146 244.746 50.1645C244.611 50.3069 244.518 50.4605 244.459 50.6108C244.4 50.7612 244.372 50.9145 244.372 51.0643M244.372 51.0643C244.372 51.0643 244.372 51.0643 244.372 51.0643ZM238.019 108.109C238.019 108.109 238.019 108.109 238.019 108.109ZM238.019 108.109C238.279 108.109 238.516 108.058 238.723 107.976C238.939 107.889 239.123 107.768 239.266 107.632C239.285 107.614 239.303 107.595 239.321 107.577C239.441 107.45 239.529 107.314 239.589 107.176C239.662 107.008 239.694 106.838 239.694 106.678M238.019 108.109C237.759 108.109 237.522 108.059 237.315 107.977C237.098 107.891 236.914 107.77 236.771 107.634C236.752 107.616 236.733 107.598 236.715 107.579C236.58 107.437 236.487 107.283 236.427 107.133C236.368 106.983 236.34 106.829 236.34 106.68M239.694 106.678C239.694 106.678 239.694 106.678 239.694 106.678ZM239.694 106.678C239.694 106.518 239.661 106.347 239.588 106.179C239.527 106.042 239.439 105.906 239.319 105.779C239.301 105.761 239.283 105.742 239.264 105.724C239.135 105.602 238.973 105.49 238.777 105.405C238.55 105.306 238.29 105.249 238.015 105.249M238.015 105.249C238.015 105.249 238.015 105.249 238.015 105.249ZM238.015 105.249C237.742 105.249 237.481 105.307 237.254 105.406C237.058 105.492 236.896 105.604 236.769 105.726C236.749 105.744 236.731 105.763 236.713 105.781C236.579 105.923 236.486 106.077 236.427 106.227C236.368 106.378 236.34 106.531 236.34 106.68M236.34 106.68C236.34 106.68 236.34 106.68 236.34 106.68ZM246.051 108.109C246.051 108.109 246.051 108.109 246.051 108.109ZM246.051 108.109C246.311 108.109 246.548 108.058 246.754 107.976C246.971 107.889 247.154 107.768 247.297 107.632C247.316 107.614 247.335 107.595 247.352 107.577C247.473 107.45 247.56 107.314 247.62 107.176C247.694 107.008 247.726 106.838 247.726 106.678M246.051 108.109C245.79 108.109 245.553 108.059 245.346 107.977C245.129 107.891 244.946 107.77 244.802 107.634C244.783 107.616 244.765 107.598 244.747 107.579C244.611 107.436 244.518 107.283 244.459 107.133C244.4 106.983 244.372 106.83 244.372 106.68M247.726 106.678C247.726 106.678 247.726 106.678 247.726 106.678ZM247.726 106.678C247.725 106.518 247.693 106.347 247.619 106.179C247.559 106.042 247.471 105.906 247.35 105.779C247.333 105.761 247.314 105.742 247.295 105.724C247.167 105.602 247.005 105.49 246.809 105.405C246.581 105.306 246.321 105.249 246.047 105.249M246.047 105.249C246.047 105.249 246.047 105.249 246.047 105.249ZM246.047 105.249C245.773 105.249 245.513 105.307 245.286 105.406C245.09 105.492 244.928 105.604 244.8 105.726C244.781 105.744 244.763 105.763 244.745 105.781C244.61 105.924 244.517 106.077 244.458 106.227C244.399 106.377 244.372 106.531 244.372 106.68M244.372 106.68C244.372 106.68 244.372 106.68 244.372 106.68ZM238.935 77.1957C238.657 77.075 238.343 77.0065 238.015 77.0069C237.686 77.0072 237.373 77.0763 237.096 77.1974C236.821 77.3178 236.595 77.4832 236.421 77.6666C236.248 77.8493 236.125 78.0508 236.045 78.2538C235.966 78.4566 235.928 78.6663 235.928 78.8729C235.928 79.0795 235.967 79.2891 236.046 79.4919C236.126 79.6946 236.25 79.8961 236.424 80.0788C236.778 80.4508 237.341 80.7366 238.02 80.7359C238.698 80.7352 239.26 80.4483 239.613 80.0762C239.957 79.7129 240.107 79.2758 240.107 78.8699C240.106 78.4641 239.956 78.027 239.61 77.6639C239.436 77.4805 239.21 77.3155 238.935 77.1957ZM246.966 77.1957C246.689 77.075 246.375 77.0065 246.046 77.0069C245.718 77.0072 245.404 77.0763 245.127 77.1974C244.852 77.3178 244.627 77.4832 244.453 77.6666C244.28 77.8493 244.157 78.0508 244.077 78.2538C243.997 78.4569 243.959 78.6666 243.959 78.8729C243.959 79.0792 243.998 79.2889 244.078 79.4919C244.158 79.6949 244.282 79.8963 244.456 80.0788C244.809 80.4508 245.372 80.7366 246.051 80.7359C246.73 80.7352 247.292 80.4484 247.644 80.0762C247.989 79.7128 248.139 79.2757 248.138 78.8699C248.138 78.4641 247.987 78.027 247.642 77.6639C247.468 77.4807 247.242 77.3156 246.966 77.1957ZM239.611 49.8561C239.257 49.4842 238.694 49.1989 238.016 49.1992C237.338 49.1996 236.776 49.4853 236.423 49.8574C236.078 50.2207 235.928 50.6582 235.928 51.0645C235.928 51.4709 236.079 51.9083 236.424 52.2714C236.599 52.4546 236.824 52.6195 237.1 52.7394C237.377 52.86 237.691 52.9284 238.019 52.9282C238.347 52.9281 238.66 52.8594 238.937 52.7385C239.212 52.6184 239.438 52.4533 239.612 52.27C239.786 52.0873 239.909 51.8858 239.989 51.6827C240.069 51.4794 240.107 51.2695 240.107 51.063C240.107 50.8564 240.069 50.6465 239.988 50.4433C239.908 50.2402 239.784 50.0387 239.611 49.8561ZM247.642 49.8561C247.288 49.4841 246.725 49.1989 246.047 49.1992C245.369 49.1996 244.807 49.4853 244.454 49.8574C244.109 50.2207 243.959 50.6582 243.959 51.0645C243.959 51.4709 244.11 51.9083 244.455 52.2714C244.63 52.4546 244.855 52.6195 245.131 52.7394C245.408 52.86 245.722 52.9284 246.05 52.9282C246.378 52.9281 246.691 52.8594 246.968 52.7385C247.243 52.6184 247.469 52.4533 247.643 52.27C247.817 52.0873 247.94 51.8858 248.02 51.6827C248.1 51.4796 248.138 51.2698 248.138 51.063C248.138 50.8561 248.1 50.6462 248.019 50.4433C247.939 50.2405 247.816 50.0389 247.642 49.8561ZM239.61 105.472C239.257 105.1 238.694 104.814 238.015 104.815C237.336 104.815 236.774 105.102 236.421 105.474C236.077 105.838 235.927 106.275 235.928 106.681C235.928 107.086 236.079 107.523 236.424 107.886C236.598 108.07 236.824 108.235 237.1 108.355C237.377 108.475 237.691 108.544 238.02 108.544C238.348 108.543 238.661 108.474 238.939 108.353C239.214 108.232 239.439 108.067 239.613 107.884C239.786 107.701 239.909 107.5 239.989 107.297C240.069 107.093 240.107 106.884 240.107 106.678C240.106 106.471 240.068 106.262 239.988 106.058C239.908 105.856 239.784 105.654 239.61 105.472ZM247.642 105.472C247.288 105.1 246.725 104.814 246.046 104.815C245.367 104.815 244.806 105.102 244.453 105.474C244.109 105.837 243.959 106.275 243.959 106.681C243.96 107.086 244.11 107.523 244.456 107.886C244.63 108.07 244.856 108.235 245.131 108.355C245.409 108.475 245.723 108.544 246.051 108.544C246.379 108.543 246.693 108.474 246.97 108.353C247.245 108.233 247.471 108.067 247.644 107.884C247.818 107.701 247.941 107.499 248.021 107.297C248.1 107.094 248.138 106.884 248.138 106.678C248.138 106.471 248.099 106.261 248.019 106.058C247.94 105.856 247.816 105.654 247.642 105.472Z" stroke="#12CA98" stroke-linecap="round" stroke-linejoin="round"/>
<path d="M152.732 118.333C152.732 118.73 153.173 119.151 153.856 119.151C154.539 119.151 154.98 118.73 154.98 118.333C154.98 117.936 154.539 117.515 153.856 117.515C153.173 117.515 152.732 117.936 152.732 118.333Z" fill="#1E1E22" stroke="#6D689D" stroke-width="0.5"/>
<path d="M147.846 111.79C147.846 111.941 147.936 112.106 148.139 112.244C148.341 112.381 148.634 112.475 148.97 112.475C149.306 112.475 149.599 112.381 149.801 112.244C150.004 112.106 150.094 111.941 150.094 111.79C150.094 111.639 150.004 111.474 149.801 111.335C149.599 111.198 149.306 111.105 148.97 111.105C148.634 111.105 148.341 111.198 148.139 111.335C147.936 111.474 147.846 111.639 147.846 111.79Z" fill="#1E1E22" stroke="#6D689D" stroke-width="0.5"/>
<path fill-rule="evenodd" clip-rule="evenodd" d="M133.227 100.89H106.703C102.308 100.89 98.7454 103.999 98.7454 107.834C98.7454 111.669 102.308 114.778 106.703 114.778H133.227C137.622 114.778 141.185 111.669 141.185 107.834C141.185 103.999 137.622 100.89 133.227 100.89Z" fill="url(#paint8_linear_603_9519)" stroke="url(#paint9_linear_603_9519)" stroke-width="0.5" stroke-linecap="round" stroke-linejoin="round"/>
<path d="M119.813 108.195H133.247" stroke="#7F51A5" stroke-width="0.5" stroke-linecap="round" stroke-linejoin="round"/>
<mask id="path-25-outside-1_603_9519" maskUnits="userSpaceOnUse" x="105.684" y="106.91" width="8" height="3" fill="black">
<rect fill="white" x="105.684" y="106.91" width="8" height="3"/>
<path d="M106.9 107.949C106.924 107.974 106.938 108.008 106.938 108.044C106.938 108.079 106.924 108.113 106.901 108.138C106.877 108.163 106.845 108.177 106.811 108.177C106.777 108.177 106.745 108.163 106.721 108.138C106.71 108.126 106.7 108.111 106.694 108.095C106.687 108.079 106.684 108.061 106.684 108.044C106.684 108.026 106.687 108.009 106.694 107.993C106.7 107.976 106.709 107.962 106.721 107.949C106.733 107.937 106.747 107.927 106.762 107.92C106.778 107.914 106.794 107.91 106.811 107.91C106.827 107.91 106.844 107.914 106.859 107.92C106.875 107.927 106.889 107.937 106.9 107.949ZM111.837 107.949C111.861 107.974 111.874 108.008 111.875 108.044C111.875 108.079 111.861 108.113 111.837 108.138C111.814 108.163 111.781 108.177 111.748 108.177C111.714 108.177 111.682 108.163 111.658 108.138C111.646 108.126 111.637 108.111 111.631 108.095C111.624 108.079 111.621 108.061 111.621 108.044C111.621 108.026 111.624 108.009 111.631 107.993C111.637 107.976 111.646 107.962 111.658 107.949C111.67 107.937 111.684 107.927 111.699 107.92C111.714 107.914 111.731 107.91 111.748 107.91C111.764 107.91 111.781 107.914 111.796 107.92C111.812 107.927 111.826 107.937 111.837 107.949Z"/>
</mask>
<path d="M106.9 107.949C106.924 107.974 106.938 108.008 106.938 108.044C106.938 108.079 106.924 108.113 106.901 108.138C106.877 108.163 106.845 108.177 106.811 108.177C106.777 108.177 106.745 108.163 106.721 108.138C106.71 108.126 106.7 108.111 106.694 108.095C106.687 108.079 106.684 108.061 106.684 108.044C106.684 108.026 106.687 108.009 106.694 107.993C106.7 107.976 106.709 107.962 106.721 107.949C106.733 107.937 106.747 107.927 106.762 107.92C106.778 107.914 106.794 107.91 106.811 107.91C106.827 107.91 106.844 107.914 106.859 107.92C106.875 107.927 106.889 107.937 106.9 107.949ZM111.837 107.949C111.861 107.974 111.874 108.008 111.875 108.044C111.875 108.079 111.861 108.113 111.837 108.138C111.814 108.163 111.781 108.177 111.748 108.177C111.714 108.177 111.682 108.163 111.658 108.138C111.646 108.126 111.637 108.111 111.631 108.095C111.624 108.079 111.621 108.061 111.621 108.044C111.621 108.026 111.624 108.009 111.631 107.993C111.637 107.976 111.646 107.962 111.658 107.949C111.67 107.937 111.684 107.927 111.699 107.92C111.714 107.914 111.731 107.91 111.748 107.91C111.764 107.91 111.781 107.914 111.796 107.92C111.812 107.927 111.826 107.937 111.837 107.949Z" fill="black"/>
<path d="M106.9 107.949L106.176 108.638L106.9 107.949ZM106.721 108.138L105.997 108.827L106.721 108.138ZM111.837 107.949L111.113 108.638L111.837 107.949ZM111.658 108.138L110.934 108.827L111.658 108.138ZM106.176 108.638C106.018 108.473 105.938 108.258 105.938 108.044L107.938 108.043C107.937 107.758 107.83 107.476 107.625 107.26L106.176 108.638ZM105.938 108.044C105.937 107.831 106.017 107.616 106.175 107.45L107.626 108.826C107.831 108.61 107.938 108.327 107.938 108.043L105.938 108.044ZM106.175 107.45C106.334 107.282 106.561 107.177 106.81 107.177L106.812 109.177C107.128 109.177 107.42 109.044 107.626 108.826L106.175 107.45ZM106.81 107.177C107.059 107.177 107.286 107.281 107.446 107.449L105.997 108.827C106.204 109.045 106.496 109.178 106.812 109.177L106.81 107.177ZM107.446 107.449C107.524 107.532 107.584 107.627 107.624 107.728L105.764 108.462C105.816 108.595 105.895 108.72 105.997 108.827L107.446 107.449ZM107.624 107.728C107.664 107.829 107.684 107.936 107.684 108.043L105.684 108.045C105.684 108.187 105.711 108.328 105.764 108.462L107.624 107.728ZM107.684 108.043C107.684 108.15 107.664 108.257 107.625 108.358L105.763 107.628C105.71 107.761 105.684 107.903 105.684 108.045L107.684 108.043ZM107.625 108.358C107.585 108.459 107.525 108.555 107.447 108.637L105.995 107.261C105.894 107.369 105.815 107.494 105.763 107.628L107.625 108.358ZM107.447 108.637C107.368 108.72 107.272 108.789 107.163 108.837L106.362 107.004C106.221 107.066 106.097 107.154 105.995 107.261L107.447 108.637ZM107.163 108.837C107.053 108.884 106.934 108.91 106.812 108.91L106.81 106.91C106.654 106.91 106.502 106.943 106.362 107.004L107.163 108.837ZM106.812 108.91C106.69 108.91 106.57 108.885 106.46 108.837L107.258 107.003C107.118 106.942 106.965 106.91 106.81 106.91L106.812 108.91ZM106.46 108.837C106.351 108.79 106.255 108.721 106.176 108.638L107.625 107.26C107.523 107.152 107.398 107.064 107.258 107.003L106.46 108.837ZM111.113 108.638C110.955 108.473 110.875 108.258 110.875 108.044L112.875 108.043C112.874 107.758 112.767 107.476 112.562 107.26L111.113 108.638ZM110.875 108.044C110.874 107.831 110.954 107.616 111.112 107.45L112.563 108.826C112.768 108.61 112.875 108.327 112.875 108.043L110.875 108.044ZM111.112 107.45C111.271 107.282 111.498 107.177 111.747 107.177L111.749 109.177C112.065 109.177 112.357 109.044 112.563 108.826L111.112 107.45ZM111.747 107.177C111.996 107.177 112.223 107.281 112.383 107.449L110.934 108.827C111.141 109.045 111.433 109.178 111.749 109.177L111.747 107.177ZM112.383 107.449C112.461 107.531 112.521 107.627 112.561 107.728L110.7 108.462C110.753 108.596 110.832 108.72 110.934 108.827L112.383 107.449ZM112.561 107.728C112.601 107.829 112.621 107.936 112.621 108.043L110.621 108.045C110.621 108.186 110.648 108.328 110.7 108.462L112.561 107.728ZM112.621 108.043C112.621 108.15 112.601 108.256 112.561 108.358L110.7 107.628C110.647 107.761 110.621 107.903 110.621 108.045L112.621 108.043ZM112.561 108.358C112.522 108.459 112.462 108.555 112.384 108.637L110.932 107.261C110.83 107.369 110.752 107.494 110.7 107.628L112.561 108.358ZM112.384 108.637C112.305 108.72 112.209 108.789 112.1 108.837L111.298 107.004C111.158 107.066 111.034 107.154 110.932 107.261L112.384 108.637ZM112.1 108.837C111.99 108.884 111.871 108.91 111.749 108.91L111.747 106.91C111.591 106.91 111.439 106.943 111.298 107.004L112.1 108.837ZM111.749 108.91C111.627 108.91 111.507 108.885 111.397 108.837L112.195 107.003C112.055 106.942 111.902 106.91 111.747 106.91L111.749 108.91ZM111.397 108.837C111.288 108.79 111.191 108.721 111.113 108.638L112.562 107.26C112.46 107.152 112.335 107.064 112.195 107.003L111.397 108.837Z" fill="#7F51A5" mask="url(#path-25-outside-1_603_9519)"/>
<path fill-rule="evenodd" clip-rule="evenodd" d="M133.227 83.8838H106.703C102.308 83.8838 98.7454 86.9923 98.7454 90.8277C98.7454 94.6631 102.308 97.7717 106.703 97.7717H133.227C137.622 97.7717 141.185 94.6631 141.185 90.8277C141.185 86.9923 137.622 83.8838 133.227 83.8838Z" fill="url(#paint10_linear_603_9519)" stroke="url(#paint11_linear_603_9519)" stroke-width="0.5" stroke-linecap="round" stroke-linejoin="round"/>
<path d="M119.813 90.8164H133.247" stroke="#7F51A5" stroke-width="0.5" stroke-linecap="round" stroke-linejoin="round"/>
<mask id="path-29-outside-2_603_9519" maskUnits="userSpaceOnUse" x="105.684" y="89.8164" width="8" height="3" fill="black">
<rect fill="white" x="105.684" y="89.8164" width="8" height="3"/>
<path d="M106.901 90.8555C106.913 90.8679 106.922 90.8826 106.928 90.8988C106.935 90.915 106.938 90.9323 106.938 90.9499C106.938 90.9674 106.935 90.9848 106.928 91.001C106.922 91.0172 106.913 91.0319 106.901 91.0443C106.889 91.0567 106.875 91.0666 106.86 91.0733C106.844 91.08 106.828 91.0835 106.811 91.0835C106.794 91.0835 106.778 91.08 106.763 91.0733C106.747 91.0666 106.733 91.0568 106.721 91.0444C106.697 91.0194 106.684 90.9854 106.684 90.95C106.684 90.9146 106.697 90.8806 106.721 90.8556C106.745 90.8305 106.777 90.8164 106.811 90.8164C106.845 90.8164 106.877 90.8304 106.901 90.8555ZM111.837 90.8555C111.849 90.8679 111.858 90.8826 111.865 90.8988C111.871 90.915 111.875 90.9323 111.875 90.9499C111.875 90.9674 111.871 90.9848 111.865 91.001C111.859 91.0172 111.849 91.0319 111.837 91.0443C111.826 91.0567 111.812 91.0666 111.796 91.0733C111.781 91.08 111.764 91.0835 111.748 91.0835C111.731 91.0835 111.714 91.08 111.699 91.0733C111.684 91.0666 111.67 91.0568 111.658 91.0444C111.634 91.0194 111.621 90.9854 111.621 90.95C111.621 90.9146 111.634 90.8806 111.658 90.8556C111.682 90.8305 111.714 90.8164 111.747 90.8164C111.781 90.8164 111.813 90.8304 111.837 90.8555Z"/>
</mask>
<path d="M106.901 90.8555C106.913 90.8679 106.922 90.8826 106.928 90.8988C106.935 90.915 106.938 90.9323 106.938 90.9499C106.938 90.9674 106.935 90.9848 106.928 91.001C106.922 91.0172 106.913 91.0319 106.901 91.0443C106.889 91.0567 106.875 91.0666 106.86 91.0733C106.844 91.08 106.828 91.0835 106.811 91.0835C106.794 91.0835 106.778 91.08 106.763 91.0733C106.747 91.0666 106.733 91.0568 106.721 91.0444C106.697 91.0194 106.684 90.9854 106.684 90.95C106.684 90.9146 106.697 90.8806 106.721 90.8556C106.745 90.8305 106.777 90.8164 106.811 90.8164C106.845 90.8164 106.877 90.8304 106.901 90.8555ZM111.837 90.8555C111.849 90.8679 111.858 90.8826 111.865 90.8988C111.871 90.915 111.875 90.9323 111.875 90.9499C111.875 90.9674 111.871 90.9848 111.865 91.001C111.859 91.0172 111.849 91.0319 111.837 91.0443C111.826 91.0567 111.812 91.0666 111.796 91.0733C111.781 91.08 111.764 91.0835 111.748 91.0835C111.731 91.0835 111.714 91.08 111.699 91.0733C111.684 91.0666 111.67 91.0568 111.658 91.0444C111.634 91.0194 111.621 90.9854 111.621 90.95C111.621 90.9146 111.634 90.8806 111.658 90.8556C111.682 90.8305 111.714 90.8164 111.747 90.8164C111.781 90.8164 111.813 90.8304 111.837 90.8555Z" fill="black"/>
<path d="M106.901 90.8555L106.176 91.5449H106.176L106.901 90.8555ZM106.721 91.0444L105.997 91.7338L106.721 91.0444ZM111.837 90.8555L111.113 91.5449L111.837 90.8555ZM111.658 91.0444L110.933 91.7338L111.658 91.0444ZM106.176 91.5449C106.098 91.4624 106.038 91.3672 105.998 91.2657L107.859 90.5319C107.806 90.398 107.727 90.2733 107.625 90.1661L106.176 91.5449ZM105.998 91.2657C105.958 91.1642 105.938 91.0572 105.938 90.9503L107.938 90.9494C107.938 90.8075 107.911 90.6658 107.859 90.5319L105.998 91.2657ZM105.938 90.9503C105.938 90.8435 105.958 90.7365 105.998 90.635L107.859 91.367C107.912 91.2331 107.938 91.0913 107.938 90.9494L105.938 90.9503ZM105.998 90.635C106.038 90.5335 106.097 90.4381 106.176 90.3556L107.626 91.7331C107.728 91.6257 107.806 91.5009 107.859 91.367L105.998 90.635ZM106.176 90.3556C106.254 90.2729 106.35 90.2044 106.46 90.1567L107.26 91.9899C107.4 91.9287 107.524 91.8406 107.626 91.7331L106.176 90.3556ZM106.46 90.1567C106.569 90.1089 106.689 90.0835 106.811 90.0835L106.812 92.0835C106.967 92.0834 107.119 92.0511 107.26 91.9899L106.46 90.1567ZM106.811 90.0835C106.932 90.0834 107.052 90.1087 107.161 90.1564L106.364 91.9903C106.504 92.0514 106.656 92.0836 106.812 92.0835L106.811 90.0835ZM107.161 90.1564C107.271 90.204 107.367 90.2724 107.446 90.355L105.997 91.7338C106.099 91.8413 106.223 91.9293 106.364 91.9903L107.161 90.1564ZM107.446 90.355C107.604 90.5208 107.684 90.7356 107.684 90.9496L105.684 90.9505C105.684 91.2353 105.791 91.5179 105.997 91.7338L107.446 90.355ZM107.684 90.9496C107.684 91.1635 107.604 91.3783 107.446 91.5443L105.996 90.1668C105.791 90.383 105.684 90.6657 105.684 90.9505L107.684 90.9496ZM107.446 91.5443C107.287 91.712 107.06 91.8163 106.811 91.8164L106.81 89.8164C106.495 89.8166 106.203 89.949 105.996 90.1668L107.446 91.5443ZM106.811 91.8164C106.563 91.8165 106.336 91.7124 106.176 91.5449L107.625 90.1661C107.418 89.9484 107.126 89.8162 106.81 89.8164L106.811 91.8164ZM111.113 91.5449C111.034 91.4623 110.975 91.367 110.935 91.2657L112.795 90.5319C112.742 90.3982 112.664 90.2734 112.562 90.1661L111.113 91.5449ZM110.935 91.2657C110.895 91.1644 110.875 91.0574 110.875 90.9503L112.875 90.9494C112.874 90.8073 112.848 90.6656 112.795 90.5319L110.935 91.2657ZM110.875 90.9503C110.874 90.8433 110.894 90.7363 110.934 90.635L112.795 91.367C112.848 91.2333 112.875 91.0915 112.875 90.9494L110.875 90.9503ZM110.934 90.635C110.974 90.5335 111.034 90.4381 111.112 90.3556L112.562 91.7331C112.664 91.6257 112.743 91.5009 112.795 91.367L110.934 90.635ZM111.112 90.3556C111.191 90.2729 111.287 90.2044 111.396 90.1567L112.196 91.9899C112.336 91.9287 112.46 91.8406 112.562 91.7331L111.112 90.3556ZM111.396 90.1567C111.506 90.1089 111.625 90.0835 111.747 90.0835L111.748 92.0835C111.903 92.0834 112.056 92.0511 112.196 91.9899L111.396 90.1567ZM111.747 90.0835C111.869 90.0834 111.988 90.1087 112.098 90.1564L111.3 91.9903C111.44 92.0514 111.593 92.0836 111.748 92.0835L111.747 90.0835ZM112.098 90.1564C112.207 90.204 112.304 90.2724 112.382 90.355L110.933 91.7338C111.036 91.8413 111.16 91.9293 111.3 91.9903L112.098 90.1564ZM112.382 90.355C112.54 90.5208 112.62 90.7356 112.621 90.9496L110.621 90.9505C110.621 91.2353 110.728 91.5179 110.933 91.7338L112.382 90.355ZM112.621 90.9496C112.621 91.1635 112.54 91.3783 112.383 91.5443L110.933 90.1668C110.727 90.383 110.62 90.6657 110.621 90.9505L112.621 90.9496ZM112.383 91.5443C112.223 91.712 111.996 91.8163 111.748 91.8164L111.747 89.8164C111.431 89.8166 111.14 89.949 110.933 90.1668L112.383 91.5443ZM111.748 91.8164C111.5 91.8165 111.272 91.7125 111.113 91.5449L112.562 90.1661C112.355 89.9484 112.063 89.8162 111.747 89.8164L111.748 91.8164Z" fill="#7F51A5" mask="url(#path-29-outside-2_603_9519)"/>
<path fill-rule="evenodd" clip-rule="evenodd" d="M133.227 117.894H106.703C102.308 117.894 98.7454 121.003 98.7454 124.838C98.7454 128.673 102.308 131.782 106.703 131.782H133.227C137.622 131.782 141.185 128.673 141.185 124.838C141.185 121.003 137.622 117.894 133.227 117.894Z" fill="url(#paint12_linear_603_9519)" stroke="url(#paint13_linear_603_9519)" stroke-width="0.5" stroke-linecap="round" stroke-linejoin="round"/>
<path d="M119.813 125.293H133.247" stroke="#7F51A5" stroke-width="0.5" stroke-linecap="round" stroke-linejoin="round"/>
<mask id="path-33-outside-3_603_9519" maskUnits="userSpaceOnUse" x="105.684" y="124.005" width="8" height="3" fill="black">
<rect fill="white" x="105.684" y="124.005" width="8" height="3"/>
<path d="M106.9 125.044C106.912 125.057 106.922 125.071 106.928 125.088C106.934 125.104 106.938 125.121 106.938 125.139C106.938 125.156 106.934 125.174 106.928 125.19C106.922 125.206 106.912 125.221 106.901 125.233C106.889 125.246 106.875 125.256 106.86 125.262C106.844 125.269 106.828 125.272 106.811 125.272C106.794 125.272 106.778 125.269 106.762 125.262C106.747 125.256 106.733 125.246 106.721 125.233C106.698 125.208 106.684 125.174 106.684 125.139C106.684 125.104 106.697 125.07 106.721 125.045C106.745 125.02 106.777 125.005 106.811 125.005C106.844 125.005 106.877 125.019 106.9 125.044ZM111.837 125.044C111.849 125.057 111.858 125.071 111.865 125.088C111.871 125.104 111.875 125.121 111.875 125.139C111.875 125.156 111.871 125.174 111.865 125.19C111.859 125.206 111.849 125.221 111.837 125.233C111.826 125.246 111.812 125.256 111.796 125.262C111.781 125.269 111.764 125.272 111.748 125.272C111.731 125.272 111.715 125.269 111.699 125.262C111.684 125.256 111.67 125.246 111.658 125.233C111.634 125.208 111.621 125.174 111.621 125.139C111.621 125.104 111.634 125.07 111.658 125.045C111.682 125.02 111.714 125.005 111.748 125.005C111.781 125.005 111.813 125.019 111.837 125.044Z"/>
</mask>
<path d="M106.9 125.044C106.912 125.057 106.922 125.071 106.928 125.088C106.934 125.104 106.938 125.121 106.938 125.139C106.938 125.156 106.934 125.174 106.928 125.19C106.922 125.206 106.912 125.221 106.901 125.233C106.889 125.246 106.875 125.256 106.86 125.262C106.844 125.269 106.828 125.272 106.811 125.272C106.794 125.272 106.778 125.269 106.762 125.262C106.747 125.256 106.733 125.246 106.721 125.233C106.698 125.208 106.684 125.174 106.684 125.139C106.684 125.104 106.697 125.07 106.721 125.045C106.745 125.02 106.777 125.005 106.811 125.005C106.844 125.005 106.877 125.019 106.9 125.044ZM111.837 125.044C111.849 125.057 111.858 125.071 111.865 125.088C111.871 125.104 111.875 125.121 111.875 125.139C111.875 125.156 111.871 125.174 111.865 125.19C111.859 125.206 111.849 125.221 111.837 125.233C111.826 125.246 111.812 125.256 111.796 125.262C111.781 125.269 111.764 125.272 111.748 125.272C111.731 125.272 111.715 125.269 111.699 125.262C111.684 125.256 111.67 125.246 111.658 125.233C111.634 125.208 111.621 125.174 111.621 125.139C111.621 125.104 111.634 125.07 111.658 125.045C111.682 125.02 111.714 125.005 111.748 125.005C111.781 125.005 111.813 125.019 111.837 125.044Z" fill="black"/>
<path d="M106.9 125.044L106.176 125.734L106.176 125.734L106.9 125.044ZM106.721 125.233L107.446 124.544L106.721 125.233ZM111.837 125.044L111.113 125.734V125.734L111.837 125.044ZM111.658 125.233L112.383 124.544L111.658 125.233ZM106.176 125.734C106.098 125.651 106.038 125.556 105.998 125.455L107.858 124.721C107.805 124.587 107.727 124.462 107.625 124.355L106.176 125.734ZM105.998 125.455C105.958 125.353 105.938 125.246 105.938 125.14L107.938 125.138C107.938 124.996 107.911 124.855 107.858 124.721L105.998 125.455ZM105.938 125.14C105.938 125.033 105.957 124.926 105.997 124.825L107.859 125.555C107.912 125.421 107.938 125.28 107.938 125.138L105.938 125.14ZM105.997 124.825C106.037 124.723 106.097 124.628 106.175 124.545L107.626 125.921C107.728 125.814 107.806 125.689 107.859 125.555L105.997 124.825ZM106.175 124.545C106.253 124.463 106.349 124.394 106.459 124.346L107.26 126.178C107.401 126.117 107.525 126.029 107.626 125.921L106.175 124.545ZM106.459 124.346C106.569 124.298 106.688 124.273 106.81 124.272L106.812 126.272C106.967 126.272 107.12 126.24 107.26 126.178L106.459 124.346ZM106.81 124.272C106.932 124.272 107.052 124.298 107.161 124.345L106.364 126.179C106.504 126.24 106.657 126.273 106.812 126.272L106.81 124.272ZM107.161 124.345C107.271 124.393 107.367 124.461 107.446 124.544L105.997 125.923C106.099 126.03 106.223 126.118 106.364 126.179L107.161 124.345ZM107.446 124.544C107.604 124.71 107.684 124.925 107.684 125.138L105.684 125.14C105.684 125.424 105.791 125.707 105.997 125.923L107.446 124.544ZM107.684 125.138C107.684 125.352 107.604 125.566 107.447 125.732L105.995 124.357C105.79 124.573 105.684 124.856 105.684 125.14L107.684 125.138ZM107.447 125.732C107.288 125.9 107.061 126.005 106.812 126.005L106.81 124.005C106.494 124.006 106.202 124.139 105.995 124.357L107.447 125.732ZM106.812 126.005C106.563 126.006 106.335 125.901 106.176 125.734L107.625 124.355C107.418 124.137 107.126 124.005 106.81 124.005L106.812 126.005ZM111.113 125.734C111.034 125.651 110.974 125.556 110.935 125.455L112.795 124.721C112.742 124.587 112.664 124.462 112.562 124.355L111.113 125.734ZM110.935 125.455C110.895 125.353 110.875 125.247 110.875 125.14L112.875 125.138C112.874 124.996 112.848 124.854 112.795 124.721L110.935 125.455ZM110.875 125.14C110.874 125.033 110.894 124.926 110.934 124.825L112.796 125.555C112.848 125.421 112.875 125.28 112.875 125.138L110.875 125.14ZM110.934 124.825C110.974 124.723 111.033 124.628 111.112 124.545L112.563 125.921C112.665 125.814 112.743 125.689 112.796 125.555L110.934 124.825ZM111.112 124.545C111.19 124.463 111.286 124.394 111.396 124.346L112.197 126.178C112.337 126.117 112.461 126.029 112.563 125.921L111.112 124.545ZM111.396 124.346C111.505 124.298 111.625 124.273 111.747 124.272L111.749 126.272C111.904 126.272 112.057 126.24 112.197 126.178L111.396 124.346ZM111.747 124.272C111.869 124.272 111.989 124.298 112.098 124.345L111.3 126.179C111.441 126.24 111.593 126.273 111.749 126.272L111.747 124.272ZM112.098 124.345C112.208 124.393 112.304 124.461 112.383 124.544L110.934 125.923C111.036 126.03 111.16 126.118 111.3 126.179L112.098 124.345ZM112.383 124.544C112.54 124.71 112.621 124.925 112.621 125.138L110.621 125.14C110.621 125.424 110.728 125.707 110.934 125.923L112.383 124.544ZM112.621 125.138C112.621 125.352 112.541 125.566 112.384 125.732L110.932 124.357C110.727 124.573 110.621 124.855 110.621 125.14L112.621 125.138ZM112.384 125.732C112.225 125.9 111.997 126.005 111.749 126.005L111.747 124.005C111.431 124.006 111.139 124.139 110.932 124.357L112.384 125.732ZM111.749 126.005C111.5 126.006 111.272 125.901 111.113 125.734L112.562 124.355C112.355 124.137 112.063 124.005 111.747 124.005L111.749 126.005Z" fill="#7F51A5" mask="url(#path-33-outside-3_603_9519)"/>
<path d="M25.0766 70.5433C24.7677 70.8135 24.3423 70.97 23.893 70.97C23.4436 70.97 23.0183 70.8135 22.7094 70.5433C22.4015 70.2741 22.2363 69.9166 22.2363 69.5522C22.2363 69.1878 22.4015 68.8303 22.7094 68.561C23.0183 68.2908 23.4436 68.1344 23.893 68.1344C24.3423 68.1344 24.7677 68.2908 25.0766 68.561C25.3844 68.8303 25.5496 69.1878 25.5496 69.5522C25.5496 69.9166 25.3844 70.2741 25.0766 70.5433ZM32.1763 70.8649C31.9694 70.9372 31.7473 70.9732 31.523 70.97C31.0783 70.9637 30.66 70.8046 30.3568 70.5351C30.0548 70.2666 29.8929 69.9125 29.8929 69.5518C29.8929 69.191 30.0548 68.8369 30.3568 68.5684C30.66 68.2989 31.0783 68.1398 31.523 68.1335C31.7473 68.1303 31.9694 68.1663 32.1763 68.2387C32.3831 68.311 32.5694 68.418 32.725 68.552C32.8806 68.6859 33.002 68.8436 33.0841 69.015C33.1661 69.1863 33.2077 69.3686 33.2077 69.5518C33.2077 69.7349 33.1661 69.9172 33.0841 70.0885C33.002 70.2599 32.8806 70.4176 32.725 70.5515C32.5694 70.6855 32.3831 70.7925 32.1763 70.8649ZM41.2267 69.552C41.2267 70.2827 40.4493 70.97 39.3582 70.97C38.2675 70.97 37.4897 70.2826 37.4897 69.552C37.4897 68.8213 38.2675 68.1339 39.3582 68.1339C40.4493 68.1339 41.2267 68.8213 41.2267 69.552Z" fill="#1E1E22" stroke="#6D689D" stroke-width="0.5"/>
<path d="M55.2907 188.905H131.572L119.442 139.229H43.1609L55.2907 188.905Z" fill="#28273A"/>
<path d="M52.4696 188.905H128.751L116.621 139.229H40.3394L52.4696 188.905Z" fill="#1E1E27"/>
<path d="M77.9534 161.186C78.3656 163.466 80.8135 165.313 83.4192 165.313C86.0255 165.313 87.8007 163.466 87.389 161.186C86.9767 158.907 84.5289 157.06 81.9231 157.06C79.3169 157.06 77.5416 158.907 77.9534 161.186Z" fill="#7F51A5"/>
<path d="M74.0417 201.88H111.561V199.328L74.0417 198.269V201.88Z" fill="#1E1E27"/>
<path d="M63.8455 201.871H83.9842L96.1145 174.039H75.9757L63.8455 201.871Z" fill="#1E1E27"/>
<path d="M60.5288 201.871H80.6741L92.8043 174.039H72.6591L60.5288 201.871Z" fill="#28273A"/>
<path d="M164.297 134.521C165.772 136.544 169.624 138.903 172.357 138.871C181.666 138.721 184.73 133.175 185.735 131.155C185.546 131.115 185.228 131.082 185.002 131.059C183.288 130.841 181.537 129.357 181.025 127.685C180.366 125.508 179.555 121.251 179.652 118.546L167.878 124.246C167.896 125.028 167.956 125.883 168.039 126.745C168.099 127.269 168.159 127.785 168.228 128.285C168.292 128.765 168.366 129.22 168.435 129.639C168.652 131.05 167.933 132.449 166.574 133.227L164.297 134.521Z" fill="#979EAA"/>
<path d="M163.284 112.351C163.92 113.81 163.653 115.467 163.008 116.922C162.551 117.95 161.537 117.043 160.275 117.063C158.321 117.091 156.796 115.314 155.616 110.602C154.865 107.143 154.676 105.389 154.828 105.055C155.367 103.857 157.146 103.217 158.611 103.104" fill="#28273A"/>
<path d="M160.312 101.989C157.233 105.234 156.113 114.365 158.713 120.726C160.56 125.248 162.708 128.167 165.215 128.074C169.022 127.933 176.399 125.196 178.8 122.91C183.127 118.795 181.869 110.724 180.975 105.646C180.164 101.03 177.694 95.0357 171.063 96.1767C166.703 96.9223 163.072 99.0748 160.312 101.989Z" fill="#979EAA"/>
<path d="M177.728 105.574C177.045 106.341 175.842 106.51 174.85 106.662C173.517 106.866 172.858 107.29 172.166 108.431C171.728 109.159 171.289 109.957 170.505 110.351C169.868 110.673 169.892 109.851 169.789 109.214C169.781 109.158 169.768 109.103 169.751 109.048C169.596 108.54 168.977 108.627 168.794 109.129C168.628 109.579 168.273 109.961 167.821 110.173C167.747 110.208 167.669 110.239 167.59 110.225C167.484 110.212 167.401 110.126 167.332 110.048C167.187 109.884 167.043 109.676 166.894 109.456C166.404 108.733 165.48 108.992 164.934 109.684C164.592 110.113 164.186 110.555 163.628 110.655C163.448 110.69 163.222 110.663 163.139 110.512C163.034 110.325 163.199 110.139 163.172 109.948C163.149 109.77 163.061 109.692 162.964 109.54C162.584 108.951 161.715 108.929 161.18 109.419C160.808 109.759 160.42 110.086 160.017 110.399C159.846 110.529 159.597 110.659 159.426 110.529C159.335 110.46 159.311 110.342 159.293 110.23C159.196 109.679 159.104 109.129 159.007 108.578C158.952 108.27 158.762 107.867 158.439 107.945C158.283 107.984 158.191 108.127 158.103 108.257C157.997 108.422 156.101 110.299 156.064 110.156C155.769 109.09 155.165 108.119 154.87 107.052C152.96 100.189 161.433 94.6706 167.904 94.6402C169.343 94.6315 170.658 94.6519 172.055 94.9421C173.545 95.2545 175.118 95.7499 176.469 96.4477C178.365 97.4231 179.799 99.1963 179.43 101.312" fill="#2A303A"/>
<path d="M174.681 103.218C173.74 104.149 173.491 105.459 173.404 106.697C173.275 108.563 173.45 110.502 174.436 112.159C174.717 112.63 174.925 114.964 175.358 114.835C175.496 114.795 175.473 112.985 175.837 112.009C176.399 110.498 178.989 109.922 180.155 110.877C182.017 112.397 180.925 114.243 180.307 115.392C179.938 116.085 179.353 116.863 179.252 117.597C179.128 118.536 179.09 121.958 179.791 122.756C180.376 123.425 180.998 120.193 181.528 119.556C185.45 114.811 189.21 102.73 182.515 100.11C181.496 99.711 178.353 99.5055 177.4 100.013M151.675 201.152C151.288 201.208 149.597 201.139 149.192 201.152C147.035 201.212 143.847 201.466 141.741 201.152C139.889 200.874 140.003 198.269 140.04 196.314C140.363 180.831 142.966 165.388 147.648 150.453C148.362 148.172 149.141 145.874 150.51 143.834C152.846 140.356 158.21 137.353 162.325 135.668C162.906 135.43 165.311 136.768 165.897 136.538C166.408 136.337 166.86 136.022 167.376 135.825C168.887 135.248 169.901 136.454 171.164 136.958C171.818 137.216 172.547 137.381 173.265 137.353C173.85 137.333 174.38 137.022 174.915 137.264C177.321 138.352 183.293 130.274 183.293 130.274L185.887 132.632L193.459 139.57L212.38 162.373C212.38 162.373 215.813 181.061 218.173 193.311C218.583 195.424 220.205 199.991 220.528 201.591C220.459 201.244 204.376 201.152 203.509 201.152H170.731C168.892 201.152 163.948 201.833 162.657 200.652C161.068 199.201 159.229 192.541 159.132 190.675C158.814 184.399 159.307 178.171 159.404 171.858C159.362 174.426 158.519 176.748 158.159 179.263C157.694 182.5 157.03 185.733 156.431 188.954C155.952 191.541 155.491 194.138 155.123 196.741C154.957 197.915 155.169 198.612 154.035 199.072C153.081 199.454 152.79 200.987 151.675 201.152Z" fill="#2A303A"/>
<path d="M144.554 201.999H170.769C173.008 201.999 169.767 196.428 161.606 194.289C153.441 192.15 141.98 199.909 144.554 201.999Z" fill="#979EAA"/>
<path d="M154.841 202C154.67 201.387 154.437 200.797 154.184 200.222C153.927 199.649 153.615 199.095 153.251 198.568C152.903 198.034 152.465 197.557 151.988 197.106L151.618 196.775L151.214 196.474C150.961 196.252 150.643 196.11 150.363 195.903C151.021 196.147 151.687 196.448 152.22 196.895C152.772 197.321 153.243 197.821 153.617 198.376C154.369 199.474 154.816 200.733 154.841 202Z" fill="#28273A"/>
<path d="M151.734 196.693C151.023 197.031 150.319 197.381 149.624 197.742C148.932 198.107 148.249 198.475 147.6 198.885C146.946 199.287 146.324 199.727 145.773 200.227C145.236 200.731 144.746 201.299 144.553 201.994C144.574 201.268 145 200.588 145.52 200.032C146.048 199.468 146.68 198.998 147.346 198.577C148.696 197.757 150.174 197.114 151.734 196.693Z" fill="#28273A"/>
<path d="M157.873 193.896C158.749 193.581 164.154 192.408 166.592 191.965C167.868 191.735 173.656 190.421 174.997 190.421C176.338 190.421 178.163 192.098 178.163 192.098L177.679 197.866C176.389 197.753 174.661 198.338 173.734 198.451C172.808 198.564 169.661 198.58 167.725 197.729C167.615 197.681 167.514 197.628 167.412 197.576C166.633 198.181 165.656 198.769 164.574 198.817C164.574 198.817 163.726 198.741 163.809 198.443C163.845 198.297 164.408 197.548 164.969 196.814C164.14 197.552 162.785 198.749 161.223 198.817C161.223 198.817 160.375 198.741 160.458 198.443C160.504 198.265 161.315 197.205 161.97 196.363C161.96 196.371 161.946 196.375 161.942 196.383C161.255 196.911 159.624 198.733 157.693 198.817C157.693 198.817 156.845 198.741 156.928 198.443C156.956 198.334 157.278 197.886 157.67 197.366C157.099 197.75 156.486 198.085 155.841 198.366C153.753 199.269 152.564 198.584 152.564 198.366C152.559 198.144 156.997 194.21 157.873 193.896Z" fill="#979EAA"/>
<path d="M176.67 187.193C176.67 187.193 173.306 188.862 173.606 192.409C173.905 195.957 175.122 200.068 180.2 199.637C185.278 199.21 176.67 187.193 176.67 187.193Z" fill="#28273A"/>
<path d="M179.381 199.284C191.556 202.98 207.846 199.449 218.173 193.31C224.643 189.472 228.772 184.599 228.076 179.838C226.274 167.471 215.164 139.125 205.551 134.989C199.017 132.176 191.09 131.011 186.671 130.543C184.597 130.321 183.302 130.269 183.302 130.269L184.906 134.227L192.933 154.028C193.233 165.778 202.846 172.756 200.934 175.493C199.021 178.222 183.92 181.168 175.989 185.84C173.796 187.138 171.012 196.527 179.381 199.284Z" fill="#2A303A"/>
<path d="M192.934 154.029C192.925 156.258 193.279 158.492 193.943 160.652C194.611 162.813 195.588 164.897 196.721 166.904C197.29 167.904 197.888 168.891 198.514 169.863C199.127 170.839 199.758 171.806 200.274 172.798C200.528 173.293 200.749 173.805 200.837 174.309C200.86 174.555 200.883 174.809 200.804 175.023C200.786 175.14 200.708 175.228 200.662 175.333C200.574 175.426 200.514 175.526 200.404 175.615C199.579 176.337 198.399 176.825 197.279 177.296C192.68 179.13 187.795 180.489 183.141 182.319C180.814 183.234 178.51 184.221 176.367 185.455L175.971 185.689C175.837 185.77 175.712 185.874 175.584 185.967C175.344 186.172 175.137 186.398 174.971 186.644C174.63 187.132 174.399 187.664 174.219 188.204C173.879 189.289 173.736 190.405 173.727 191.522C173.81 190.413 174.021 189.305 174.395 188.253C174.791 187.209 175.404 186.193 176.551 185.705C178.703 184.536 181.012 183.605 183.353 182.746C185.699 181.9 188.072 181.097 190.454 180.319C192.837 179.529 195.233 178.776 197.574 177.84C198.726 177.34 199.91 176.869 200.892 176.002C201.017 175.897 201.118 175.752 201.224 175.627C201.302 175.474 201.408 175.329 201.436 175.168C201.547 174.845 201.51 174.527 201.478 174.225C201.367 173.628 201.118 173.088 200.851 172.572C200.302 171.54 199.662 170.577 199.04 169.605C198.417 168.634 197.791 167.67 197.196 166.69C194.823 162.789 193.173 158.495 192.934 154.029Z" fill="#0D0D0D"/>
<path d="M161.381 136.05C162.542 137.058 167.713 140.279 172.644 140.279C173.464 140.279 174.33 140.214 175.247 140.065C179.386 139.404 182.869 136.989 184.906 134.224C185.278 133.715 185.606 133.183 185.888 132.632C186.245 131.966 186.508 131.265 186.671 130.544C184.598 130.322 182.616 129.867 182.293 129.544C181.943 131.657 178.962 135.47 174.446 136.187C173.914 136.274 173.374 136.321 172.833 136.329H172.823C171.111 136.361 169.424 135.959 167.966 135.172C167.957 135.172 165.805 133.688 165.796 133.68L161.381 136.05Z" fill="#28273A"/>
<path d="M158.136 182.1C158.149 181.903 158.119 181.708 158.128 181.51C158.137 181.297 158.164 181.088 158.182 180.875L158.316 179.655C158.402 178.823 158.488 177.991 158.56 177.159C158.703 175.511 158.8 173.856 158.851 172.203C158.948 168.898 158.894 165.584 158.639 162.285C158.57 161.362 158.481 160.441 158.384 159.519C158.33 159.047 158.274 158.574 158.216 158.102C158.159 157.639 158.073 157.179 158.066 156.71C158.062 156.419 158.561 156.399 158.636 156.669C158.857 157.471 158.889 158.333 158.984 159.153C159.074 159.977 159.155 160.801 159.227 161.628C159.364 163.294 159.455 164.962 159.5 166.632C159.582 169.955 159.447 173.278 159.122 176.594C159.03 177.526 158.925 178.453 158.795 179.38C158.73 179.852 158.659 180.323 158.58 180.794C158.544 181.002 158.512 181.211 158.466 181.414C158.409 181.654 158.307 181.875 158.25 182.114C158.219 182.169 158.128 182.149 158.136 182.1Z" fill="#0D0D0D"/>
<path d="M159.195 117.771C159.164 117.771 159.078 117.723 159.15 117.723C159.186 117.723 159.266 117.771 159.195 117.771Z" fill="#CC6144"/>
<path d="M42.0357 89.4284L36.7383 94.0575L34.1648 91.8129M53.5123 87.2129H69.1683M53.6345 94.0071H79.5248M42.0357 105.281L36.7383 109.91L34.1648 107.666M53.5123 103.066H69.1683M53.6345 109.86H79.5248M79.5243 125.713H53.5123M79.5248 118.919H53.6345" stroke="#6D689D" stroke-width="0.5" stroke-linecap="round" stroke-linejoin="round"/>
<path d="M38.1004 127.982C40.96 127.982 43.2781 125.954 43.2781 123.453C43.2781 120.951 40.96 118.923 38.1004 118.923C35.2403 118.923 32.9221 120.951 32.9221 123.453C32.9221 125.954 35.2403 127.982 38.1004 127.982Z" stroke="#6D689D" stroke-width="0.5" stroke-linecap="round" stroke-linejoin="round"/>
<path d="M265.292 155.617L256.499 163.309C256.179 163.589 256.179 164.043 256.499 164.323C256.819 164.603 257.339 164.603 257.659 164.323L266.452 156.632C266.772 156.352 266.772 155.897 266.452 155.617C266.131 155.337 265.612 155.337 265.292 155.617Z" fill="#7F51A5" stroke="#6D689D" stroke-width="0.5"/>
<path d="M264.431 161.128L261.895 163.346C261.575 163.626 261.575 164.08 261.895 164.36C262.215 164.64 262.734 164.64 263.055 164.36L265.59 162.142C265.911 161.862 265.911 161.408 265.59 161.128C265.27 160.848 264.751 160.848 264.431 161.128Z" fill="#7F51A5" stroke="#6D689D" stroke-width="0.5"/>
<path d="M263.918 150.81C265.536 151.474 265.26 153.567 263.517 153.89H263.517L256.396 155.214L256.123 155.265L256.03 155.496L253.388 162.025C252.787 163.505 250.398 163.464 249.863 161.968L244.064 145.684C243.579 144.323 245.164 143.116 246.621 143.713L263.918 150.81Z" fill="#7F51A5" stroke="#6D689D" stroke-width="0.5"/>
<defs>
<filter id="filter0_f_603_9519" x="0" y="0" width="258" height="248" filterUnits="userSpaceOnUse" color-interpolation-filters="sRGB">
<feFlood flood-opacity="0" result="BackgroundImageFix"/>
<feBlend mode="normal" in="SourceGraphic" in2="BackgroundImageFix" result="shape"/>
<feGaussianBlur stdDeviation="45" result="effect1_foregroundBlur_603_9519"/>
</filter>
<linearGradient id="paint0_linear_603_9519" x1="190.878" y1="88.91" x2="187.623" y2="127.006" gradientUnits="userSpaceOnUse">
<stop stop-color="#9289FF"/>
<stop offset="1" stop-color="#18171D"/>
</linearGradient>
<linearGradient id="paint1_linear_603_9519" x1="190.539" y1="12.1469" x2="174.646" y2="132.409" gradientUnits="userSpaceOnUse">
<stop stop-color="#9289FF"/>
<stop offset="1" stop-color="#18171D"/>
</linearGradient>
<linearGradient id="paint2_linear_603_9519" x1="211.64" y1="20.5046" x2="189.412" y2="128.896" gradientUnits="userSpaceOnUse">
<stop stop-color="#9289FF"/>
<stop offset="1" stop-color="#18171D"/>
</linearGradient>
<linearGradient id="paint3_linear_603_9519" x1="224.888" y1="15.6262" x2="204.398" y2="123.977" gradientUnits="userSpaceOnUse">
<stop stop-color="#9289FF"/>
<stop offset="1" stop-color="#18171D"/>
</linearGradient>
<linearGradient id="paint4_linear_603_9519" x1="203.036" y1="27.823" x2="188.457" y2="82.5894" gradientUnits="userSpaceOnUse">
<stop stop-color="#9289FF"/>
<stop offset="1" stop-color="#18171D"/>
</linearGradient>
<linearGradient id="paint5_linear_603_9519" x1="203.036" y1="66.7936" x2="199.107" y2="95.9498" gradientUnits="userSpaceOnUse">
<stop stop-color="#9289FF"/>
<stop offset="1" stop-color="#18171D"/>
</linearGradient>
<linearGradient id="paint6_linear_603_9519" x1="213.601" y1="67.7683" x2="296.715" y2="92.5779" gradientUnits="userSpaceOnUse">
<stop stop-opacity="0"/>
<stop offset="1"/>
</linearGradient>
<linearGradient id="paint7_linear_603_9519" x1="213.601" y1="39.7683" x2="296.715" y2="64.5779" gradientUnits="userSpaceOnUse">
<stop stop-opacity="0"/>
<stop offset="1"/>
</linearGradient>
<linearGradient id="paint8_linear_603_9519" x1="119.965" y1="100.89" x2="119.965" y2="114.778" gradientUnits="userSpaceOnUse">
<stop stop-color="#242332"/>
<stop offset="1" stop-color="#111014"/>
</linearGradient>
<linearGradient id="paint9_linear_603_9519" x1="91.2528" y1="96.2335" x2="142.363" y2="122.387" gradientUnits="userSpaceOnUse">
<stop stop-color="#A9A4FF"/>
<stop offset="1" stop-color="#18171D"/>
</linearGradient>
<linearGradient id="paint10_linear_603_9519" x1="119.965" y1="83.8838" x2="119.965" y2="97.7717" gradientUnits="userSpaceOnUse">
<stop stop-color="#242332"/>
<stop offset="1" stop-color="#111014"/>
</linearGradient>
<linearGradient id="paint11_linear_603_9519" x1="91.2528" y1="79.2272" x2="142.363" y2="105.381" gradientUnits="userSpaceOnUse">
<stop stop-color="#A9A4FF"/>
<stop offset="1" stop-color="#18171D"/>
</linearGradient>
<linearGradient id="paint12_linear_603_9519" x1="119.965" y1="117.894" x2="119.965" y2="131.782" gradientUnits="userSpaceOnUse">
<stop stop-color="#242332"/>
<stop offset="1" stop-color="#111014"/>
</linearGradient>
<linearGradient id="paint13_linear_603_9519" x1="91.2528" y1="113.237" x2="142.363" y2="139.391" gradientUnits="userSpaceOnUse">
<stop stop-color="#A9A4FF"/>
<stop offset="1" stop-color="#18171D"/>
</linearGradient>
</defs>
</svg>
