<svg width="16" height="16" viewBox="0 0 16 16" fill="none" xmlns="http://www.w3.org/2000/svg">
<path d="M14.0004 7.99979C14.0004 8.1324 13.9477 8.25958 13.8539 8.35334C13.7602 8.44711 13.633 8.49979 13.5004 8.49979H3.70727L7.35414 12.146C7.4006 12.1925 7.43745 12.2476 7.46259 12.3083C7.48773 12.369 7.50067 12.4341 7.50067 12.4998C7.50067 12.5655 7.48773 12.6305 7.46259 12.6912C7.43745 12.7519 7.4006 12.8071 7.35414 12.8535C7.30769 12.9 7.25254 12.9368 7.19184 12.962C7.13115 12.9871 7.06609 13.0001 7.00039 13.0001C6.9347 13.0001 6.86964 12.9871 6.80895 12.962C6.74825 12.9368 6.6931 12.9 6.64664 12.8535L2.14664 8.35354C2.10016 8.3071 2.06328 8.25196 2.03811 8.19126C2.01295 8.13056 2 8.0655 2 7.99979C2 7.93408 2.01295 7.86902 2.03811 7.80832C2.06328 7.74762 2.10016 7.69248 2.14664 7.64604L6.64664 3.14604C6.74046 3.05222 6.86771 2.99951 7.00039 2.99951C7.13308 2.99951 7.26032 3.05222 7.35414 3.14604C7.44796 3.23986 7.50067 3.36711 7.50067 3.49979C7.50067 3.63247 7.44796 3.75972 7.35414 3.85354L3.70727 7.49979H13.5004C13.633 7.49979 13.7602 7.55247 13.8539 7.64624C13.9477 7.74 14.0004 7.86718 14.0004 7.99979Z" fill="white"/>
</svg>
