<svg width="32" height="32" viewBox="0 0 32 32" fill="none" xmlns="http://www.w3.org/2000/svg">
<path d="M25.7071 24.2926C25.8 24.3855 25.8737 24.4958 25.924 24.6172C25.9743 24.7386 26.0001 24.8687 26.0001 25.0001C26.0001 25.1315 25.9743 25.2616 25.924 25.383C25.8737 25.5044 25.8 25.6147 25.7071 25.7076C25.6142 25.8005 25.5039 25.8742 25.3825 25.9245C25.2611 25.9747 25.131 26.0006 24.9996 26.0006C24.8682 26.0006 24.7381 25.9747 24.6167 25.9245C24.4953 25.8742 24.385 25.8005 24.2921 25.7076L15.9996 17.4138L7.70708 25.7076C7.51944 25.8952 7.26494 26.0006 6.99958 26.0006C6.73422 26.0006 6.47972 25.8952 6.29208 25.7076C6.10444 25.5199 5.99902 25.2654 5.99902 25.0001C5.99902 24.7347 6.10444 24.4802 6.29208 24.2926L14.5858 16.0001L6.29208 7.70757C6.10444 7.51993 5.99902 7.26543 5.99902 7.00007C5.99902 6.7347 6.10444 6.48021 6.29208 6.29257C6.47972 6.10493 6.73422 5.99951 6.99958 5.99951C7.26494 5.99951 7.51944 6.10493 7.70708 6.29257L15.9996 14.5863L24.2921 6.29257C24.4797 6.10493 24.7342 5.99951 24.9996 5.99951C25.2649 5.99951 25.5194 6.10493 25.7071 6.29257C25.8947 6.48021 26.0001 6.7347 26.0001 7.00007C26.0001 7.26543 25.8947 7.51993 25.7071 7.70757L17.4133 16.0001L25.7071 24.2926Z" fill="#9199A9"/>
</svg>
