<svg width="56" height="56" viewBox="0 0 56 56" fill="none" xmlns="http://www.w3.org/2000/svg">
<path d="M28 5.25C16.2247 5.25 7 10.6312 7 17.5V38.5C7 45.3688 16.2247 50.75 28 50.75C39.7753 50.75 49 45.3688 49 38.5V17.5C49 10.6312 39.7753 5.25 28 5.25ZM45.5 28C45.5 30.1044 43.7762 32.2503 40.7728 33.8888C37.3909 35.7328 32.8541 36.75 28 36.75C23.1459 36.75 18.6091 35.7328 15.2272 33.8888C12.2238 32.2503 10.5 30.1044 10.5 28V24.36C14.2319 27.6413 20.6128 29.75 28 29.75C35.3872 29.75 41.7681 27.6325 45.5 24.36V28ZM15.2272 11.6113C18.6091 9.76719 23.1459 8.75 28 8.75C32.8541 8.75 37.3909 9.76719 40.7728 11.6113C43.7762 13.2497 45.5 15.3956 45.5 17.5C45.5 19.6044 43.7762 21.7503 40.7728 23.3888C37.3909 25.2328 32.8541 26.25 28 26.25C23.1459 26.25 18.6091 25.2328 15.2272 23.3888C12.2238 21.7503 10.5 19.6044 10.5 17.5C10.5 15.3956 12.2238 13.2497 15.2272 11.6113ZM40.7728 44.3887C37.3909 46.2328 32.8541 47.25 28 47.25C23.1459 47.25 18.6091 46.2328 15.2272 44.3887C12.2238 42.7503 10.5 40.6044 10.5 38.5V34.86C14.2319 38.1413 20.6128 40.25 28 40.25C35.3872 40.25 41.7681 38.1325 45.5 34.86V38.5C45.5 40.6044 43.7762 42.7503 40.7728 44.3887Z" fill="url(#paint0_linear_1001_960)"/>
<defs>
<linearGradient id="paint0_linear_1001_960" x1="28.2333" y1="11.2" x2="28.2333" y2="59.5" gradientUnits="userSpaceOnUse">
<stop stop-color="#12CA98"/>
<stop offset="1" stop-color="#12CA98" stop-opacity="0.12"/>
</linearGradient>
</defs>
</svg>
