<svg width="112" height="24" viewBox="0 0 112 24" fill="none" xmlns="http://www.w3.org/2000/svg">
<path d="M99.1818 18.5693C99.1818 19.3612 99.0425 20.0798 98.7639 20.7251C98.4999 21.385 98.1187 21.9496 97.6201 22.4188C97.1215 22.9028 96.5202 23.2767 95.8163 23.5407C95.1124 23.8047 94.3352 23.9367 93.4847 23.9367C92.4875 23.9367 91.5709 23.7973 90.7351 23.5187C89.9138 23.2401 89.1293 22.7561 88.3814 22.0669L89.7232 20.3951C90.2365 20.9524 90.7937 21.3703 91.395 21.6489C91.9962 21.9422 92.6781 22.0889 93.4407 22.0889C94.1739 22.0889 94.7825 21.9789 95.2664 21.7589C95.7503 21.5536 96.1316 21.2823 96.4102 20.945C96.7035 20.6077 96.9088 20.2191 97.0261 19.7792C97.1435 19.3539 97.2021 18.9213 97.2021 18.4813V16.9415H97.1361C96.7549 17.5721 96.2343 18.0414 95.5744 18.3494C94.9291 18.6427 94.2472 18.7893 93.5287 18.7893C92.7661 18.7893 92.0549 18.6573 91.395 18.3934C90.7497 18.1147 90.1925 17.7408 89.7232 17.2715C89.2539 16.7876 88.8873 16.223 88.6234 15.5777C88.3594 14.9178 88.2274 14.2066 88.2274 13.444C88.2274 12.6814 88.3521 11.9702 88.6014 11.3103C88.8507 10.6357 89.2026 10.0491 89.6572 9.55047C90.1265 9.05187 90.6837 8.66325 91.329 8.38462C91.9889 8.10599 92.7221 7.96667 93.5287 7.96667C94.2325 7.96667 94.9145 8.12066 95.5744 8.42862C96.2489 8.73658 96.7768 9.16919 97.1581 9.72645H97.2021V8.23064H99.1818V18.5693ZM93.7706 9.81444C93.2427 9.81444 92.7661 9.90976 92.3408 10.1004C91.9156 10.2764 91.5563 10.5257 91.263 10.8483C90.9697 11.1563 90.7424 11.5376 90.5811 11.9922C90.4198 12.4321 90.3391 12.9161 90.3391 13.444C90.3391 14.4999 90.6471 15.3504 91.263 15.9957C91.8789 16.6262 92.7148 16.9415 93.7706 16.9415C94.8265 16.9415 95.6623 16.6262 96.2783 15.9957C96.8942 15.3504 97.2021 14.4999 97.2021 13.444C97.2021 12.9161 97.1215 12.4321 96.9602 11.9922C96.7989 11.5376 96.5715 11.1563 96.2783 10.8483C95.985 10.5257 95.6257 10.2764 95.2004 10.1004C94.7751 9.90976 94.2985 9.81444 93.7706 9.81444Z" fill="#F9F8FA"/>
<path d="M76.8386 13.444C76.8386 13.9719 76.9193 14.4632 77.0806 14.9178C77.2419 15.3577 77.4692 15.739 77.7625 16.0617C78.0558 16.3696 78.4151 16.6189 78.8403 16.8096C79.2656 16.9855 79.7422 17.0735 80.2701 17.0735C80.7981 17.0735 81.2747 16.9855 81.6999 16.8096C82.1252 16.6189 82.4845 16.3696 82.7778 16.0617C83.0711 15.739 83.2984 15.3577 83.4597 14.9178C83.621 14.4632 83.7016 13.9719 83.7016 13.444C83.7016 12.9161 83.621 12.4321 83.4597 11.9922C83.2984 11.5376 83.0711 11.1563 82.7778 10.8483C82.4845 10.5257 82.1252 10.2764 81.6999 10.1004C81.2747 9.90976 80.7981 9.81444 80.2701 9.81444C79.7422 9.81444 79.2656 9.90976 78.8403 10.1004C78.4151 10.2764 78.0558 10.5257 77.7625 10.8483C77.4692 11.1563 77.2419 11.5376 77.0806 11.9922C76.9193 12.4321 76.8386 12.9161 76.8386 13.444ZM74.7269 13.444C74.7269 12.6814 74.8662 11.9702 75.1449 11.3103C75.4382 10.6503 75.8341 10.0711 76.3327 9.57247C76.8313 9.07387 77.4179 8.68525 78.0924 8.40662C78.767 8.11332 79.4929 7.96667 80.2701 7.96667C81.0473 7.96667 81.7732 8.11332 82.4478 8.40662C83.1224 8.68525 83.709 9.07387 84.2076 9.57247C84.7062 10.0711 85.0948 10.6503 85.3734 11.3103C85.6667 11.9702 85.8133 12.6814 85.8133 13.444C85.8133 14.2066 85.6667 14.9251 85.3734 15.5997C85.0948 16.2596 84.7062 16.8389 84.2076 17.3375C83.709 17.8214 83.1224 18.21 82.4478 18.5033C81.7732 18.782 81.0473 18.9213 80.2701 18.9213C79.4929 18.9213 78.767 18.782 78.0924 18.5033C77.4179 18.21 76.8313 17.8214 76.3327 17.3375C75.8341 16.8389 75.4382 16.2596 75.1449 15.5997C74.8662 14.9251 74.7269 14.2066 74.7269 13.444Z" fill="#F9F8FA"/>
<path d="M67.0382 8.23064H69.0179V9.83644H69.0619C69.1939 9.55781 69.3699 9.30851 69.5898 9.08853C69.8098 8.8539 70.0518 8.65592 70.3157 8.49461C70.5944 8.3333 70.895 8.20864 71.2176 8.12066C71.5402 8.018 71.8628 7.96667 72.1855 7.96667C72.5081 7.96667 72.8014 8.01067 73.0653 8.09866L72.9773 10.2324C72.816 10.1884 72.6547 10.1517 72.4934 10.1224C72.3321 10.0931 72.1708 10.0784 72.0095 10.0784C71.0416 10.0784 70.3011 10.3497 69.7878 10.8923C69.2746 11.4349 69.0179 12.2781 69.0179 13.422V18.6573H67.0382V8.23064Z" fill="#F9F8FA"/>
<path d="M60.0429 9.94676H57.7992V8.23098H60.0429V5.89927C60.0429 4.50611 60.3068 3.47224 60.8348 2.79766C61.3773 2.10842 62.3012 1.76379 63.6064 1.76379C63.8263 1.76379 64.0536 1.77113 64.2883 1.78579C64.5376 1.80046 64.8015 1.84445 65.0802 1.91777L64.8602 3.67755C64.6695 3.60423 64.4862 3.5529 64.3103 3.52357C64.1343 3.49424 63.9436 3.47958 63.7383 3.47958C63.3717 3.47958 63.0784 3.53824 62.8585 3.65555C62.6385 3.75821 62.4625 3.91219 62.3305 4.1175C62.2132 4.3228 62.1326 4.57211 62.0886 4.8654C62.0593 5.14403 62.0446 5.46666 62.0446 5.83328V8.23098H64.3982V9.94676H62.0226V18.6577H60.0429V9.94676Z" fill="#F9F8FA"/>
<path d="M55.8344 18.6579H53.8547V17.162H53.8107C53.4294 17.7193 52.9015 18.1519 52.2269 18.4599C51.567 18.7678 50.8851 18.9218 50.1812 18.9218C49.3747 18.9218 48.6415 18.7825 47.9816 18.5039C47.3363 18.2252 46.7791 17.8366 46.3098 17.338C45.8552 16.8394 45.5032 16.2602 45.2539 15.6002C45.0047 14.9403 44.88 14.2217 44.88 13.4445C44.88 12.6673 45.0047 11.9487 45.2539 11.2888C45.5032 10.6142 45.8552 10.0349 46.3098 9.551C46.7791 9.0524 47.3363 8.66378 47.9816 8.38515C48.6415 8.10652 49.3747 7.9672 50.1812 7.9672C50.9291 7.9672 51.633 8.12852 52.2929 8.45114C52.9528 8.7591 53.4588 9.18438 53.8107 9.72698H53.8547V2.02795H55.8344V18.6579ZM50.4232 17.0741C50.9511 17.0741 51.4277 16.9861 51.853 16.8101C52.2783 16.6194 52.6376 16.3701 52.9308 16.0622C53.2241 15.7396 53.4514 15.3583 53.6127 14.9183C53.7741 14.4637 53.8547 13.9724 53.8547 13.4445C53.8547 12.9166 53.7741 12.4326 53.6127 11.9927C53.4514 11.5381 53.2241 11.1568 52.9308 10.8488C52.6376 10.5262 52.2783 10.2769 51.853 10.1009C51.4277 9.91029 50.9511 9.81497 50.4232 9.81497C49.8953 9.81497 49.4187 9.91029 48.9934 10.1009C48.5681 10.2769 48.2089 10.5262 47.9156 10.8488C47.6223 11.1568 47.395 11.5381 47.2337 11.9927C47.0724 12.4326 46.9917 12.9166 46.9917 13.4445C46.9917 13.9724 47.0724 14.4637 47.2337 14.9183C47.395 15.3583 47.6223 15.7396 47.9156 16.0622C48.2089 16.3701 48.5681 16.6194 48.9934 16.8101C49.4187 16.9861 49.8953 17.0741 50.4232 17.0741Z" fill="#F9F8FA"/>
<path d="M33.491 13.444C33.491 13.9719 33.5716 14.4632 33.7329 14.9178C33.8942 15.3577 34.1215 15.739 34.4148 16.0617C34.7081 16.3696 35.0674 16.6189 35.4927 16.8096C35.918 16.9855 36.3946 17.0735 36.9225 17.0735C37.4504 17.0735 37.927 16.9855 38.3523 16.8096C38.7775 16.6189 39.1368 16.3696 39.4301 16.0617C39.7234 15.739 39.9507 15.3577 40.112 14.9178C40.2733 14.4632 40.354 13.9719 40.354 13.444C40.354 12.9161 40.2733 12.4321 40.112 11.9922C39.9507 11.5376 39.7234 11.1563 39.4301 10.8483C39.1368 10.5257 38.7775 10.2764 38.3523 10.1004C37.927 9.90976 37.4504 9.81444 36.9225 9.81444C36.3946 9.81444 35.918 9.90976 35.4927 10.1004C35.0674 10.2764 34.7081 10.5257 34.4148 10.8483C34.1215 11.1563 33.8942 11.5376 33.7329 11.9922C33.5716 12.4321 33.491 12.9161 33.491 13.444ZM31.3793 13.444C31.3793 12.6814 31.5186 11.9702 31.7972 11.3103C32.0905 10.6503 32.4864 10.0711 32.985 9.57247C33.4836 9.07387 34.0702 8.68525 34.7448 8.40662C35.4194 8.11332 36.1453 7.96667 36.9225 7.96667C37.6997 7.96667 38.4256 8.11332 39.1002 8.40662C39.7747 8.68525 40.3613 9.07387 40.8599 9.57247C41.3585 10.0711 41.7471 10.6503 42.0257 11.3103C42.319 11.9702 42.4657 12.6814 42.4657 13.444C42.4657 14.2066 42.319 14.9251 42.0257 15.5997C41.7471 16.2596 41.3585 16.8389 40.8599 17.3375C40.3613 17.8214 39.7747 18.21 39.1002 18.5033C38.4256 18.782 37.6997 18.9213 36.9225 18.9213C36.1453 18.9213 35.4194 18.782 34.7448 18.5033C34.0702 18.21 33.4836 17.8214 32.985 17.3375C32.4864 16.8389 32.0905 16.2596 31.7972 15.5997C31.5186 14.9251 31.3793 14.2066 31.3793 13.444Z" fill="#F9F8FA"/>
<path d="M19.9904 13.444C19.9904 13.9719 20.071 14.4632 20.2323 14.9178C20.3936 15.3577 20.6209 15.739 20.9142 16.0617C21.2075 16.3696 21.5668 16.6189 21.9921 16.8096C22.4173 16.9855 22.8939 17.0735 23.4219 17.0735C23.9498 17.0735 24.4264 16.9855 24.8517 16.8096C25.2769 16.6189 25.6362 16.3696 25.9295 16.0617C26.2228 15.739 26.4501 15.3577 26.6114 14.9178C26.7727 14.4632 26.8534 13.9719 26.8534 13.444C26.8534 12.9161 26.7727 12.4321 26.6114 11.9922C26.4501 11.5376 26.2228 11.1563 25.9295 10.8483C25.6362 10.5257 25.2769 10.2764 24.8517 10.1004C24.4264 9.90976 23.9498 9.81444 23.4219 9.81444C22.8939 9.81444 22.4173 9.90976 21.9921 10.1004C21.5668 10.2764 21.2075 10.5257 20.9142 10.8483C20.6209 11.1563 20.3936 11.5376 20.2323 11.9922C20.071 12.4321 19.9904 12.9161 19.9904 13.444ZM17.8787 13.444C17.8787 12.6814 18.018 11.9702 18.2966 11.3103C18.5899 10.6503 18.9858 10.0711 19.4844 9.57247C19.983 9.07387 20.5696 8.68525 21.2442 8.40662C21.9187 8.11332 22.6446 7.96667 23.4219 7.96667C24.1991 7.96667 24.925 8.11332 25.5996 8.40662C26.2741 8.68525 26.8607 9.07387 27.3593 9.57247C27.8579 10.0711 28.2465 10.6503 28.5251 11.3103C28.8184 11.9702 28.9651 12.6814 28.9651 13.444C28.9651 14.2066 28.8184 14.9251 28.5251 15.5997C28.2465 16.2596 27.8579 16.8389 27.3593 17.3375C26.8607 17.8214 26.2741 18.21 25.5996 18.5033C24.925 18.782 24.1991 18.9213 23.4219 18.9213C22.6446 18.9213 21.9187 18.782 21.2442 18.5033C20.5696 18.21 19.983 17.8214 19.4844 17.3375C18.9858 16.8389 18.5899 16.2596 18.2966 15.5997C18.018 14.9251 17.8787 14.2066 17.8787 13.444Z" fill="#F9F8FA"/>
<path d="M0 8.23071H2.22168L4.57534 16.0177H4.61934L7.10498 8.23071H9.19468L11.8343 16.0177H11.8783L14.122 8.23071H16.2117L12.8462 18.6574H10.8444L8.09484 10.8704H8.05084L5.5652 18.6574H3.43151L0 8.23071Z" fill="#F9F8FA"/>
<path d="M103.568 0.458252L100.361 7.17951H102.041L104.179 2.44408L106.318 7.17951H108.151L104.791 0.458252H103.568Z" fill="#1498CC" stroke="#1498CC" stroke-width="0.305512"/>
</svg>
