<svg width="56" height="56" viewBox="0 0 56 56" fill="none" xmlns="http://www.w3.org/2000/svg">
<path d="M47.25 8.75H29.75V5.25C29.75 4.78587 29.5656 4.34075 29.2374 4.01256C28.9093 3.68437 28.4641 3.5 28 3.5C27.5359 3.5 27.0908 3.68437 26.7626 4.01256C26.4344 4.34075 26.25 4.78587 26.25 5.25V8.75H8.75C7.82174 8.75 6.9315 9.11875 6.27513 9.77513C5.61875 10.4315 5.25 11.3217 5.25 12.25V38.5C5.25 39.4283 5.61875 40.3185 6.27513 40.9749C6.9315 41.6312 7.82174 42 8.75 42H17.36L12.6328 47.9062C12.3427 48.2688 12.2086 48.7318 12.2599 49.1933C12.3111 49.6549 12.5436 50.0771 12.9062 50.3672C13.2689 50.6573 13.7318 50.7914 14.1933 50.7401C14.6549 50.6889 15.0771 50.4563 15.3672 50.0937L21.84 42H34.16L40.6328 50.0937C40.7764 50.2733 40.954 50.4228 41.1554 50.5337C41.3569 50.6446 41.5781 50.7148 41.8067 50.7401C42.0352 50.7655 42.2665 50.7457 42.4873 50.6817C42.7081 50.6177 42.9142 50.5108 43.0938 50.3672C43.2733 50.2236 43.4228 50.046 43.5337 49.8446C43.6446 49.6431 43.7148 49.4219 43.7401 49.1933C43.7655 48.9648 43.7457 48.7335 43.6817 48.5127C43.6177 48.2919 43.5108 48.0858 43.3672 47.9062L38.64 42H47.25C48.1783 42 49.0685 41.6312 49.7249 40.9749C50.3812 40.3185 50.75 39.4283 50.75 38.5V12.25C50.75 11.3217 50.3812 10.4315 49.7249 9.77513C49.0685 9.11875 48.1783 8.75 47.25 8.75ZM47.25 38.5H8.75V12.25H47.25V38.5ZM22.75 26.25V31.5C22.75 31.9641 22.5656 32.4092 22.2374 32.7374C21.9092 33.0656 21.4641 33.25 21 33.25C20.5359 33.25 20.0908 33.0656 19.7626 32.7374C19.4344 32.4092 19.25 31.9641 19.25 31.5V26.25C19.25 25.7859 19.4344 25.3407 19.7626 25.0126C20.0908 24.6844 20.5359 24.5 21 24.5C21.4641 24.5 21.9092 24.6844 22.2374 25.0126C22.5656 25.3407 22.75 25.7859 22.75 26.25ZM29.75 22.75V31.5C29.75 31.9641 29.5656 32.4092 29.2374 32.7374C28.9093 33.0656 28.4641 33.25 28 33.25C27.5359 33.25 27.0908 33.0656 26.7626 32.7374C26.4344 32.4092 26.25 31.9641 26.25 31.5V22.75C26.25 22.2859 26.4344 21.8408 26.7626 21.5126C27.0908 21.1844 27.5359 21 28 21C28.4641 21 28.9093 21.1844 29.2374 21.5126C29.5656 21.8408 29.75 22.2859 29.75 22.75ZM36.75 19.25V31.5C36.75 31.9641 36.5656 32.4092 36.2374 32.7374C35.9093 33.0656 35.4641 33.25 35 33.25C34.5359 33.25 34.0907 33.0656 33.7626 32.7374C33.4344 32.4092 33.25 31.9641 33.25 31.5V19.25C33.25 18.7859 33.4344 18.3408 33.7626 18.0126C34.0907 17.6844 34.5359 17.5 35 17.5C35.4641 17.5 35.9093 17.6844 36.2374 18.0126C36.5656 18.3408 36.75 18.7859 36.75 19.25Z" fill="url(#paint0_linear_1001_963)"/>
<defs>
<linearGradient id="paint0_linear_1001_963" x1="18.0469" y1="-6.83612" x2="40.8539" y2="56.1215" gradientUnits="userSpaceOnUse">
<stop stop-color="#FDED3D"/>
<stop offset="1" stop-color="#68621E"/>
</linearGradient>
</defs>
</svg>
