<svg width="32" height="32" viewBox="0 0 32 32" fill="none" xmlns="http://www.w3.org/2000/svg">
<path d="M22 28.9998C22 29.265 21.8947 29.5193 21.7071 29.7069C21.5196 29.8944 21.2653 29.9998 21 29.9998H11C10.7348 29.9998 10.4805 29.8944 10.2929 29.7069C10.1054 29.5193 10 29.265 10 28.9998C10 28.7346 10.1054 28.4802 10.2929 28.2927C10.4805 28.1051 10.7348 27.9998 11 27.9998H21C21.2653 27.9998 21.5196 28.1051 21.7071 28.2927C21.8947 28.4802 22 28.7346 22 28.9998ZM27 12.9998C27.0044 14.6668 26.6278 16.3128 25.899 17.8122C25.1702 19.3115 24.1086 20.6245 22.795 21.651C22.5494 21.8393 22.3501 22.0812 22.2123 22.3583C22.0745 22.6354 22.0019 22.9403 22 23.2498V23.9998C22 24.5302 21.7893 25.0389 21.4143 25.414C21.0392 25.7891 20.5305 25.9998 20 25.9998H12C11.4696 25.9998 10.9609 25.7891 10.5858 25.414C10.2108 25.0389 10 24.5302 10 23.9998V23.2498C9.99984 22.944 9.92953 22.6424 9.79453 22.368C9.65953 22.0937 9.46342 21.854 9.22129 21.6673C7.91104 20.6468 6.8501 19.3417 6.11876 17.8507C5.38743 16.3596 5.00487 14.7218 5.00004 13.061C4.96754 7.10352 9.78254 2.14227 15.735 1.99977C17.2017 1.96443 18.6607 2.22284 20.026 2.7598C21.3913 3.29675 22.6354 4.1014 23.6851 5.12639C24.7348 6.15137 25.5688 7.37598 26.1381 8.72814C26.7074 10.0803 27.0005 11.5327 27 12.9998ZM25 12.9998C25.0004 11.7994 24.7606 10.611 24.2948 9.50463C23.8289 8.39828 23.1465 7.3963 22.2876 6.55766C21.4287 5.71903 20.4107 5.06069 19.2935 4.62141C18.1764 4.18212 16.9826 3.97076 15.7825 3.99977C10.9075 4.11477 6.97379 8.17352 7.00004 13.0485C7.00461 14.4068 7.31804 15.7462 7.91661 16.9654C8.51518 18.1846 9.38322 19.2518 10.455 20.086C10.9368 20.4606 11.3266 20.9404 11.5944 21.4888C11.8621 22.0371 12.0009 22.6395 12 23.2498V23.9998H20V23.2498C20.0014 22.6378 20.1426 22.0342 20.4127 21.485C20.6829 20.9359 21.0748 20.4556 21.5588 20.081C22.6339 19.2408 23.5028 18.1661 24.0992 16.9388C24.6957 15.7116 25.0038 14.3643 25 12.9998ZM22.9863 11.8323C22.727 10.3839 22.0302 9.04973 20.9896 8.0094C19.949 6.96907 18.6147 6.27252 17.1663 6.01353C17.0368 5.99169 16.9042 5.99558 16.7762 6.02498C16.6482 6.05437 16.5272 6.10869 16.4202 6.18483C16.3132 6.26098 16.2222 6.35746 16.1525 6.46876C16.0828 6.58006 16.0356 6.70401 16.0138 6.83352C15.992 6.96304 15.9959 7.09559 16.0252 7.2236C16.0546 7.35161 16.109 7.47258 16.1851 7.5796C16.2612 7.68662 16.3577 7.7776 16.469 7.84733C16.5803 7.91706 16.7043 7.96419 16.8338 7.98602C18.905 8.33477 20.6625 10.0923 21.0138 12.1673C21.0534 12.4002 21.1741 12.6116 21.3546 12.7639C21.5352 12.9163 21.7638 12.9999 22 12.9998C22.0566 12.9994 22.113 12.9948 22.1688 12.986C22.4302 12.9414 22.6631 12.7948 22.8164 12.5784C22.9697 12.3621 23.0308 12.0937 22.9863 11.8323Z" fill="#F9F8FA"/>
</svg>
