<svg width="32" height="32" viewBox="0 0 32 32" fill="red" xmlns="http://www.w3.org/2000/svg">
<g clip-path="url(#clip0_1001_1457)">
<path d="M18 19.7101C19.5676 18.7337 20.7746 17.2734 21.4383 15.55C22.1021 13.8265 22.1865 11.9338 21.6787 10.1582C21.171 8.38254 20.0987 6.82057 18.6242 5.70859C17.1497 4.59661 15.3531 3.99512 13.5063 3.99512C11.6595 3.99512 9.86288 4.59661 8.38835 5.70859C6.91383 6.82057 5.84158 8.38254 5.33383 10.1582C4.82608 11.9338 4.91045 13.8265 5.57418 15.55C6.23792 17.2734 7.4449 18.7337 9.01252 19.7101C6.43127 20.5551 4.10877 22.1339 2.24127 24.3564C2.07053 24.5594 1.98746 24.822 2.01031 25.0863C2.03317 25.3506 2.16009 25.595 2.36314 25.7657C2.5662 25.9365 2.82876 26.0196 3.09307 25.9967C3.35738 25.9738 3.60178 25.8469 3.77252 25.6439C6.28127 22.6489 9.73877 21.0001 13.5 21.0001C17.2613 21.0001 20.7188 22.6489 23.2338 25.6439C23.4045 25.8469 23.6489 25.9738 23.9132 25.9967C24.1775 26.0196 24.4401 25.9365 24.6431 25.7657C24.8462 25.595 24.9731 25.3506 24.996 25.0863C25.0188 24.822 24.9357 24.5594 24.765 24.3564C22.8975 22.1339 20.575 20.5551 18 19.7101ZM7.00002 12.5001C7.00002 11.2145 7.38124 9.95783 8.09546 8.88891C8.80969 7.81999 9.82486 6.98687 11.0126 6.4949C12.2003 6.00293 13.5072 5.87421 14.7681 6.12501C16.029 6.37582 17.1872 6.99488 18.0962 7.90392C19.0053 8.81296 19.6243 9.97115 19.8751 11.232C20.1259 12.4929 19.9972 13.7998 19.5052 14.9876C19.0133 16.1753 18.1801 17.1904 17.1112 17.9047C16.0423 18.6189 14.7856 19.0001 13.5 19.0001C11.7767 18.9981 10.1246 18.3127 8.90602 17.0941C7.68746 15.8756 7.002 14.2234 7.00002 12.5001ZM31.7075 16.7076L27.7075 20.7076C27.6146 20.8006 27.5044 20.8744 27.383 20.9247C27.2616 20.975 27.1314 21.0009 27 21.0009C26.8686 21.0009 26.7385 20.975 26.6171 20.9247C26.4957 20.8744 26.3854 20.8006 26.2925 20.7076L24.2925 18.7076C24.1049 18.52 23.9995 18.2655 23.9995 18.0001C23.9995 17.7348 24.1049 17.4803 24.2925 17.2926C24.4802 17.105 24.7347 16.9996 25 16.9996C25.2654 16.9996 25.5199 17.105 25.7075 17.2926L27 18.5864L30.2925 15.2926C30.4802 15.105 30.7347 14.9996 31 14.9996C31.2654 14.9996 31.5199 15.105 31.7075 15.2926C31.8952 15.4803 32.0006 15.7348 32.0006 16.0001C32.0006 16.2655 31.8952 16.52 31.7075 16.7076Z" fill="#F9F8FA"/>
</g>
<defs>
<clipPath id="clip0_1001_1457">
<rect width="32" height="32" fill="red"/>
</clipPath>
</defs>
</svg>
