<svg width="64" height="64" viewBox="0 0 64 64" fill="none" xmlns="http://www.w3.org/2000/svg">
<rect x="1" y="1" width="62" height="62" rx="31" fill="#2F2D2D"/>
<rect x="0.5" y="0.5" width="63" height="63" rx="31.5" stroke="#FBFBFB" stroke-opacity="0.1"/>
<path d="M31 21V18C31 17.7348 31.1054 17.4804 31.2929 17.2929C31.4804 17.1054 31.7348 17 32 17C32.2652 17 32.5196 17.1054 32.7071 17.2929C32.8946 17.4804 33 17.7348 33 18V21C33 21.2652 32.8946 21.5196 32.7071 21.7071C32.5196 21.8946 32.2652 22 32 22C31.7348 22 31.4804 21.8946 31.2929 21.7071C31.1054 21.5196 31 21.2652 31 21ZM40 32C40 33.5823 39.5308 35.129 38.6518 36.4446C37.7727 37.7602 36.5233 38.7855 35.0615 39.391C33.5997 39.9965 31.9911 40.155 30.4393 39.8463C28.8874 39.5376 27.462 38.7757 26.3431 37.6569C25.2243 36.538 24.4624 35.1126 24.1537 33.5607C23.845 32.0089 24.0035 30.4003 24.609 28.9385C25.2145 27.4767 26.2398 26.2273 27.5554 25.3482C28.871 24.4692 30.4177 24 32 24C34.121 24.0023 36.1545 24.8459 37.6543 26.3457C39.1541 27.8455 39.9977 29.879 40 32ZM38 32C38 30.8133 37.6481 29.6533 36.9888 28.6666C36.3295 27.6799 35.3925 26.9108 34.2961 26.4567C33.1997 26.0026 31.9933 25.8838 30.8295 26.1153C29.6656 26.3468 28.5965 26.9182 27.7574 27.7574C26.9182 28.5965 26.3468 29.6656 26.1153 30.8295C25.8838 31.9933 26.0026 33.1997 26.4567 34.2961C26.9108 35.3925 27.6799 36.3295 28.6666 36.9888C29.6533 37.6481 30.8133 38 32 38C33.5908 37.9983 35.116 37.3657 36.2408 36.2408C37.3657 35.116 37.9983 33.5908 38 32ZM23.2925 24.7075C23.4801 24.8951 23.7346 25.0006 24 25.0006C24.2654 25.0006 24.5199 24.8951 24.7075 24.7075C24.8951 24.5199 25.0006 24.2654 25.0006 24C25.0006 23.7346 24.8951 23.4801 24.7075 23.2925L22.7075 21.2925C22.5199 21.1049 22.2654 20.9994 22 20.9994C21.7346 20.9994 21.4801 21.1049 21.2925 21.2925C21.1049 21.4801 20.9994 21.7346 20.9994 22C20.9994 22.2654 21.1049 22.5199 21.2925 22.7075L23.2925 24.7075ZM23.2925 39.2925L21.2925 41.2925C21.1049 41.4801 20.9994 41.7346 20.9994 42C20.9994 42.2654 21.1049 42.5199 21.2925 42.7075C21.4801 42.8951 21.7346 43.0006 22 43.0006C22.2654 43.0006 22.5199 42.8951 22.7075 42.7075L24.7075 40.7075C24.8004 40.6146 24.8741 40.5043 24.9244 40.3829C24.9747 40.2615 25.0006 40.1314 25.0006 40C25.0006 39.8686 24.9747 39.7385 24.9244 39.6171C24.8741 39.4957 24.8004 39.3854 24.7075 39.2925C24.6146 39.1996 24.5043 39.1259 24.3829 39.0756C24.2615 39.0253 24.1314 38.9994 24 38.9994C23.8686 38.9994 23.7385 39.0253 23.6171 39.0756C23.4957 39.1259 23.3854 39.1996 23.2925 39.2925ZM40 25C40.1314 25.0001 40.2615 24.9743 40.3829 24.9241C40.5042 24.8739 40.6146 24.8003 40.7075 24.7075L42.7075 22.7075C42.8951 22.5199 43.0006 22.2654 43.0006 22C43.0006 21.7346 42.8951 21.4801 42.7075 21.2925C42.5199 21.1049 42.2654 20.9994 42 20.9994C41.7346 20.9994 41.4801 21.1049 41.2925 21.2925L39.2925 23.2925C39.1525 23.4324 39.0571 23.6106 39.0185 23.8047C38.9798 23.9988 38.9996 24.2 39.0754 24.3828C39.1511 24.5656 39.2794 24.7218 39.444 24.8317C39.6086 24.9416 39.8021 25.0002 40 25ZM40.7075 39.2925C40.5199 39.1049 40.2654 38.9994 40 38.9994C39.7346 38.9994 39.4801 39.1049 39.2925 39.2925C39.1049 39.4801 38.9994 39.7346 38.9994 40C38.9994 40.2654 39.1049 40.5199 39.2925 40.7075L41.2925 42.7075C41.3854 42.8004 41.4957 42.8741 41.6171 42.9244C41.7385 42.9747 41.8686 43.0006 42 43.0006C42.1314 43.0006 42.2615 42.9747 42.3829 42.9244C42.5043 42.8741 42.6146 42.8004 42.7075 42.7075C42.8004 42.6146 42.8741 42.5043 42.9244 42.3829C42.9747 42.2615 43.0006 42.1314 43.0006 42C43.0006 41.8686 42.9747 41.7385 42.9244 41.6171C42.8741 41.4957 42.8004 41.3854 42.7075 41.2925L40.7075 39.2925ZM22 32C22 31.7348 21.8946 31.4804 21.7071 31.2929C21.5196 31.1054 21.2652 31 21 31H18C17.7348 31 17.4804 31.1054 17.2929 31.2929C17.1054 31.4804 17 31.7348 17 32C17 32.2652 17.1054 32.5196 17.2929 32.7071C17.4804 32.8946 17.7348 33 18 33H21C21.2652 33 21.5196 32.8946 21.7071 32.7071C21.8946 32.5196 22 32.2652 22 32ZM32 42C31.7348 42 31.4804 42.1054 31.2929 42.2929C31.1054 42.4804 31 42.7348 31 43V46C31 46.2652 31.1054 46.5196 31.2929 46.7071C31.4804 46.8946 31.7348 47 32 47C32.2652 47 32.5196 46.8946 32.7071 46.7071C32.8946 46.5196 33 46.2652 33 46V43C33 42.7348 32.8946 42.4804 32.7071 42.2929C32.5196 42.1054 32.2652 42 32 42ZM46 31H43C42.7348 31 42.4804 31.1054 42.2929 31.2929C42.1054 31.4804 42 31.7348 42 32C42 32.2652 42.1054 32.5196 42.2929 32.7071C42.4804 32.8946 42.7348 33 43 33H46C46.2652 33 46.5196 32.8946 46.7071 32.7071C46.8946 32.5196 47 32.2652 47 32C47 31.7348 46.8946 31.4804 46.7071 31.2929C46.5196 31.1054 46.2652 31 46 31Z" fill="#C7C6C8"/>
</svg>
