<svg width="28" height="26" viewBox="0 0 28 26" fill="none" xmlns="http://www.w3.org/2000/svg">
<path d="M27 11.5H15V8.5H16C16.5304 8.5 17.0391 8.28929 17.4142 7.91421C17.7893 7.53914 18 7.03043 18 6.5V2.5C18 1.96957 17.7893 1.46086 17.4142 1.08579C17.0391 0.710714 16.5304 0.5 16 0.5H12C11.4696 0.5 10.9609 0.710714 10.5858 1.08579C10.2107 1.46086 10 1.96957 10 2.5V6.5C10 7.03043 10.2107 7.53914 10.5858 7.91421C10.9609 8.28929 11.4696 8.5 12 8.5H13V11.5H1C0.734784 11.5 0.48043 11.6054 0.292893 11.7929C0.105357 11.9804 0 12.2348 0 12.5C0 12.7652 0.105357 13.0196 0.292893 13.2071C0.48043 13.3946 0.734784 13.5 1 13.5H5V17.5H4C3.46957 17.5 2.96086 17.7107 2.58579 18.0858C2.21071 18.4609 2 18.9696 2 19.5V23.5C2 24.0304 2.21071 24.5391 2.58579 24.9142C2.96086 25.2893 3.46957 25.5 4 25.5H8C8.53043 25.5 9.03914 25.2893 9.41421 24.9142C9.78929 24.5391 10 24.0304 10 23.5V19.5C10 18.9696 9.78929 18.4609 9.41421 18.0858C9.03914 17.7107 8.53043 17.5 8 17.5H7V13.5H21V17.5H20C19.4696 17.5 18.9609 17.7107 18.5858 18.0858C18.2107 18.4609 18 18.9696 18 19.5V23.5C18 24.0304 18.2107 24.5391 18.5858 24.9142C18.9609 25.2893 19.4696 25.5 20 25.5H24C24.5304 25.5 25.0391 25.2893 25.4142 24.9142C25.7893 24.5391 26 24.0304 26 23.5V19.5C26 18.9696 25.7893 18.4609 25.4142 18.0858C25.0391 17.7107 24.5304 17.5 24 17.5H23V13.5H27C27.2652 13.5 27.5196 13.3946 27.7071 13.2071C27.8946 13.0196 28 12.7652 28 12.5C28 12.2348 27.8946 11.9804 27.7071 11.7929C27.5196 11.6054 27.2652 11.5 27 11.5ZM12 2.5H16V6.5H12V2.5ZM8 23.5H4V19.5H8V23.5ZM24 23.5H20V19.5H24V23.5Z" fill="#F9F8FA"/>
</svg>
