<svg width="167" height="32" viewBox="0 0 167 32" fill="none" xmlns="http://www.w3.org/2000/svg">
<path d="M16.0328 1.6001L3 30.3984H5.22599L17.0445 3.9039L28.9031 30.3984H31.1296L18.0937 1.6001H16.0328ZM39.6453 1.6001V30.398H58.0203V28.506H41.7092V1.60016L39.6453 1.6001ZM66.7327 1.6001V3.49215H77.7823C80.3725 3.49215 82.6793 4.02685 84.7029 5.09651C86.6861 6.16617 88.2239 7.64741 89.3168 9.49858C90.3691 11.3911 90.936 13.5716 90.936 15.9989C90.936 18.4674 90.3691 20.6069 89.3168 22.4993C88.224 24.3918 86.6861 25.8728 84.7029 26.9422C82.6793 28.0119 80.3727 28.5057 77.7823 28.5057H68.7975V16.001H66.7329V30.4001H77.9445C80.8585 30.4001 83.4891 29.7831 85.7559 28.5489C88.0223 27.3147 89.803 25.6279 91.0984 23.4476C92.3531 21.2671 93.0006 18.7988 93.0006 16.0013C93.0006 13.2449 92.3531 10.7762 91.0984 8.59592C89.8032 6.41546 88.0224 4.72902 85.7559 3.45378C83.4894 2.21955 80.8585 1.60254 77.9445 1.60254L66.7327 1.6001ZM103.543 1.6001V3.49215H121.877V1.6001H103.543ZM134.03 1.6001V3.49215H152.162V1.6001H134.03ZM162.936 1.6001V30.398H165V1.6001H162.936ZM103.543 14.8472V16.6984H121.877V14.8472H103.543ZM134.03 15.7938V30.3982H136.094V17.686H152.162V15.7939L134.03 15.7938ZM103.543 28.5061V30.3981H121.877V28.5061H103.543Z" fill="black" stroke="#F9F8FA" stroke-width="3" stroke-linecap="round"/>
</svg>
